<svg width="48" height="48" viewBox="0 0 48 48" fill="none" xmlns="http://www.w3.org/2000/svg">
<path d="M37.8837 10.5933C35.2605 9.36589 32.4853 8.49378 29.6315 8C29.2761 8.64266 28.8608 9.50703 28.5744 10.1947C25.4975 9.73203 22.4489 9.73203 19.4286 10.1947C19.1423 9.50719 18.7176 8.64266 18.3589 8C15.5023 8.49401 12.7248 9.36834 10.1003 10.5997C4.8778 18.4917 3.46202 26.1875 4.16983 33.7744C7.63374 36.3611 10.9906 37.9325 14.2909 38.9608C15.1111 37.8328 15.8362 36.6387 16.4586 35.3906C15.2736 34.9395 14.1313 34.3835 13.0451 33.7294C13.331 33.5175 13.6101 33.2967 13.882 33.0673C20.4636 36.1458 27.6148 36.1458 34.1179 33.0673C34.3911 33.2952 34.6701 33.516 34.9547 33.7294C33.8668 34.3853 32.7223 34.9423 31.535 35.3939C32.1609 36.647 32.8847 37.8423 33.7026 38.9639C37.0061 37.9358 40.3661 36.3644 43.83 33.7744C44.6606 24.9794 42.4112 17.3541 37.8837 10.5931V10.5933ZM17.3553 29.1086C15.3795 29.1086 13.7592 27.2641 13.7592 25.018C13.7592 22.7719 15.345 20.9242 17.3553 20.9242C19.3658 20.9242 20.9859 22.7686 20.9514 25.018C20.9545 27.2641 19.3658 29.1086 17.3553 29.1086ZM30.6445 29.1086C28.6687 29.1086 27.0486 27.2641 27.0486 25.018C27.0486 22.7719 28.6342 20.9242 30.6445 20.9242C32.655 20.9242 34.2751 22.7686 34.2406 25.018C34.2406 27.2641 32.655 29.1086 30.6445 29.1086Z" fill="#5865F2"/>
</svg>
