<svg width="79" height="79" viewBox="0 0 79 79" fill="none" xmlns="http://www.w3.org/2000/svg">
<path d="M62.3502 17.4348C58.0328 15.4147 53.4653 13.9793 48.7685 13.1667C48.1835 14.2244 47.4999 15.647 47.0285 16.7787C41.9645 16.0173 36.947 16.0173 31.9761 16.7787C31.505 15.6472 30.806 14.2244 30.2156 13.1667C25.5142 13.9797 20.9428 15.4187 16.6233 17.4453C8.02797 30.4343 5.69783 43.1002 6.86277 55.587C12.5638 59.8443 18.0886 62.4305 23.5204 64.1229C24.8703 62.2665 26.0636 60.3011 27.088 58.247C25.1378 57.5046 23.2576 56.5896 21.47 55.5129C21.9405 55.1642 22.3998 54.8009 22.8474 54.4233C33.6796 59.4899 45.4493 59.4899 56.1524 54.4233C56.6019 54.7984 57.0611 55.1617 57.5295 55.5129C55.739 56.5924 53.8554 57.5092 51.9012 58.2524C52.9314 60.3149 54.1226 62.2822 55.4688 64.1281C60.9057 62.4359 66.4357 59.8497 72.1368 55.587C73.5038 41.1119 69.8017 28.5619 62.3502 17.4345V17.4348ZM28.5638 47.9079C25.312 47.9079 22.6453 44.8721 22.6453 41.1754C22.6453 37.4787 25.2552 34.4378 28.5638 34.4378C31.8727 34.4378 34.5392 37.4733 34.4824 41.1754C34.4876 44.8721 31.8727 47.9079 28.5638 47.9079ZM50.4357 47.9079C47.1839 47.9079 44.5174 44.8721 44.5174 41.1754C44.5174 37.4787 47.127 34.4378 50.4357 34.4378C53.7446 34.4378 56.4111 37.4733 56.3542 41.1754C56.3542 44.8721 53.7446 47.9079 50.4357 47.9079V47.9079Z" fill="#CCCCCC"/>
</svg>
