<svg width="519" height="153" viewBox="0 0 519 153" fill="none" xmlns="http://www.w3.org/2000/svg">
<path d="M18.05 152.4C13.57 152.4 9.51667 151.387 5.89 149.36C2.26333 147.333 0.45 144.453 0.45 140.72C0.45 137.947 1.35667 135.813 3.17 134.32C4.98333 132.827 7.11667 132.08 9.57 132.08C12.0233 132.08 14.3167 132.72 16.45 134C18.4767 135.28 20.29 137.52 21.89 140.72L23.49 144.72C24.13 145.893 24.8767 146.533 25.73 146.64C26.5833 146.853 27.3833 146.32 28.13 145.04C28.6633 144.08 29.1433 142.96 29.57 141.68C29.9967 140.507 30.53 139.013 31.17 137.2C32.6633 133.573 33.9433 129.147 35.01 123.92C36.1833 118.8 37.25 113.093 38.21 106.8C39.9167 96.3467 41.57 85.6267 43.17 74.64C44.77 63.6533 46.4233 52.08 48.13 39.92H35.17L35.49 38.48L41.73 37.84C44.29 37.52 46.21 36.6667 47.49 35.28C48.77 33.8933 49.7833 31.8667 50.53 29.2C53.41 19.92 58.05 12.7733 64.45 7.75999C70.85 2.74666 78.7433 0.239996 88.13 0.239996C93.4633 0.239996 97.7833 1.41333 101.09 3.76C104.397 5.99999 106.05 8.87999 106.05 12.4C106.05 15.28 105.143 17.5733 103.33 19.28C101.517 20.9867 99.33 21.84 96.77 21.84C91.7567 21.84 87.5967 18.48 84.29 11.76L83.65 9.2C82.69 6.95999 81.57 5.89333 80.29 6C79.1167 6 78.1033 6.8 77.25 8.4C75.4367 10.96 73.7833 14.5333 72.29 19.12C70.7967 23.7067 69.4633 29.68 68.29 37.04H87.81L87.01 40.4L67.81 40.24C66.1033 51.5467 64.3967 62.9067 62.69 74.32C61.09 85.6267 59.33 96.5067 57.41 106.96C55.9167 114.853 53.9433 121.68 51.49 127.44C49.1433 133.307 45.9433 138.267 41.89 142.32C38.5833 145.627 34.85 148.133 30.69 149.84C26.6367 151.547 22.4233 152.4 18.05 152.4ZM113.948 116.4C108.401 116.4 103.334 115.333 98.7475 113.2C94.1608 110.96 90.5342 107.653 87.8675 103.28C85.2008 98.8 83.8675 93.1467 83.8675 86.32C83.8675 79.4933 84.9875 72.9867 87.2275 66.8C89.5742 60.6133 92.8275 55.12 96.9875 50.32C101.148 45.4133 106.001 41.5733 111.548 38.8C117.094 36.0267 123.121 34.64 129.628 34.64C135.281 34.64 140.294 35.76 144.668 38C149.148 40.1333 152.668 43.3867 155.228 47.76C157.894 52.1333 159.228 57.7333 159.228 64.56C159.228 71.28 158.054 77.7867 155.708 84.08C153.468 90.2667 150.268 95.8133 146.108 100.72C142.054 105.52 137.254 109.36 131.708 112.24C126.268 115.013 120.348 116.4 113.948 116.4ZM115.868 113.2C119.174 113.2 122.161 111.707 124.828 108.72C127.601 105.627 130.001 101.573 132.028 96.56C134.054 91.44 135.601 85.84 136.668 79.76C137.734 73.5733 138.268 67.44 138.268 61.36C138.268 52.5067 137.361 46.3733 135.548 42.96C133.734 39.5467 131.388 37.84 128.508 37.84C125.094 37.84 121.948 39.3333 119.068 42.32C116.188 45.3067 113.681 49.3067 111.548 54.32C109.414 59.3333 107.761 64.88 106.588 70.96C105.414 77.04 104.828 83.12 104.828 89.2C104.828 98.2667 105.894 104.56 108.028 108.08C110.161 111.493 112.774 113.2 115.868 113.2ZM167.298 115.12L165.698 114L177.858 55.44C178.391 52.6667 178.231 50.64 177.378 49.36C176.524 47.9733 175.084 46.8533 173.058 46L170.658 44.88L170.978 43.28L198.818 34.48L200.418 35.92L196.098 62.32C198.338 57.2 200.951 52.56 203.938 48.4C206.924 44.24 210.071 40.9333 213.378 38.48C216.684 35.92 219.991 34.64 223.298 34.64C226.604 34.64 229.271 35.5467 231.298 37.36C233.324 39.0667 234.338 41.36 234.338 44.24C234.338 47.2267 233.431 49.68 231.618 51.6C229.911 53.52 227.564 54.48 224.578 54.48C222.231 54.48 219.991 53.8933 217.858 52.72C215.724 51.44 213.644 49.6267 211.618 47.28C207.884 50.0533 204.684 53.68 202.018 58.16C199.351 62.5333 196.898 67.3333 194.658 72.56L193.058 79.92C191.884 85.5733 190.764 91.2267 189.698 96.88C188.631 102.533 187.564 108.24 186.498 114L167.298 115.12ZM284.175 114L284.495 112.4L288.495 110.96C292.655 109.573 295.108 106.747 295.855 102.48L301.775 71.28L284.175 18.32C283.108 14.6933 280.762 12.1867 277.135 10.8L275.375 9.99999L275.695 8.4H315.855L315.535 9.99999L312.015 11.12C308.602 12.1867 307.375 14.48 308.335 18L321.935 64.08L350.255 17.68C352.175 14.3733 351.322 12.1333 347.695 10.96L344.495 9.99999L344.815 8.4H366.575L366.255 9.99999L363.215 11.12C361.188 11.76 359.482 12.6133 358.095 13.68C356.708 14.7467 355.428 16.24 354.255 18.16L324.015 68.08C323.162 72.9867 322.148 78.64 320.975 85.04C319.802 91.44 318.735 97.4133 317.775 102.96C317.135 106.907 318.682 109.627 322.415 111.12L326.095 112.4L325.775 114H284.175ZM384.26 116.4C378.713 116.4 373.647 115.333 369.06 113.2C364.473 110.96 360.847 107.653 358.18 103.28C355.513 98.8 354.18 93.1467 354.18 86.32C354.18 79.4933 355.3 72.9867 357.54 66.8C359.887 60.6133 363.14 55.12 367.3 50.32C371.46 45.4133 376.313 41.5733 381.86 38.8C387.407 36.0267 393.433 34.64 399.94 34.64C405.593 34.64 410.607 35.76 414.98 38C419.46 40.1333 422.98 43.3867 425.54 47.76C428.207 52.1333 429.54 57.7333 429.54 64.56C429.54 71.28 428.367 77.7867 426.02 84.08C423.78 90.2667 420.58 95.8133 416.42 100.72C412.367 105.52 407.567 109.36 402.02 112.24C396.58 115.013 390.66 116.4 384.26 116.4ZM386.18 113.2C389.487 113.2 392.473 111.707 395.14 108.72C397.913 105.627 400.313 101.573 402.34 96.56C404.367 91.44 405.913 85.84 406.98 79.76C408.047 73.5733 408.58 67.44 408.58 61.36C408.58 52.5067 407.673 46.3733 405.86 42.96C404.047 39.5467 401.7 37.84 398.82 37.84C395.407 37.84 392.26 39.3333 389.38 42.32C386.5 45.3067 383.993 49.3067 381.86 54.32C379.727 59.3333 378.073 64.88 376.9 70.96C375.727 77.04 375.14 83.12 375.14 89.2C375.14 98.2667 376.207 104.56 378.34 108.08C380.473 111.493 383.087 113.2 386.18 113.2ZM452.33 116.4C448.703 116.4 445.557 115.333 442.89 113.2C440.33 110.96 439.05 107.653 439.05 103.28C439.05 100.827 439.317 98.16 439.85 95.28C440.383 92.4 440.97 89.5733 441.61 86.8L448.65 55.28C449.61 51.12 448.17 48.08 444.33 46.16L441.29 44.88L441.45 43.12L471.69 34.48L473.13 35.76L461.93 84.72C461.29 87.3867 460.757 89.7867 460.33 91.92C459.903 94.0533 459.69 96.0267 459.69 97.84C459.69 100.187 460.223 101.893 461.29 102.96C462.357 103.92 463.743 104.4 465.45 104.4C467.903 104.4 470.623 103.547 473.61 101.84C476.597 100.027 480.063 97.2533 484.01 93.52C484.117 92.88 484.277 92.1867 484.49 91.44L489.93 65.68C490.783 61.52 491.583 57.36 492.33 53.2C493.183 48.9333 493.983 44.6667 494.73 40.4L514.89 34.48L516.65 35.92L504.01 94C503.157 97.7333 502.73 100.667 502.73 102.8C502.73 105.04 503.69 106.16 505.61 106.16C507.103 106.16 508.703 105.573 510.41 104.4C512.117 103.12 514.197 101.253 516.65 98.8L518.57 100.72C515.903 104.667 512.49 108.293 508.33 111.6C504.277 114.8 499.637 116.4 494.41 116.4C491.103 116.4 488.33 115.28 486.09 113.04C483.957 110.693 482.89 107.387 482.89 103.12C482.89 101.52 482.997 99.9733 483.21 98.48C477.663 104.027 472.277 108.4 467.05 111.6C461.93 114.8 457.023 116.4 452.33 116.4Z" fill="url(#paint0_linear_45_618)" fill-opacity="0.1"/>
<path d="M5.89 149.36L5.40218 150.233L5.40218 150.233L5.89 149.36ZM3.17 134.32L2.53429 133.548L2.53429 133.548L3.17 134.32ZM16.45 134L16.984 133.155L16.9743 133.148L16.9645 133.143L16.45 134ZM21.89 140.72L22.8185 140.349L22.803 140.31L22.7844 140.273L21.89 140.72ZM23.49 144.72L22.5615 145.091L22.5836 145.147L22.6121 145.199L23.49 144.72ZM25.73 146.64L25.9725 145.67L25.914 145.655L25.854 145.648L25.73 146.64ZM28.13 145.04L28.9938 145.544L28.9991 145.535L29.0042 145.526L28.13 145.04ZM29.57 141.68L28.6302 141.338L28.6256 141.351L28.6213 141.364L29.57 141.68ZM31.17 137.2L30.2453 136.819L30.2356 136.843L30.227 136.867L31.17 137.2ZM35.01 123.92L34.0353 123.697L34.0326 123.708L34.0302 123.72L35.01 123.92ZM38.21 106.8L37.223 106.639L37.2214 106.649L38.21 106.8ZM48.13 39.92L49.1203 40.059L49.2802 38.92H48.13V39.92ZM35.17 39.92L34.1938 39.7031L33.9234 40.92H35.17V39.92ZM35.49 38.48L35.388 37.4852L34.6703 37.5588L34.5138 38.2631L35.49 38.48ZM41.73 37.84L41.832 38.8348L41.843 38.8336L41.854 38.8323L41.73 37.84ZM47.49 35.28L48.2248 35.9583L48.2248 35.9583L47.49 35.28ZM50.53 29.2L49.5749 28.9036L49.5708 28.9169L49.567 28.9304L50.53 29.2ZM64.45 7.75999L63.8333 6.97277L64.45 7.75999ZM101.09 3.76L100.511 4.57551L100.52 4.58181L100.529 4.58792L101.09 3.76ZM103.33 19.28L104.015 20.0082L104.015 20.0082L103.33 19.28ZM84.29 11.76L83.3199 12.0025L83.3457 12.1059L83.3927 12.2015L84.29 11.76ZM83.65 9.2L84.6201 8.95746L84.6007 8.87972L84.5691 8.80608L83.65 9.2ZM80.29 6V7H80.3316L80.3731 6.99654L80.29 6ZM77.25 8.4L78.066 8.97801L78.1026 8.9264L78.1324 8.87058L77.25 8.4ZM72.29 19.12L71.3391 18.8104L71.3391 18.8104L72.29 19.12ZM68.29 37.04L67.3025 36.8826L67.118 38.04H68.29V37.04ZM87.81 37.04L88.7828 37.2716L89.0761 36.04H87.81V37.04ZM87.01 40.4L87.0017 41.4L87.7983 41.4066L87.9828 40.6316L87.01 40.4ZM67.81 40.24L67.8183 39.24L66.9507 39.2328L66.8212 40.0907L67.81 40.24ZM62.69 74.32L61.701 74.1721L61.6999 74.1799L62.69 74.32ZM57.41 106.96L58.3926 107.146L58.3935 107.141L57.41 106.96ZM51.49 127.44L50.57 127.048L50.5656 127.058L50.5615 127.069L51.49 127.44ZM41.89 142.32L41.1829 141.613L41.1829 141.613L41.89 142.32ZM30.69 149.84L30.3104 148.915L30.3019 148.918L30.69 149.84ZM18.05 151.4C13.727 151.4 9.84381 150.424 6.37782 148.487L5.40218 150.233C9.18952 152.349 13.413 153.4 18.05 153.4V151.4ZM6.37782 148.487C3.02401 146.613 1.45 144.044 1.45 140.72H-0.55C-0.55 144.863 1.50265 148.054 5.40218 150.233L6.37782 148.487ZM1.45 140.72C1.45 138.186 2.26565 136.36 3.80571 135.092L2.53429 133.548C0.447686 135.266 -0.55 137.708 -0.55 140.72H1.45ZM3.80571 135.092C5.43158 133.753 7.33745 133.08 9.57 133.08V131.08C6.89588 131.08 4.53509 131.9 2.53429 133.548L3.80571 135.092ZM9.57 133.08C11.8394 133.08 13.9553 133.669 15.9355 134.857L16.9645 133.143C14.6781 131.771 12.2072 131.08 9.57 131.08V133.08ZM15.916 134.845C17.7304 135.991 19.4397 138.056 20.9956 141.167L22.7844 140.273C21.1403 136.984 19.2229 134.569 16.984 133.155L15.916 134.845ZM20.9615 141.091L22.5615 145.091L24.4185 144.349L22.8185 140.349L20.9615 141.091ZM22.6121 145.199C23.3183 146.494 24.2869 147.467 25.606 147.632L25.854 145.648C25.4665 145.599 24.9417 145.293 24.3679 144.241L22.6121 145.199ZM25.4875 147.61C26.2147 147.792 26.9147 147.639 27.5247 147.232C28.1014 146.848 28.5813 146.251 28.9938 145.544L27.2662 144.536C26.932 145.109 26.6386 145.419 26.4153 145.568C26.2253 145.695 26.0987 145.701 25.9725 145.67L25.4875 147.61ZM29.0042 145.526C29.5734 144.501 30.0767 143.322 30.5187 141.996L28.6213 141.364C28.21 142.598 27.7533 143.659 27.2558 144.554L29.0042 145.526ZM30.5098 142.022C30.938 140.844 31.4724 139.348 32.113 137.533L30.227 136.867C29.5876 138.679 29.0554 140.169 28.6302 141.338L30.5098 142.022ZM32.0947 137.581C33.6189 133.879 34.9147 129.388 35.9898 124.12L34.0302 123.72C32.972 128.905 31.7078 133.268 30.2453 136.819L32.0947 137.581ZM35.9847 124.143C37.1646 118.995 38.2356 113.264 39.1986 106.951L37.2214 106.649C36.2644 112.923 35.2021 118.605 34.0353 123.697L35.9847 124.143ZM39.1969 106.961C40.9046 96.5019 42.5588 85.7762 44.1596 74.7841L42.1804 74.4959C40.5812 85.4771 38.9288 96.1915 37.2231 106.639L39.1969 106.961ZM44.1596 74.7841C45.7598 63.7956 47.4134 52.2205 49.1203 40.059L47.1397 39.781C45.4333 51.9395 43.7802 63.5111 42.1804 74.4959L44.1596 74.7841ZM48.13 38.92H35.17V40.92H48.13V38.92ZM36.1462 40.1369L36.4662 38.6969L34.5138 38.2631L34.1938 39.7031L36.1462 40.1369ZM35.592 39.4748L41.832 38.8348L41.628 36.8452L35.388 37.4852L35.592 39.4748ZM41.854 38.8323C44.5624 38.4937 46.7344 37.5729 48.2248 35.9583L46.7552 34.6017C45.6856 35.7604 44.0176 36.5463 41.606 36.8477L41.854 38.8323ZM48.2248 35.9583C49.6505 34.4138 50.7221 32.2228 51.493 29.4696L49.567 28.9304C48.8446 31.5105 47.8895 33.3729 46.7552 34.6017L48.2248 35.9583ZM51.4851 29.4964C54.3168 20.3719 58.8559 13.4123 65.0667 8.54722L63.8333 6.97277C57.2441 12.1343 52.5032 19.4681 49.5749 28.9036L51.4851 29.4964ZM65.0667 8.54722C71.2642 3.69251 78.9307 1.24 88.13 1.24V-0.760004C78.5559 -0.760004 70.4358 1.80082 63.8333 6.97277L65.0667 8.54722ZM88.13 1.24C93.3208 1.24 97.4198 2.3816 100.511 4.57551L101.669 2.94449C98.1468 0.445064 93.6059 -0.760004 88.13 -0.760004V1.24ZM100.529 4.58792C103.604 6.67106 105.05 9.2606 105.05 12.4H107.05C107.05 8.49939 105.189 5.32893 101.651 2.93208L100.529 4.58792ZM105.05 12.4C105.05 15.0515 104.225 17.0642 102.645 18.5518L104.015 20.0082C106.061 18.0825 107.05 15.5085 107.05 12.4H105.05ZM102.645 18.5518C101.022 20.0785 99.0832 20.84 96.77 20.84V22.84C99.5768 22.84 102.011 21.8948 104.015 20.0082L102.645 18.5518ZM96.77 20.84C92.3109 20.84 88.4189 17.886 85.1873 11.3185L83.3927 12.2015C86.7745 19.074 91.2024 22.84 96.77 22.84V20.84ZM85.2601 11.5175L84.6201 8.95746L82.6799 9.44253L83.3199 12.0025L85.2601 11.5175ZM84.5691 8.80608C84.0631 7.62534 83.4778 6.6608 82.7797 5.99586C82.0588 5.30936 81.1893 4.92158 80.207 5.00345L80.3731 6.99654C80.6707 6.97174 81.0012 7.06396 81.4003 7.44413C81.8222 7.84585 82.2769 8.53465 82.7309 9.59391L84.5691 8.80608ZM80.29 5C78.5702 5 77.2915 6.19717 76.3676 7.92941L78.1324 8.87058C78.9152 7.40282 79.6631 7 80.29 7V5ZM76.434 7.82198C74.54 10.4958 72.8488 14.1736 71.3391 18.8104L73.2409 19.4296C74.7179 14.893 76.3333 11.4242 78.066 8.97801L76.434 7.82198ZM71.3391 18.8104C69.8234 23.4658 68.4801 29.4955 67.3025 36.8826L69.2775 37.1974C70.4466 29.8644 71.7699 23.9475 73.2409 19.4296L71.3391 18.8104ZM68.29 38.04H87.81V36.04H68.29V38.04ZM86.8372 36.8084L86.0372 40.1684L87.9828 40.6316L88.7828 37.2716L86.8372 36.8084ZM87.0183 39.4L67.8183 39.24L67.8017 41.24L87.0017 41.4L87.0183 39.4ZM66.8212 40.0907C65.1145 51.3979 63.4077 62.7583 61.701 74.1721L63.679 74.4679C65.3856 63.055 67.0922 51.6955 68.7988 40.3892L66.8212 40.0907ZM61.6999 74.1799C60.1016 85.474 58.3438 96.3404 56.4265 106.779L58.3935 107.141C60.3162 96.6729 62.0784 85.7793 63.6801 74.4601L61.6999 74.1799ZM56.4274 106.774C54.9439 114.616 52.9885 121.37 50.57 127.048L52.41 127.832C54.8982 121.99 56.8894 115.091 58.3926 107.146L56.4274 106.774ZM50.5615 127.069C48.26 132.822 45.1311 137.665 41.1829 141.613L42.5971 143.027C46.7556 138.869 50.0267 133.791 52.4185 127.811L50.5615 127.069ZM41.1829 141.613C37.9661 144.83 34.343 147.26 30.3104 148.915L31.0696 150.765C35.357 149.006 39.2006 146.424 42.5971 143.027L41.1829 141.613ZM30.3019 148.918C26.3707 150.574 22.2893 151.4 18.05 151.4V153.4C22.5574 153.4 26.9026 152.52 31.0781 150.762L30.3019 148.918ZM98.7475 113.2L98.3087 114.099L98.3172 114.103L98.3258 114.107L98.7475 113.2ZM87.8675 103.28L87.0082 103.792L87.0137 103.801L87.8675 103.28ZM87.2275 66.8L86.2925 66.4453L86.2898 66.4524L86.2872 66.4596L87.2275 66.8ZM96.9875 50.32L97.7432 50.975L97.7503 50.9667L96.9875 50.32ZM111.548 38.8L111.995 39.6944L111.995 39.6944L111.548 38.8ZM144.668 38L144.212 38.89L144.225 38.8966L144.238 38.9029L144.668 38ZM155.228 47.76L154.364 48.2652L154.369 48.2729L154.374 48.2806L155.228 47.76ZM155.708 84.08L154.77 83.7306L154.767 83.7396L155.708 84.08ZM146.108 100.72L145.345 100.073L145.343 100.075L146.108 100.72ZM131.708 112.24L132.162 113.131L132.168 113.127L131.708 112.24ZM124.828 108.72L124.083 108.052L124.082 108.054L124.828 108.72ZM132.028 96.56L132.955 96.9348L132.957 96.928L132.028 96.56ZM136.668 79.76L137.652 79.9328L137.653 79.9299L136.668 79.76ZM135.548 42.96L136.431 42.4908L136.431 42.4908L135.548 42.96ZM119.068 42.32L118.348 41.6259L118.348 41.6259L119.068 42.32ZM111.548 54.32L112.468 54.7116L112.468 54.7116L111.548 54.32ZM106.588 70.96L107.569 71.1495L107.569 71.1495L106.588 70.96ZM108.028 108.08L107.172 108.598L107.18 108.61L108.028 108.08ZM113.948 115.4C108.532 115.4 103.611 114.359 99.1692 112.293L98.3258 114.107C103.057 116.307 108.269 117.4 113.948 117.4V115.4ZM99.1863 112.301C94.7719 110.146 91.2889 106.97 88.7213 102.759L87.0137 103.801C89.7794 108.336 93.5498 111.774 98.3087 114.099L99.1863 112.301ZM88.7268 102.769C86.1765 98.4841 84.8675 93.021 84.8675 86.32H82.8675C82.8675 93.2724 84.2251 99.1159 87.0082 103.791L88.7268 102.769ZM84.8675 86.32C84.8675 79.605 85.9688 73.2139 88.1678 67.1404L86.2872 66.4596C84.0062 72.7595 82.8675 79.3817 82.8675 86.32H84.8675ZM88.1625 67.1547C90.4693 61.0732 93.6633 55.6825 97.7432 50.9749L96.2318 49.6651C91.9917 54.5575 88.6791 60.1535 86.2925 66.4453L88.1625 67.1547ZM97.7503 50.9667C101.826 46.1591 106.573 42.4051 111.995 39.6944L111.1 37.9056C105.428 40.7416 100.469 44.6675 96.2247 49.6733L97.7503 50.9667ZM111.995 39.6944C117.396 36.994 123.268 35.64 129.628 35.64V33.64C122.973 33.64 116.793 35.0594 111.1 37.9056L111.995 39.6944ZM129.628 35.64C135.146 35.64 139.999 36.7325 144.212 38.89L145.123 37.11C140.589 34.7875 135.415 33.64 129.628 33.64V35.64ZM144.238 38.9029C148.533 40.9481 151.903 44.0609 154.364 48.2652L156.091 47.2548C153.432 42.7124 149.762 39.3186 145.097 37.0971L144.238 38.9029ZM154.374 48.2806C156.918 52.4532 158.228 57.8576 158.228 64.56H160.228C160.228 57.609 158.87 51.8135 156.081 47.2394L154.374 48.2806ZM158.228 64.56C158.228 71.1608 157.075 77.5491 154.771 83.7306L156.644 84.4294C159.033 78.0242 160.228 71.3992 160.228 64.56H158.228ZM154.767 83.7396C152.567 89.817 149.426 95.2594 145.345 100.073L146.87 101.367C151.109 96.3672 154.368 90.7163 156.648 84.4204L154.767 83.7396ZM145.343 100.075C141.374 104.776 136.677 108.533 131.247 111.353L132.168 113.127C137.832 110.187 142.734 106.264 146.872 101.365L145.343 100.075ZM131.253 111.349C125.961 114.047 120.197 115.4 113.948 115.4V117.4C120.498 117.4 126.574 115.979 132.162 113.131L131.253 111.349ZM115.868 114.2C119.518 114.2 122.761 112.536 125.573 109.386L124.082 108.054C121.561 110.877 118.83 112.2 115.868 112.2V114.2ZM125.572 109.388C128.442 106.186 130.897 102.025 132.955 96.9348L131.1 96.1852C129.105 101.122 126.76 105.067 124.083 108.052L125.572 109.388ZM132.957 96.928C135.012 91.738 136.575 86.0717 137.652 79.9328L135.683 79.5872C134.626 85.6083 133.097 91.142 131.098 96.192L132.957 96.928ZM137.653 79.9299C138.729 73.6889 139.268 67.4988 139.268 61.36H137.268C137.268 67.3812 136.739 73.4577 135.682 79.5901L137.653 79.9299ZM139.268 61.36C139.268 52.5028 138.371 46.1436 136.431 42.4908L134.664 43.4291C136.351 46.6031 137.268 52.5105 137.268 61.36H139.268ZM136.431 42.4908C134.512 38.8798 131.884 36.84 128.508 36.84V38.84C130.891 38.84 132.956 40.2136 134.664 43.4292L136.431 42.4908ZM128.508 36.84C124.766 36.84 121.373 38.4889 118.348 41.6259L119.787 43.0141C122.522 40.1778 125.423 38.84 128.508 38.84V36.84ZM118.348 41.6259C115.361 44.723 112.794 48.8361 110.627 53.9284L112.468 54.7116C114.567 49.7772 117.014 45.8903 119.787 43.0141L118.348 41.6259ZM110.627 53.9284C108.463 59.0149 106.791 64.6304 105.606 70.7705L107.569 71.1495C108.731 65.1296 110.365 59.6518 112.468 54.7116L110.627 53.9284ZM105.606 70.7705C104.42 76.9118 103.828 83.0552 103.828 89.2H105.828C105.828 83.1848 106.408 77.1682 107.569 71.1495L105.606 70.7705ZM103.828 89.2C103.828 98.2779 104.883 104.822 107.172 108.598L108.883 107.562C106.905 104.298 105.828 98.2554 105.828 89.2H103.828ZM107.18 108.61C109.433 112.216 112.326 114.2 115.868 114.2V112.2C113.222 112.2 110.888 110.771 108.876 107.55L107.18 108.61ZM167.298 115.12L166.724 115.939L167.009 116.139L167.356 116.118L167.298 115.12ZM165.698 114L164.718 113.797L164.584 114.442L165.124 114.819L165.698 114ZM177.858 55.44L178.837 55.6433L178.838 55.6361L178.84 55.6288L177.858 55.44ZM177.378 49.36L176.526 49.8841L176.535 49.8996L176.545 49.9147L177.378 49.36ZM173.058 46L172.635 46.9062L172.652 46.9142L172.669 46.9216L173.058 46ZM170.658 44.88L169.677 44.6839L169.523 45.454L170.235 45.7862L170.658 44.88ZM170.978 43.28L170.676 42.3265L170.113 42.5046L169.997 43.0839L170.978 43.28ZM198.818 34.48L199.486 33.7367L199.061 33.3541L198.516 33.5265L198.818 34.48ZM200.418 35.92L201.404 36.0815L201.493 35.5422L201.086 35.1767L200.418 35.92ZM196.098 62.32L195.111 62.1585L197.014 62.7208L196.098 62.32ZM213.378 38.48L213.973 39.2831L213.982 39.277L213.99 39.2707L213.378 38.48ZM231.298 37.36L230.631 38.1052L230.642 38.1152L230.653 38.1249L231.298 37.36ZM231.618 51.6L230.89 50.9134L230.88 50.9243L230.87 50.9356L231.618 51.6ZM217.858 52.72L217.343 53.5775L217.359 53.5872L217.376 53.5962L217.858 52.72ZM211.618 47.28L212.374 46.6264L211.767 45.9232L211.021 46.4773L211.618 47.28ZM202.018 58.16L202.871 58.6806L202.877 58.6715L202.018 58.16ZM194.658 72.56L193.738 72.1661L193.701 72.254L193.68 72.3476L194.658 72.56ZM193.058 79.92L192.08 79.7076L192.078 79.7168L193.058 79.92ZM189.698 96.88L188.715 96.6946L188.715 96.6946L189.698 96.88ZM186.498 114L186.556 114.998L187.338 114.953L187.481 114.182L186.498 114ZM167.871 114.301L166.271 113.181L165.124 114.819L166.724 115.939L167.871 114.301ZM166.677 114.203L178.837 55.6433L176.878 55.2367L164.718 113.797L166.677 114.203ZM178.84 55.6288C179.385 52.7922 179.29 50.4265 178.21 48.8053L176.545 49.9147C177.171 50.8535 177.397 52.5411 176.875 55.2511L178.84 55.6288ZM178.229 48.8359C177.234 47.2189 175.598 45.9847 173.446 45.0784L172.669 46.9216C174.57 47.7219 175.814 48.7278 176.526 49.8841L178.229 48.8359ZM173.48 45.0938L171.08 43.9738L170.235 45.7862L172.635 46.9062L173.48 45.0938ZM171.638 45.0761L171.958 43.4761L169.997 43.0839L169.677 44.6839L171.638 45.0761ZM171.279 44.2335L199.119 35.4335L198.516 33.5265L170.676 42.3265L171.279 44.2335ZM198.149 35.2233L199.749 36.6633L201.086 35.1767L199.486 33.7367L198.149 35.2233ZM199.431 35.7585L195.111 62.1585L197.084 62.4815L201.404 36.0815L199.431 35.7585ZM197.014 62.7208C199.228 57.6593 201.808 53.0813 204.75 48.9832L203.125 47.8168C200.094 52.0387 197.447 56.7407 195.181 61.9192L197.014 62.7208ZM204.75 48.9832C207.69 44.8877 210.767 41.6619 213.973 39.2831L212.782 37.6769C209.375 40.2048 206.158 43.5923 203.125 47.8168L204.75 48.9832ZM213.99 39.2707C217.168 36.8099 220.265 35.64 223.298 35.64V33.64C219.716 33.64 216.2 35.0301 212.765 37.6893L213.99 39.2707ZM223.298 35.64C226.414 35.64 228.825 36.4896 230.631 38.1052L231.964 36.6148C229.717 34.6037 226.795 33.64 223.298 33.64V35.64ZM230.653 38.1249C232.433 39.6236 233.338 41.6259 233.338 44.24H235.338C235.338 41.0941 234.215 38.5097 231.942 36.5951L230.653 38.1249ZM233.338 44.24C233.338 47.0074 232.505 49.2037 230.89 50.9134L232.345 52.2866C234.356 50.1563 235.338 47.4459 235.338 44.24H233.338ZM230.87 50.9356C229.385 52.6067 227.33 53.48 224.578 53.48V55.48C227.799 55.48 230.437 54.4333 232.365 52.2644L230.87 50.9356ZM224.578 53.48C222.406 53.48 220.331 52.9391 218.339 51.8438L217.376 53.5962C219.651 54.8476 222.056 55.48 224.578 55.48V53.48ZM218.372 51.8625C216.349 50.6487 214.348 48.9116 212.374 46.6264L210.861 47.9336C212.94 50.3417 215.099 52.2313 217.343 53.5775L218.372 51.8625ZM211.021 46.4773C207.17 49.3383 203.884 53.0687 201.158 57.6485L202.877 58.6715C205.484 54.2913 208.599 50.7683 212.214 48.0827L211.021 46.4773ZM201.164 57.6394C198.47 62.0575 195.995 66.9004 193.738 72.1661L195.577 72.9539C197.8 67.7663 200.232 63.0092 202.871 58.6806L201.164 57.6394ZM193.68 72.3476L192.08 79.7076L194.035 80.1324L195.635 72.7724L193.68 72.3476ZM192.078 79.7168C190.904 85.376 189.783 91.0353 188.715 96.6946L190.68 97.0654C191.746 91.418 192.865 85.7706 194.037 80.1232L192.078 79.7168ZM188.715 96.6946C187.648 102.349 186.581 108.057 185.514 113.818L187.481 114.182C188.547 108.423 189.614 102.718 190.68 97.0654L188.715 96.6946ZM186.439 113.002L167.239 114.122L167.356 116.118L186.556 114.998L186.439 113.002ZM284.175 114L283.194 113.804L282.955 115H284.175V114ZM284.495 112.4L284.156 111.459L283.625 111.65L283.514 112.204L284.495 112.4ZM288.495 110.96L288.179 110.011L288.167 110.015L288.156 110.019L288.495 110.96ZM295.855 102.48L294.873 102.294L294.871 102.301L294.87 102.308L295.855 102.48ZM301.775 71.28L302.757 71.4664L302.806 71.2112L302.724 70.9646L301.775 71.28ZM284.175 18.32L283.216 18.6022L283.221 18.6188L283.226 18.6354L284.175 18.32ZM277.135 10.8L276.721 11.7104L276.749 11.7231L276.778 11.734L277.135 10.8ZM275.375 9.99999L274.394 9.80388L274.239 10.582L274.961 10.9104L275.375 9.99999ZM275.695 8.4V7.4H274.875L274.714 8.20388L275.695 8.4ZM315.855 8.4L316.836 8.59611L317.075 7.4H315.855V8.4ZM315.535 9.99999L315.838 10.9529L316.4 10.7742L316.516 10.1961L315.535 9.99999ZM312.015 11.12L312.313 12.0745L312.318 12.0729L312.015 11.12ZM308.335 18L307.37 18.2631L307.373 18.2731L307.376 18.2831L308.335 18ZM321.935 64.08L320.976 64.3631L321.614 66.5253L322.789 64.601L321.935 64.08ZM350.255 17.68L351.109 18.201L351.114 18.1916L351.12 18.1821L350.255 17.68ZM347.695 10.96L348.003 10.0085L347.993 10.0052L347.982 10.0022L347.695 10.96ZM344.495 9.99999L343.514 9.80388L343.336 10.6963L344.208 10.9578L344.495 9.99999ZM344.815 8.4V7.4H343.995L343.834 8.20388L344.815 8.4ZM366.575 8.4L367.556 8.59612L367.795 7.4H366.575V8.4ZM366.255 9.99999L366.601 10.9383L367.126 10.7449L367.236 10.1961L366.255 9.99999ZM363.215 11.12L363.516 12.0736L363.539 12.0665L363.561 12.0583L363.215 11.12ZM358.095 13.68L357.485 12.8874L357.485 12.8874L358.095 13.68ZM354.255 18.16L353.402 17.6385L353.4 17.6419L354.255 18.16ZM324.015 68.08L323.16 67.5619L323.062 67.723L323.03 67.9087L324.015 68.08ZM317.775 102.96L316.79 102.789L316.788 102.8L317.775 102.96ZM322.415 111.12L322.044 112.048L322.065 112.057L322.086 112.064L322.415 111.12ZM326.095 112.4L327.076 112.596L327.246 111.742L326.424 111.456L326.095 112.4ZM325.775 114V115H326.595L326.756 114.196L325.775 114ZM285.156 114.196L285.476 112.596L283.514 112.204L283.194 113.804L285.156 114.196ZM284.834 113.341L288.834 111.901L288.156 110.019L284.156 111.459L284.834 113.341ZM288.811 111.909C291.032 111.169 292.847 110.026 294.21 108.455C295.574 106.885 296.44 104.936 296.84 102.652L294.87 102.308C294.523 104.291 293.79 105.889 292.7 107.145C291.609 108.401 290.118 109.365 288.179 110.011L288.811 111.909ZM296.837 102.666L302.757 71.4664L300.793 71.0936L294.873 102.294L296.837 102.666ZM302.724 70.9646L285.124 18.0046L283.226 18.6354L300.826 71.5954L302.724 70.9646ZM285.134 18.0378C283.977 14.1024 281.401 11.3605 277.492 9.86594L276.778 11.734C280.122 13.0128 282.24 15.2842 283.216 18.6022L285.134 18.0378ZM277.549 9.88963L275.789 9.08963L274.961 10.9104L276.721 11.7104L277.549 9.88963ZM276.356 10.1961L276.676 8.59611L274.714 8.20388L274.394 9.80388L276.356 10.1961ZM275.695 9.4H315.855V7.4H275.695V9.4ZM314.874 8.20388L314.554 9.80388L316.516 10.1961L316.836 8.59611L314.874 8.20388ZM315.232 9.04707L311.712 10.1671L312.318 12.0729L315.838 10.9529L315.232 9.04707ZM311.717 10.1655C309.855 10.7472 308.431 11.715 307.653 13.1683C306.878 14.6175 306.85 16.3565 307.37 18.2631L309.3 17.7369C308.86 16.1235 308.965 14.9558 309.417 14.1116C309.866 13.2716 310.761 12.5595 312.313 12.0745L311.717 10.1655ZM307.376 18.2831L320.976 64.3631L322.894 63.7969L309.294 17.7169L307.376 18.2831ZM322.789 64.601L351.109 18.201L349.401 17.159L321.081 63.559L322.789 64.601ZM351.12 18.1821C352.141 16.4227 352.574 14.6988 351.989 13.164C351.404 11.6278 349.934 10.6335 348.003 10.0085L347.387 11.9114C349.082 12.4599 349.852 13.1721 350.121 13.876C350.389 14.5811 350.289 15.6306 349.39 17.1779L351.12 18.1821ZM347.982 10.0022L344.782 9.04217L344.208 10.9578L347.408 11.9178L347.982 10.0022ZM345.476 10.1961L345.796 8.59611L343.834 8.20388L343.514 9.80388L345.476 10.1961ZM344.815 9.4H366.575V7.4H344.815V9.4ZM365.594 8.20388L365.274 9.80387L367.236 10.1961L367.556 8.59612L365.594 8.20388ZM365.909 9.06165L362.869 10.1817L363.561 12.0583L366.601 10.9383L365.909 9.06165ZM362.914 10.1664C360.799 10.8343 358.982 11.736 357.485 12.8874L358.705 14.4726C359.981 13.4907 361.578 12.6857 363.516 12.0736L362.914 10.1664ZM357.485 12.8874C355.978 14.0467 354.622 15.6425 353.402 17.6385L355.108 18.6814C356.235 16.8375 357.439 15.4466 358.705 14.4726L357.485 12.8874ZM353.4 17.6419L323.16 67.5619L324.87 68.5981L355.11 18.6781L353.4 17.6419ZM323.03 67.9087C322.177 72.8116 321.164 78.4618 319.991 84.8597L321.959 85.2203C323.132 78.8182 324.146 73.1617 325 68.2513L323.03 67.9087ZM319.991 84.8597C318.818 91.2624 317.75 97.2391 316.79 102.789L318.76 103.131C319.72 97.5876 320.786 91.6176 321.959 85.2203L319.991 84.8597ZM316.788 102.8C316.442 104.935 316.671 106.846 317.586 108.454C318.5 110.061 320.027 111.242 322.044 112.048L322.786 110.192C321.069 109.505 319.957 108.579 319.324 107.466C318.692 106.354 318.468 104.932 318.762 103.12L316.788 102.8ZM322.086 112.064L325.766 113.344L326.424 111.456L322.744 110.176L322.086 112.064ZM325.114 112.204L324.794 113.804L326.756 114.196L327.076 112.596L325.114 112.204ZM325.775 113H284.175V115H325.775V113ZM369.06 113.2L368.621 114.099L368.63 114.103L368.638 114.107L369.06 113.2ZM358.18 103.28L357.321 103.792L357.326 103.801L358.18 103.28ZM357.54 66.8L356.605 66.4453L356.602 66.4524L356.6 66.4596L357.54 66.8ZM367.3 50.32L368.056 50.975L368.063 50.9667L367.3 50.32ZM381.86 38.8L382.307 39.6944L382.307 39.6944L381.86 38.8ZM414.98 38L414.524 38.89L414.537 38.8966L414.55 38.9029L414.98 38ZM425.54 47.76L424.677 48.2652L424.682 48.2729L424.686 48.2806L425.54 47.76ZM426.02 84.08L425.083 83.7306L425.08 83.7396L426.02 84.08ZM416.42 100.72L415.657 100.073L415.656 100.075L416.42 100.72ZM402.02 112.24L402.474 113.131L402.481 113.127L402.02 112.24ZM395.14 108.72L394.395 108.052L394.394 108.054L395.14 108.72ZM402.34 96.56L403.267 96.9348L403.27 96.928L402.34 96.56ZM406.98 79.76L407.965 79.9328L407.965 79.9299L406.98 79.76ZM405.86 42.96L406.743 42.4908L406.743 42.4908L405.86 42.96ZM389.38 42.32L388.66 41.6259L388.66 41.6259L389.38 42.32ZM381.86 54.32L382.78 54.7116L382.78 54.7116L381.86 54.32ZM376.9 70.96L377.882 71.1495L377.882 71.1495L376.9 70.96ZM378.34 108.08L377.485 108.598L377.492 108.61L378.34 108.08ZM384.26 115.4C378.845 115.4 373.924 114.359 369.482 112.293L368.638 114.107C373.369 116.307 378.582 117.4 384.26 117.4V115.4ZM369.499 112.301C365.084 110.146 361.601 106.97 359.034 102.759L357.326 103.801C360.092 108.336 363.862 111.774 368.621 114.099L369.499 112.301ZM359.039 102.769C356.489 98.4841 355.18 93.021 355.18 86.32H353.18C353.18 93.2724 354.538 99.1159 357.321 103.791L359.039 102.769ZM355.18 86.32C355.18 79.605 356.281 73.2139 358.48 67.1404L356.6 66.4596C354.319 72.7595 353.18 79.3817 353.18 86.32H355.18ZM358.475 67.1547C360.782 61.0732 363.976 55.6825 368.056 50.9749L366.544 49.6651C362.304 54.5575 358.992 60.1535 356.605 66.4453L358.475 67.1547ZM368.063 50.9667C372.139 46.1591 376.886 42.4051 382.307 39.6944L381.413 37.9056C375.741 40.7416 370.781 44.6675 366.537 49.6733L368.063 50.9667ZM382.307 39.6944C387.708 36.994 393.581 35.64 399.94 35.64V33.64C393.286 33.64 387.105 35.0594 381.413 37.9056L382.307 39.6944ZM399.94 35.64C405.459 35.64 410.312 36.7325 414.524 38.89L415.436 37.11C410.902 34.7875 405.728 33.64 399.94 33.64V35.64ZM414.55 38.9029C418.845 40.9481 422.216 44.0609 424.677 48.2652L426.403 47.2548C423.744 42.7124 420.075 39.3186 415.41 37.0971L414.55 38.9029ZM424.686 48.2806C427.23 52.4532 428.54 57.8576 428.54 64.56H430.54C430.54 57.609 429.183 51.8135 426.394 47.2394L424.686 48.2806ZM428.54 64.56C428.54 71.1608 427.388 77.5491 425.083 83.7306L426.957 84.4294C429.345 78.0242 430.54 71.3992 430.54 64.56H428.54ZM425.08 83.7396C422.879 89.817 419.739 95.2594 415.657 100.073L417.183 101.367C421.421 96.3672 424.681 90.7163 426.96 84.4204L425.08 83.7396ZM415.656 100.075C411.686 104.776 406.989 108.533 401.559 111.353L402.481 113.127C408.144 110.187 413.047 106.264 417.184 101.365L415.656 100.075ZM401.566 111.349C396.273 114.047 390.51 115.4 384.26 115.4V117.4C390.81 117.4 396.887 115.979 402.474 113.131L401.566 111.349ZM386.18 114.2C389.831 114.2 393.073 112.536 395.886 109.386L394.394 108.054C391.874 110.877 389.142 112.2 386.18 112.2V114.2ZM395.885 109.388C398.755 106.186 401.209 102.025 403.267 96.9348L401.413 96.1852C399.417 101.122 397.072 105.067 394.395 108.052L395.885 109.388ZM403.27 96.928C405.324 91.738 406.888 86.0717 407.965 79.9328L405.995 79.5872C404.939 85.6083 403.409 91.142 401.41 96.192L403.27 96.928ZM407.965 79.9299C409.041 73.6889 409.58 67.4988 409.58 61.36H407.58C407.58 67.3812 407.052 73.4577 405.995 79.5901L407.965 79.9299ZM409.58 61.36C409.58 52.5028 408.684 46.1436 406.743 42.4908L404.977 43.4291C406.663 46.6031 407.58 52.5105 407.58 61.36H409.58ZM406.743 42.4908C404.825 38.8798 402.196 36.84 398.82 36.84V38.84C401.204 38.84 403.269 40.2136 404.977 43.4292L406.743 42.4908ZM398.82 36.84C395.078 36.84 391.685 38.4889 388.66 41.6259L390.1 43.0141C392.835 40.1778 395.735 38.84 398.82 38.84V36.84ZM388.66 41.6259C385.674 44.723 383.107 48.8361 380.94 53.9284L382.78 54.7116C384.88 49.7772 387.326 45.8903 390.1 43.0141L388.66 41.6259ZM380.94 53.9284C378.775 59.0149 377.103 64.6304 375.918 70.7705L377.882 71.1495C379.044 65.1296 380.678 59.6518 382.78 54.7116L380.94 53.9284ZM375.918 70.7705C374.733 76.9118 374.14 83.0552 374.14 89.2H376.14C376.14 83.1848 376.72 77.1682 377.882 71.1495L375.918 70.7705ZM374.14 89.2C374.14 98.2779 375.196 104.822 377.485 108.598L379.195 107.562C377.217 104.298 376.14 98.2554 376.14 89.2H374.14ZM377.492 108.61C379.746 112.216 382.639 114.2 386.18 114.2V112.2C383.535 112.2 381.201 110.771 379.188 107.55L377.492 108.61ZM442.89 113.2L442.231 113.953L442.248 113.967L442.265 113.981L442.89 113.2ZM439.85 95.28L438.867 95.0979L438.867 95.0979L439.85 95.28ZM441.61 86.8L442.584 87.0249L442.586 87.018L441.61 86.8ZM448.65 55.28L447.676 55.0551L447.674 55.062L448.65 55.28ZM444.33 46.16L444.777 45.2656L444.748 45.251L444.718 45.2384L444.33 46.16ZM441.29 44.88L440.294 44.7895L440.228 45.5178L440.902 45.8016L441.29 44.88ZM441.45 43.12L441.175 42.1585L440.516 42.3468L440.454 43.0295L441.45 43.12ZM471.69 34.48L472.354 33.7326L471.944 33.3675L471.415 33.5185L471.69 34.48ZM473.13 35.76L474.105 35.983L474.237 35.4059L473.794 35.0126L473.13 35.76ZM461.93 84.72L462.902 84.9534L462.905 84.943L461.93 84.72ZM460.33 91.92L459.349 91.7239L459.349 91.7239L460.33 91.92ZM461.29 102.96L460.583 103.667L460.601 103.686L460.621 103.703L461.29 102.96ZM473.61 101.84L474.106 102.708L474.118 102.702L474.129 102.695L473.61 101.84ZM484.01 93.52L484.697 94.2465L484.941 94.0157L484.996 93.6844L484.01 93.52ZM484.49 91.44L485.452 91.7147L485.461 91.681L485.468 91.6466L484.49 91.44ZM489.93 65.68L490.908 65.8866L490.91 65.8809L489.93 65.68ZM492.33 53.2L491.349 53.0039L491.347 53.0136L491.346 53.0233L492.33 53.2ZM494.73 40.4L494.448 39.4405L493.852 39.6156L493.745 40.2276L494.73 40.4ZM514.89 34.48L515.523 33.706L515.115 33.3718L514.608 33.5205L514.89 34.48ZM516.65 35.92L517.627 36.1326L517.757 35.534L517.283 35.146L516.65 35.92ZM504.01 94L504.985 94.2228L504.987 94.2127L504.01 94ZM510.41 104.4L510.977 105.224L510.994 105.212L511.01 105.2L510.41 104.4ZM516.65 98.8L517.357 98.0929L516.65 97.3858L515.943 98.0929L516.65 98.8ZM518.57 100.72L519.399 101.28L519.86 100.596L519.277 100.013L518.57 100.72ZM508.33 111.6L508.95 112.385L508.952 112.383L508.33 111.6ZM486.09 113.04L485.35 113.713L485.366 113.73L485.383 113.747L486.09 113.04ZM483.21 98.48L484.2 98.6214L484.624 95.6516L482.503 97.7729L483.21 98.48ZM467.05 111.6L466.528 110.747L466.52 110.752L467.05 111.6ZM452.33 115.4C448.915 115.4 445.993 114.401 443.515 112.419L442.265 113.981C445.121 116.265 448.491 117.4 452.33 117.4V115.4ZM443.549 112.447C441.264 110.448 440.05 107.453 440.05 103.28H438.05C438.05 107.854 439.396 111.472 442.231 113.953L443.549 112.447ZM440.05 103.28C440.05 100.898 440.309 98.2932 440.833 95.4621L438.867 95.0979C438.324 98.0268 438.05 100.755 438.05 103.28H440.05ZM440.833 95.4621C441.364 92.596 441.948 89.7836 442.584 87.0249L440.636 86.5751C439.992 89.3631 439.403 92.204 438.867 95.0979L440.833 95.4621ZM442.586 87.018L449.626 55.498L447.674 55.062L440.634 86.582L442.586 87.018ZM449.624 55.5049C450.141 53.2655 450.034 51.2249 449.194 49.4519C448.354 47.6797 446.841 46.2976 444.777 45.2656L443.883 47.0544C445.659 47.9424 446.786 49.0403 447.386 50.3081C447.986 51.5751 448.119 53.1345 447.676 55.0551L449.624 55.5049ZM444.718 45.2384L441.678 43.9584L440.902 45.8016L443.942 47.0816L444.718 45.2384ZM442.286 44.9705L442.446 43.2105L440.454 43.0295L440.294 44.7895L442.286 44.9705ZM441.725 44.0815L471.965 35.4415L471.415 33.5185L441.175 42.1585L441.725 44.0815ZM471.026 35.2274L472.466 36.5074L473.794 35.0126L472.354 33.7326L471.026 35.2274ZM472.155 35.537L460.955 84.497L462.905 84.943L474.105 35.983L472.155 35.537ZM460.958 84.4866C460.315 87.1626 459.779 89.5754 459.349 91.7239L461.311 92.1161C461.734 89.998 462.265 87.6107 462.902 84.9534L460.958 84.4866ZM459.349 91.7239C458.912 93.9094 458.69 95.9493 458.69 97.84H460.69C460.69 96.104 460.894 94.1972 461.311 92.1161L459.349 91.7239ZM458.69 97.84C458.69 100.308 459.247 102.331 460.583 103.667L461.997 102.253C461.2 101.455 460.69 100.065 460.69 97.84H458.69ZM460.621 103.703C461.905 104.859 463.546 105.4 465.45 105.4V103.4C463.941 103.4 462.808 102.981 461.959 102.217L460.621 103.703ZM465.45 105.4C468.134 105.4 471.026 104.468 474.106 102.708L473.114 100.972C470.221 102.625 467.673 103.4 465.45 103.4V105.4ZM474.129 102.695C477.2 100.83 480.724 98.0048 484.697 94.2465L483.323 92.7935C479.403 96.5019 475.994 99.2229 473.091 100.985L474.129 102.695ZM484.996 93.6844C485.096 93.088 485.247 92.4319 485.452 91.7147L483.528 91.1653C483.307 91.9414 483.138 92.672 483.024 93.3556L484.996 93.6844ZM485.468 91.6466L490.908 65.8866L488.952 65.4734L483.512 91.2334L485.468 91.6466ZM490.91 65.8809C491.765 61.7129 492.566 57.5448 493.314 53.3767L491.346 53.0233C490.601 57.1752 489.802 61.3271 488.95 65.4791L490.91 65.8809ZM493.311 53.3961C494.165 49.1216 494.967 44.847 495.715 40.5724L493.745 40.2276C493 44.4863 492.201 48.7451 491.349 53.0039L493.311 53.3961ZM495.012 41.3595L515.172 35.4395L514.608 33.5205L494.448 39.4405L495.012 41.3595ZM514.257 35.254L516.017 36.694L517.283 35.146L515.523 33.706L514.257 35.254ZM515.673 35.7073L503.033 93.7873L504.987 94.2127L517.627 36.1326L515.673 35.7073ZM503.035 93.7772C502.176 97.5357 501.73 100.555 501.73 102.8H503.73C503.73 100.779 504.137 97.931 504.985 94.2228L503.035 93.7772ZM501.73 102.8C501.73 104.04 501.992 105.156 502.691 105.971C503.414 106.815 504.452 107.16 505.61 107.16V105.16C504.848 105.16 504.446 104.945 504.209 104.669C503.948 104.364 503.73 103.8 503.73 102.8H501.73ZM505.61 107.16C507.37 107.16 509.166 106.469 510.977 105.224L509.843 103.576C508.241 104.678 506.837 105.16 505.61 105.16V107.16ZM511.01 105.2C512.77 103.88 514.888 101.976 517.357 99.5071L515.943 98.0929C513.505 100.531 511.463 102.36 509.81 103.6L511.01 105.2ZM515.943 99.5071L517.863 101.427L519.277 100.013L517.357 98.0929L515.943 99.5071ZM517.741 100.16C515.138 104.013 511.797 107.567 507.708 110.817L508.952 112.383C513.183 109.02 516.669 105.32 519.399 101.28L517.741 100.16ZM507.71 110.815C503.836 113.874 499.415 115.4 494.41 115.4V117.4C499.859 117.4 504.718 115.726 508.95 112.385L507.71 110.815ZM494.41 115.4C491.356 115.4 488.841 114.376 486.797 112.333L485.383 113.747C487.819 116.184 490.851 117.4 494.41 117.4V115.4ZM486.83 112.367C484.915 110.26 483.89 107.225 483.89 103.12H481.89C481.89 107.548 482.999 111.126 485.35 113.713L486.83 112.367ZM483.89 103.12C483.89 101.564 483.994 100.065 484.2 98.6214L482.22 98.3386C482 99.8815 481.89 101.476 481.89 103.12H483.89ZM482.503 97.7729C476.997 103.279 471.672 107.598 466.528 110.747L467.572 112.453C472.882 109.202 478.329 104.775 483.917 99.1871L482.503 97.7729ZM466.52 110.752C461.514 113.881 456.789 115.4 452.33 115.4V117.4C457.257 117.4 462.346 115.719 467.58 112.448L466.52 110.752Z" fill="url(#paint1_linear_45_618)"/>
<defs>
<linearGradient id="paint0_linear_45_618" x1="-2" y1="21.2281" x2="491.288" y2="269.63" gradientUnits="userSpaceOnUse">
<stop stop-color="#FF5845"/>
<stop offset="1" stop-color="#F028F8"/>
</linearGradient>
<linearGradient id="paint1_linear_45_618" x1="-2" y1="21.2281" x2="491.288" y2="269.63" gradientUnits="userSpaceOnUse">
<stop stop-color="#FF5845"/>
<stop offset="1" stop-color="#F028F8"/>
</linearGradient>
</defs>
</svg>
