<svg width="909" height="115" viewBox="0 0 909 115" fill="none" xmlns="http://www.w3.org/2000/svg">
<path d="M26.72 23.68C23.7333 23.68 21.12 22.72 18.88 20.8C16.7467 18.7733 15.68 16.1067 15.68 12.8C15.68 9.06666 16.96 6.02666 19.52 3.67999C22.1867 1.22666 25.1733 -7.62939e-06 28.48 -7.62939e-06C31.68 -7.62939e-06 34.2933 1.01333 36.32 3.03999C38.3467 5.06666 39.36 7.67999 39.36 10.88C39.36 14.5067 38.08 17.5467 35.52 20C32.96 22.4533 30.0267 23.68 26.72 23.68ZM11.84 114.4C8.53333 114.4 5.81333 113.547 3.68 111.84C1.54667 110.133 0.48 107.627 0.48 104.32C0.48 102.4 0.693334 100.107 1.12 97.44C1.54667 94.7733 2.02667 92.1067 2.56 89.44L10.08 53.44C11.04 49.0667 9.49333 45.9733 5.44 44.16L2.88 42.88L3.04 41.12L33.12 32.48L34.72 33.92L22.24 91.84C21.8133 93.76 21.4933 95.4133 21.28 96.8C21.0667 98.08 20.96 99.36 20.96 100.64C20.96 102.987 22.0267 104.16 24.16 104.16C25.76 104.16 27.36 103.68 28.96 102.72C30.56 101.653 32.5867 99.9467 35.04 97.6L36.48 99.04C33.8133 102.987 30.4 106.56 26.24 109.76C22.1867 112.853 17.3867 114.4 11.84 114.4ZM44.825 113.12L43.385 112L55.705 53.12C56.665 48.96 55.1717 45.9733 51.225 44.16L48.505 42.88L48.665 41.28L78.425 32.48L79.865 33.76L76.185 53.12C81.7317 46.8267 87.385 41.8667 93.145 38.24C98.905 34.5067 104.345 32.64 109.465 32.64C112.878 32.64 115.705 33.7067 117.945 35.84C120.185 37.8667 121.305 41.0667 121.305 45.44C121.305 47.68 121.092 50.0267 120.665 52.48C120.238 54.8267 119.705 57.28 119.065 59.84L110.585 93.92C110.158 95.6267 109.838 97.0667 109.625 98.24C109.412 99.3067 109.305 100.267 109.305 101.12C109.305 103.36 110.212 104.48 112.025 104.48C115.012 104.48 118.798 102.08 123.385 97.28L124.985 98.88C122.318 102.827 118.798 106.4 114.425 109.6C110.052 112.8 105.198 114.4 99.865 114.4C96.345 114.4 93.625 113.6 91.705 112C89.785 110.293 88.825 107.947 88.825 104.96C88.825 102.72 89.0917 100.427 89.625 98.08C90.1583 95.6267 90.745 93.12 91.385 90.56L97.625 65.6C98.4783 62.1867 99.1717 59.1467 99.705 56.48C100.238 53.8133 100.505 51.36 100.505 49.12C100.505 47.2 100.078 45.8667 99.225 45.12C98.3717 44.2667 97.1983 43.84 95.705 43.84C93.145 43.84 90.105 44.96 86.585 47.2C83.1717 49.44 79.385 52.96 75.225 57.76L70.745 77.92C69.5717 83.5733 68.4517 89.2267 67.385 94.88C66.3183 100.533 65.2517 106.24 64.185 112L44.825 113.12ZM152.545 113.44L150.945 112.16C149.985 100.427 148.972 89.5467 147.905 79.52C146.838 69.3867 145.772 59.4667 144.705 49.76C144.492 47.3067 144.012 45.76 143.265 45.12C142.518 44.3733 141.665 44 140.705 44C138.785 44 136.118 46.0267 132.705 50.08L130.785 48.16C134.518 43.04 138.092 39.2 141.505 36.64C145.025 33.9733 148.598 32.64 152.225 32.64C159.692 32.64 163.905 37.6 164.865 47.52C165.505 55.0933 166.145 63.2533 166.785 72C167.532 80.7467 168.225 90.08 168.865 100C172.918 95.0933 176.705 90.4 180.225 85.92C183.852 81.3333 187.265 76.5867 190.465 71.68C192.278 68.9067 193.292 66.24 193.505 63.68C193.718 61.0133 193.238 58.1867 192.065 55.2L189.345 47.68C187.958 43.52 188.172 39.8933 189.985 36.8C191.905 33.7067 194.678 32.16 198.305 32.16C202.038 32.16 204.652 33.28 206.145 35.52C207.745 37.76 208.545 40.4267 208.545 43.52C208.545 45.6533 207.958 48.2667 206.785 51.36C205.718 54.4533 203.638 58.6133 200.545 63.84C196.385 70.7733 191.052 78.5067 184.545 87.04C178.038 95.5733 170.678 104 162.465 112.32L152.545 113.44ZM238.45 114.4C230.45 114.4 223.943 111.787 218.93 106.56C213.917 101.333 211.41 93.92 211.41 84.32C211.41 77.4933 212.583 70.9867 214.93 64.8C217.277 58.6133 220.53 53.12 224.69 48.32C228.957 43.4133 233.863 39.5733 239.41 36.8C244.957 34.0267 250.983 32.64 257.49 32.64C264.21 32.64 269.33 34.1867 272.85 37.28C276.477 40.2667 278.29 44.2667 278.29 49.28C278.29 53.44 276.317 57.5467 272.37 61.6C268.53 65.6533 263.09 69.3333 256.05 72.64C249.01 75.84 240.743 78.2933 231.25 80C231.357 87.36 232.957 92.7467 236.05 96.16C239.143 99.5733 243.41 101.28 248.85 101.28C253.437 101.28 257.65 100.053 261.49 97.6C265.33 95.04 268.583 92.0533 271.25 88.64L272.85 89.76C270.717 93.92 267.943 97.8667 264.53 101.6C261.223 105.333 257.383 108.427 253.01 110.88C248.637 113.227 243.783 114.4 238.45 114.4ZM256.37 36.96C253.917 36.96 251.25 38.0267 248.37 40.16C245.597 42.2933 242.93 45.2267 240.37 48.96C237.917 52.5867 235.837 56.8 234.13 61.6C232.53 66.2933 231.57 71.3067 231.25 76.64C242.983 73.44 251.303 69.2267 256.21 64C261.223 58.7733 263.73 52.8533 263.73 46.24C263.73 43.04 263.037 40.6933 261.65 39.2C260.263 37.7067 258.503 36.96 256.37 36.96ZM301.86 114.4C295.14 114.4 289.7 113.067 285.54 110.4C281.38 107.733 279.3 103.947 279.3 99.04C279.3 96.48 280.207 94.24 282.02 92.32C283.833 90.4 286.18 89.44 289.06 89.44C294.393 89.44 297.7 92.6933 298.98 99.2L299.94 103.68C300.473 105.92 301.113 107.733 301.86 109.12C302.713 110.507 304.313 111.2 306.66 111.2C309.327 111.2 311.673 110.08 313.7 107.84C315.727 105.6 316.74 102.507 316.74 98.56C316.74 95.5733 315.78 92.6933 313.86 89.92C312.047 87.1467 308.953 84.1067 304.58 80.8C300.207 77.3867 296.687 73.8667 294.02 70.24C291.353 66.5067 290.02 62.08 290.02 56.96C290.02 52.48 291.14 48.4267 293.38 44.8C295.727 41.0667 299.087 38.1333 303.46 36C307.833 33.76 313.007 32.64 318.98 32.64C325.913 32.64 331.353 34.0267 335.3 36.8C339.353 39.5733 341.38 43.1467 341.38 47.52C341.38 49.8667 340.687 51.84 339.3 53.44C337.913 54.9333 335.833 55.68 333.06 55.68C327.94 55.68 324.473 52.5867 322.66 46.4L321.06 41.92C320.527 39.7867 319.887 38.2933 319.14 37.44C318.393 36.5867 317.22 36.16 315.62 36.16C313.913 36.16 312.153 37.12 310.34 39.04C308.527 40.8533 307.62 43.7867 307.62 47.84C307.62 51.68 308.74 55.2 310.98 58.4C313.327 61.4933 316.793 64.7467 321.38 68.16C326.073 71.68 329.487 75.0933 331.62 78.4C333.86 81.7067 334.98 85.7067 334.98 90.4C334.98 94.7733 333.7 98.7733 331.14 102.4C328.58 106.027 324.847 108.96 319.94 111.2C315.033 113.333 309.007 114.4 301.86 114.4ZM362.696 114.4C359.39 114.4 356.616 113.547 354.376 111.84C352.243 110.027 351.176 107.413 351.176 104C351.176 101.867 351.39 99.5733 351.816 97.12C352.243 94.56 352.723 91.84 353.256 88.96L364.296 38.4H351.016L351.496 36.48L357.256 35.84C360.243 35.52 362.856 34.7733 365.096 33.6C367.336 32.4267 369.47 30.7733 371.496 28.64L386.856 13.12H389.256L384.776 35.04H402.216L401.416 38.4H383.976L372.936 91.68C372.51 93.7067 372.19 95.4667 371.976 96.96C371.763 98.3467 371.656 99.52 371.656 100.48C371.656 101.547 371.976 102.4 372.616 103.04C373.256 103.68 373.95 104 374.696 104C376.19 104 377.79 103.413 379.496 102.24C381.203 100.96 383.336 99.0933 385.896 96.64L387.816 98.24C385.15 102.187 381.683 105.867 377.416 109.28C373.15 112.693 368.243 114.4 362.696 114.4ZM464.376 23.68C461.39 23.68 458.776 22.72 456.536 20.8C454.403 18.7733 453.336 16.1067 453.336 12.8C453.336 9.06666 454.616 6.02666 457.176 3.67999C459.843 1.22666 462.83 -7.62939e-06 466.136 -7.62939e-06C469.336 -7.62939e-06 471.95 1.01333 473.976 3.03999C476.003 5.06666 477.016 7.67999 477.016 10.88C477.016 14.5067 475.736 17.5467 473.176 20C470.616 22.4533 467.683 23.68 464.376 23.68ZM449.496 114.4C446.19 114.4 443.47 113.547 441.336 111.84C439.203 110.133 438.136 107.627 438.136 104.32C438.136 102.4 438.35 100.107 438.776 97.44C439.203 94.7733 439.683 92.1067 440.216 89.44L447.736 53.44C448.696 49.0667 447.15 45.9733 443.096 44.16L440.536 42.88L440.696 41.12L470.776 32.48L472.376 33.92L459.896 91.84C459.47 93.76 459.15 95.4133 458.936 96.8C458.723 98.08 458.616 99.36 458.616 100.64C458.616 102.987 459.683 104.16 461.816 104.16C463.416 104.16 465.016 103.68 466.616 102.72C468.216 101.653 470.243 99.9467 472.696 97.6L474.136 99.04C471.47 102.987 468.056 106.56 463.896 109.76C459.843 112.853 455.043 114.4 449.496 114.4ZM482.481 113.12L481.041 112L493.361 53.12C494.321 48.96 492.828 45.9733 488.881 44.16L486.161 42.88L486.321 41.28L516.081 32.48L517.521 33.76L513.841 53.12C519.388 46.8267 525.041 41.8667 530.801 38.24C536.561 34.5067 542.001 32.64 547.121 32.64C550.535 32.64 553.361 33.7067 555.601 35.84C557.841 37.8667 558.961 41.0667 558.961 45.44C558.961 47.68 558.748 50.0267 558.321 52.48C557.895 54.8267 557.361 57.28 556.721 59.84L548.241 93.92C547.815 95.6267 547.495 97.0667 547.281 98.24C547.068 99.3067 546.961 100.267 546.961 101.12C546.961 103.36 547.868 104.48 549.681 104.48C552.668 104.48 556.455 102.08 561.041 97.28L562.641 98.88C559.975 102.827 556.455 106.4 552.081 109.6C547.708 112.8 542.855 114.4 537.521 114.4C534.001 114.4 531.281 113.6 529.361 112C527.441 110.293 526.481 107.947 526.481 104.96C526.481 102.72 526.748 100.427 527.281 98.08C527.815 95.6267 528.401 93.12 529.041 90.56L535.281 65.6C536.135 62.1867 536.828 59.1467 537.361 56.48C537.895 53.8133 538.161 51.36 538.161 49.12C538.161 47.2 537.735 45.8667 536.881 45.12C536.028 44.2667 534.855 43.84 533.361 43.84C530.801 43.84 527.761 44.96 524.241 47.2C520.828 49.44 517.041 52.96 512.881 57.76L508.401 77.92C507.228 83.5733 506.108 89.2267 505.041 94.88C503.975 100.533 502.908 106.24 501.841 112L482.481 113.12ZM599.351 112L599.831 110.4L602.391 109.28C604.525 108.32 606.178 107.147 607.351 105.76C608.525 104.373 609.325 102.507 609.751 100.16L618.071 56C619.138 50.3467 620.258 44.16 621.431 37.44C622.605 30.72 623.725 24.2667 624.791 18.08C625.431 13.92 623.938 10.9333 620.311 9.12L618.231 7.99999L618.551 6.4H654.551C665.645 6.4 674.925 8.32 682.391 12.16C689.858 16 695.458 21.28 699.191 28C702.925 34.72 704.791 42.3467 704.791 50.88C704.791 60.48 703.085 69.0667 699.671 76.64C696.258 84.2133 691.565 90.6133 685.591 95.84C679.725 101.067 672.898 105.067 665.111 107.84C657.431 110.613 649.218 112 640.471 112H599.351ZM630.231 108.8H638.391C647.565 108.8 655.351 106.24 661.751 101.12C668.151 96 673.058 88.96 676.471 80C679.991 71.04 681.751 60.8533 681.751 49.44C681.751 36.2133 679.298 26.4 674.391 20C669.485 13.4933 662.285 10.0267 652.791 9.59999H648.471L638.391 62.24C637.005 70.0267 635.565 77.8133 634.071 85.6C632.685 93.3867 631.405 101.12 630.231 108.8ZM740.325 114.4C732.325 114.4 725.818 111.787 720.805 106.56C715.792 101.333 713.285 93.92 713.285 84.32C713.285 77.4933 714.458 70.9867 716.805 64.8C719.152 58.6133 722.405 53.12 726.565 48.32C730.832 43.4133 735.738 39.5733 741.285 36.8C746.832 34.0267 752.858 32.64 759.365 32.64C766.085 32.64 771.205 34.1867 774.725 37.28C778.352 40.2667 780.165 44.2667 780.165 49.28C780.165 53.44 778.192 57.5467 774.245 61.6C770.405 65.6533 764.965 69.3333 757.925 72.64C750.885 75.84 742.618 78.2933 733.125 80C733.232 87.36 734.832 92.7467 737.925 96.16C741.018 99.5733 745.285 101.28 750.725 101.28C755.312 101.28 759.525 100.053 763.365 97.6C767.205 95.04 770.458 92.0533 773.125 88.64L774.725 89.76C772.592 93.92 769.818 97.8667 766.405 101.6C763.098 105.333 759.258 108.427 754.885 110.88C750.512 113.227 745.658 114.4 740.325 114.4ZM758.245 36.96C755.792 36.96 753.125 38.0267 750.245 40.16C747.472 42.2933 744.805 45.2267 742.245 48.96C739.792 52.5867 737.712 56.8 736.005 61.6C734.405 66.2933 733.445 71.3067 733.125 76.64C744.858 73.44 753.178 69.2267 758.085 64C763.098 58.7733 765.605 52.8533 765.605 46.24C765.605 43.04 764.912 40.6933 763.525 39.2C762.138 37.7067 760.378 36.96 758.245 36.96ZM778.414 112L778.734 110.4L782.254 108.96C785.774 107.467 787.907 104.907 788.654 101.28L797.134 56C798.2 50.3467 799.32 44.1067 800.494 37.28C801.667 30.3467 802.787 23.7867 803.854 17.6C804.6 13.3333 802.947 10.4 798.894 8.79999L797.294 7.99999L797.614 6.4H871.534L867.054 34.24H865.454L861.934 20.64C860.76 16.5867 859.107 13.76 856.974 12.16C854.84 10.4533 851.587 9.59999 847.214 9.59999H827.534L818.734 56H830.734C833.72 56 836.174 55.52 838.094 54.56C840.12 53.4933 841.987 51.7867 843.694 49.44L849.934 41.28H851.534L845.294 74.72H843.694L841.134 67.52C840.174 64.64 838.894 62.56 837.294 61.28C835.8 59.8933 833.507 59.2 830.414 59.2H818.094C817.347 63.1467 816.494 67.5733 815.534 72.48C814.68 77.28 813.827 82.1867 812.974 87.2C812.12 92.1067 811.32 96.6933 810.574 100.96C809.934 104.907 811.427 107.573 815.054 108.96L818.894 110.4L818.574 112H778.414ZM896.251 23.68C893.265 23.68 890.651 22.72 888.411 20.8C886.278 18.7733 885.211 16.1067 885.211 12.8C885.211 9.06666 886.491 6.02666 889.051 3.67999C891.718 1.22666 894.705 -7.62939e-06 898.011 -7.62939e-06C901.211 -7.62939e-06 903.825 1.01333 905.851 3.03999C907.878 5.06666 908.891 7.67999 908.891 10.88C908.891 14.5067 907.611 17.5467 905.051 20C902.491 22.4533 899.558 23.68 896.251 23.68ZM881.371 114.4C878.065 114.4 875.345 113.547 873.211 111.84C871.078 110.133 870.011 107.627 870.011 104.32C870.011 102.4 870.225 100.107 870.651 97.44C871.078 94.7733 871.558 92.1067 872.091 89.44L879.611 53.44C880.571 49.0667 879.025 45.9733 874.971 44.16L872.411 42.88L872.571 41.12L902.651 32.48L904.251 33.92L891.771 91.84C891.345 93.76 891.025 95.4133 890.811 96.8C890.598 98.08 890.491 99.36 890.491 100.64C890.491 102.987 891.558 104.16 893.691 104.16C895.291 104.16 896.891 103.68 898.491 102.72C900.091 101.653 902.118 99.9467 904.571 97.6L906.011 99.04C903.345 102.987 899.931 106.56 895.771 109.76C891.718 112.853 886.918 114.4 881.371 114.4Z" fill="url(#paint0_linear_45_1080)" fill-opacity="0.1"/>
<path d="M18.88 20.8L18.1913 21.525L18.2098 21.5426L18.2292 21.5592L18.88 20.8ZM19.52 3.67999L20.1957 4.41715L20.1971 4.41592L19.52 3.67999ZM35.52 20L36.2119 20.722L35.52 20ZM3.68 111.84L4.3047 111.059L3.68 111.84ZM1.12 97.44L0.13256 97.282L1.12 97.44ZM2.56 89.44L1.58109 89.2355L1.57942 89.2439L2.56 89.44ZM10.08 53.44L9.10321 53.2256L9.10113 53.2355L10.08 53.44ZM5.44 44.16L4.99279 45.0544L5.01201 45.064L5.03163 45.0728L5.44 44.16ZM2.88 42.88L1.88411 42.7895L1.82231 43.4692L2.43279 43.7744L2.88 42.88ZM3.04 41.12L2.76393 40.1589L2.10608 40.3478L2.04411 41.0295L3.04 41.12ZM33.12 32.48L33.789 31.7367L33.3768 31.3658L32.8439 31.5189L33.12 32.48ZM34.72 33.92L35.6976 34.1306L35.8196 33.5643L35.389 33.1767L34.72 33.92ZM22.24 91.84L23.2162 92.0569L23.2176 92.0506L22.24 91.84ZM21.28 96.8L22.2665 96.9644L22.2684 96.9521L21.28 96.8ZM28.96 102.72L29.4745 103.577L29.4949 103.565L29.5147 103.552L28.96 102.72ZM35.04 97.6L35.7471 96.8929L35.0555 96.2013L34.3488 96.8774L35.04 97.6ZM36.48 99.04L37.3086 99.5999L37.7705 98.9163L37.1871 98.3329L36.48 99.04ZM26.24 109.76L26.8467 110.555L26.8497 110.553L26.24 109.76ZM26.72 22.68C23.9688 22.68 21.5871 21.8033 19.5308 20.0407L18.2292 21.5592C20.6529 23.6367 23.4979 24.68 26.72 24.68V22.68ZM19.5688 20.075C17.6597 18.2614 16.68 15.8699 16.68 12.8H14.68C14.68 16.3434 15.8336 19.2853 18.1913 21.525L19.5688 20.075ZM16.68 12.8C16.68 9.32339 17.8591 6.55904 20.1957 4.41715L18.8443 2.94284C16.0609 5.49429 14.68 8.80994 14.68 12.8H16.68ZM20.1971 4.41592C22.6983 2.11473 25.4491 0.999992 28.48 0.999992V-1.00001C24.8976 -1.00001 21.675 0.338583 18.8429 2.94406L20.1971 4.41592ZM28.48 0.999992C31.4486 0.999992 33.7964 1.93059 35.6129 3.7471L37.0271 2.33288C34.7903 0.0960636 31.9114 -1.00001 28.48 -1.00001V0.999992ZM35.6129 3.7471C37.4294 5.56361 38.36 7.91141 38.36 10.88H40.36C40.36 7.44857 39.2639 4.56971 37.0271 2.33288L35.6129 3.7471ZM38.36 10.88C38.36 14.2411 37.1863 17.0181 34.8281 19.278L36.2119 20.722C38.9737 18.0752 40.36 14.7722 40.36 10.88H38.36ZM34.8281 19.278C32.4395 21.5671 29.749 22.68 26.72 22.68V24.68C30.3043 24.68 33.4805 23.3395 36.2119 20.722L34.8281 19.278ZM11.84 113.4C8.71102 113.4 6.22566 112.596 4.3047 111.059L3.05531 112.621C5.40101 114.497 8.35565 115.4 11.84 115.4V113.4ZM4.3047 111.059C2.45885 109.582 1.48 107.394 1.48 104.32H-0.52C-0.52 107.86 0.634487 110.684 3.05531 112.621L4.3047 111.059ZM1.48 104.32C1.48 102.469 1.68606 100.232 2.10744 97.598L0.13256 97.282C-0.299389 99.9817 -0.52 102.331 -0.52 104.32H1.48ZM2.10744 97.598C2.53205 94.9442 3.00976 92.2902 3.54058 89.6361L1.57942 89.2439C1.04357 91.9231 0.561281 94.6025 0.13256 97.282L2.10744 97.598ZM3.53887 89.6445L11.0589 53.6445L9.10113 53.2355L1.58113 89.2355L3.53887 89.6445ZM11.0567 53.6544C11.5712 51.3109 11.4369 49.1978 10.5344 47.3928C9.63138 45.5867 8.02505 44.221 5.84837 43.2472L5.03163 45.0728C6.90828 45.9124 8.10195 47 8.74557 48.2872C9.38975 49.5756 9.54884 51.1957 9.10326 53.2256L11.0567 53.6544ZM5.88721 43.2656L3.32721 41.9856L2.43279 43.7744L4.99279 45.0544L5.88721 43.2656ZM3.87589 42.9705L4.03589 41.2105L2.04411 41.0295L1.88411 42.7895L3.87589 42.9705ZM3.31607 42.0811L33.3961 33.4411L32.8439 31.5189L2.76393 40.1589L3.31607 42.0811ZM32.451 33.2233L34.051 34.6633L35.389 33.1767L33.789 31.7367L32.451 33.2233ZM33.7424 33.7094L21.2624 91.6294L23.2176 92.0506L35.6976 34.1306L33.7424 33.7094ZM21.2638 91.6231C20.8341 93.5568 20.5093 95.2328 20.2916 96.6479L22.2684 96.9521C22.4773 95.5938 22.7926 93.9632 23.2162 92.0569L21.2638 91.6231ZM20.2936 96.6356C20.0713 97.9692 19.96 99.3042 19.96 100.64H21.96C21.96 99.4158 22.062 98.1908 22.2664 96.9644L20.2936 96.6356ZM19.96 100.64C19.96 101.945 20.2546 103.111 21.0201 103.953C21.802 104.813 22.9133 105.16 24.16 105.16V103.16C23.2733 103.16 22.7847 102.921 22.4999 102.607C22.1988 102.276 21.96 101.682 21.96 100.64H19.96ZM24.16 105.16C25.9695 105.16 27.7453 104.615 29.4745 103.577L28.4455 101.863C26.9748 102.745 25.5505 103.16 24.16 103.16V105.16ZM29.5147 103.552C31.1866 102.437 33.2624 100.684 35.7312 98.3226L34.3488 96.8774C31.9109 99.2092 29.9334 100.869 28.4053 101.888L29.5147 103.552ZM34.3329 98.3071L35.7729 99.7471L37.1871 98.3329L35.7471 96.8929L34.3329 98.3071ZM35.6514 98.4801C33.0505 102.329 29.7139 105.826 25.6303 108.967L26.8497 110.553C31.0861 107.294 34.5761 103.644 37.3086 99.5999L35.6514 98.4801ZM25.6333 108.965C21.7698 111.913 17.1879 113.4 11.84 113.4V115.4C17.5855 115.4 22.6035 113.793 26.8467 110.555L25.6333 108.965ZM44.825 113.12L44.2111 113.909L44.5076 114.14L44.8828 114.118L44.825 113.12ZM43.385 112L42.4062 111.795L42.2784 112.406L42.7711 112.789L43.385 112ZM55.705 53.12L54.7306 52.8951L54.7283 52.9051L54.7262 52.9152L55.705 53.12ZM51.225 44.16L50.7992 45.0648L50.8075 45.0687L51.225 44.16ZM48.505 42.88L47.51 42.7805L47.4396 43.4838L48.0792 43.7848L48.505 42.88ZM48.665 41.28L48.3814 40.321L47.7368 40.5116L47.67 41.1805L48.665 41.28ZM78.425 32.48L79.0894 31.7326L78.6742 31.3635L78.1414 31.521L78.425 32.48ZM79.865 33.76L80.8474 33.9467L80.9533 33.3895L80.5294 33.0126L79.865 33.76ZM76.185 53.12L75.2026 52.9333L74.5207 56.5208L76.9352 53.7812L76.185 53.12ZM93.145 38.24L93.6779 39.0863L93.6889 39.0791L93.145 38.24ZM117.945 35.84L117.255 36.5641L117.265 36.573L117.274 36.5815L117.945 35.84ZM120.665 52.48L121.649 52.6589L121.65 52.6513L120.665 52.48ZM119.065 59.84L118.095 59.5975L118.095 59.5985L119.065 59.84ZM110.585 93.92L111.555 94.1625L111.555 94.1615L110.585 93.92ZM109.625 98.24L110.606 98.4361L110.607 98.4275L110.609 98.4189L109.625 98.24ZM123.385 97.28L124.092 96.5729L123.369 95.8495L122.662 96.5891L123.385 97.28ZM124.985 98.88L125.814 99.4399L126.275 98.7563L125.692 98.1729L124.985 98.88ZM114.425 109.6L113.834 108.793L114.425 109.6ZM91.705 112L91.0406 112.747L91.0526 112.758L91.0648 112.768L91.705 112ZM89.625 98.08L90.6002 98.3016L90.6022 98.2924L89.625 98.08ZM91.385 90.56L92.3551 90.8025L91.385 90.56ZM97.625 65.6L98.5951 65.8425L97.625 65.6ZM99.705 56.48L100.686 56.6761L99.705 56.48ZM99.225 45.12L98.5179 45.8271L98.5414 45.8506L98.5665 45.8726L99.225 45.12ZM86.585 47.2L86.0481 46.3562L86.0363 46.3639L86.585 47.2ZM75.225 57.76L74.4693 57.1051L74.3037 57.2962L74.2488 57.5431L75.225 57.76ZM70.745 77.92L69.7687 77.703L69.7659 77.7168L70.745 77.92ZM67.385 94.88L66.4023 94.6946L67.385 94.88ZM64.185 112L64.2428 112.998L65.0255 112.953L65.1683 112.182L64.185 112ZM45.4389 112.331L43.9989 111.211L42.7711 112.789L44.2111 113.909L45.4389 112.331ZM44.3638 112.205L56.6838 53.3248L54.7262 52.9152L42.4062 111.795L44.3638 112.205ZM56.6794 53.3449C57.1968 51.1027 57.0762 49.0663 56.1994 47.3128C55.3238 45.5616 53.7599 44.2242 51.6425 43.2513L50.8075 45.0687C52.6368 45.9092 53.7929 46.9718 54.4106 48.2072C55.0271 49.4404 55.1732 50.9773 54.7306 52.8951L56.6794 53.3449ZM51.6508 43.2552L48.9308 41.9752L48.0792 43.7848L50.7992 45.0648L51.6508 43.2552ZM49.5 42.9795L49.66 41.3795L47.67 41.1805L47.51 42.7805L49.5 42.9795ZM48.9486 42.239L78.7086 33.439L78.1414 31.521L48.3814 40.321L48.9486 42.239ZM77.7606 33.2274L79.2006 34.5074L80.5294 33.0126L79.0894 31.7326L77.7606 33.2274ZM78.8826 33.5733L75.2026 52.9333L77.1674 53.3067L80.8474 33.9467L78.8826 33.5733ZM76.9352 53.7812C82.4327 47.5437 88.015 42.6517 93.6778 39.0862L92.6122 37.3938C86.755 41.0816 81.0306 46.1097 75.4348 52.4588L76.9352 53.7812ZM93.6889 39.0791C99.3407 35.4159 104.593 33.64 109.465 33.64V31.64C104.097 31.64 98.4693 33.5974 92.6011 37.4008L93.6889 39.0791ZM109.465 33.64C112.65 33.64 115.221 34.6269 117.255 36.5641L118.635 35.1159C116.189 32.7864 113.106 31.64 109.465 31.64V33.64ZM117.274 36.5815C119.225 38.3467 120.305 41.2204 120.305 45.44H122.305C122.305 40.9129 121.145 37.3867 118.616 35.0985L117.274 36.5815ZM120.305 45.44C120.305 47.6166 120.098 49.9057 119.68 52.3087L121.65 52.6513C122.086 50.1476 122.305 47.7434 122.305 45.44H120.305ZM119.681 52.3011C119.259 54.6243 118.73 57.0563 118.095 59.5975L120.035 60.0825C120.68 57.5037 121.218 55.029 121.649 52.6589L119.681 52.3011ZM118.095 59.5985L109.615 93.6785L111.555 94.1615L120.035 60.0815L118.095 59.5985ZM109.615 93.6775C109.185 95.3963 108.86 96.859 108.641 98.0611L110.609 98.4189C110.817 97.2743 111.132 95.857 111.555 94.1625L109.615 93.6775ZM108.644 98.0439C108.422 99.1585 108.305 100.186 108.305 101.12H110.305C110.305 100.348 110.402 99.4549 110.606 98.4361L108.644 98.0439ZM108.305 101.12C108.305 102.349 108.55 103.456 109.208 104.269C109.899 105.123 110.902 105.48 112.025 105.48V103.48C111.335 103.48 110.978 103.277 110.762 103.011C110.514 102.704 110.305 102.131 110.305 101.12H108.305ZM112.025 105.48C113.78 105.48 115.662 104.779 117.64 103.525C119.627 102.266 121.783 100.404 124.108 97.9709L122.662 96.5891C120.401 98.9557 118.37 100.694 116.57 101.835C114.762 102.981 113.256 103.48 112.025 103.48V105.48ZM122.678 97.9871L124.278 99.5871L125.692 98.1729L124.092 96.5729L122.678 97.9871ZM124.156 98.3201C121.562 102.159 118.127 105.652 113.834 108.793L115.016 110.407C119.469 107.148 123.074 103.494 125.814 99.4399L124.156 98.3201ZM113.834 108.793C109.63 111.87 104.982 113.4 99.865 113.4V115.4C105.414 115.4 110.474 113.73 115.016 110.407L113.834 108.793ZM99.865 113.4C96.4847 113.4 94.0244 112.631 92.3452 111.232L91.0648 112.768C93.2256 114.569 96.2053 115.4 99.865 115.4V113.4ZM92.3694 111.253C90.6983 109.767 89.825 107.712 89.825 104.96H87.825C87.825 108.181 88.8717 110.819 91.0406 112.747L92.3694 111.253ZM89.825 104.96C89.825 102.8 90.0821 100.581 90.6001 98.3016L88.6499 97.8584C88.1012 100.272 87.825 102.64 87.825 104.96H89.825ZM90.6022 98.2924C91.1332 95.8497 91.7175 93.353 92.3551 90.8025L90.4149 90.3175C89.7725 92.887 89.1835 95.4037 88.6478 97.8676L90.6022 98.2924ZM92.3551 90.8025L98.5951 65.8425L96.6549 65.3575L90.4149 90.3175L92.3551 90.8025ZM98.5951 65.8425C99.4513 62.418 100.148 59.3621 100.686 56.6761L98.7244 56.2839C98.1949 58.9313 97.5054 61.9553 96.6549 65.3575L98.5951 65.8425ZM100.686 56.6761C101.229 53.9581 101.505 51.4381 101.505 49.12H99.505C99.505 51.2819 99.2475 53.6686 98.7244 56.2839L100.686 56.6761ZM101.505 49.12C101.505 47.1033 101.065 45.4015 99.8835 44.3674L98.5665 45.8726C99.0914 46.3318 99.505 47.2967 99.505 49.12H101.505ZM99.9321 44.4129C98.8488 43.3296 97.3968 42.84 95.705 42.84V44.84C96.9999 44.84 97.8945 45.2037 98.5179 45.8271L99.9321 44.4129ZM95.705 42.84C92.8698 42.84 89.6373 44.0723 86.0481 46.3563L87.1219 48.0437C90.5727 45.8477 93.4202 44.84 95.705 44.84V42.84ZM86.0363 46.3639C82.5157 48.6744 78.6601 52.2695 74.4693 57.1051L75.9807 58.4149C80.1099 53.6505 83.8276 50.2056 87.1337 48.036L86.0363 46.3639ZM74.2488 57.5431L69.7688 77.7031L71.7212 78.1369L76.2012 57.9769L74.2488 57.5431ZM69.7659 77.7168C68.5913 83.376 67.4701 89.0353 66.4023 94.6946L68.3677 95.0654C69.4332 89.418 70.552 83.7706 71.7241 78.1232L69.7659 77.7168ZM66.4023 94.6946C65.3355 100.349 64.2686 106.057 63.2017 111.818L65.1683 112.182C66.2347 106.423 67.3012 100.718 68.3677 95.0654L66.4023 94.6946ZM64.1272 111.002L44.7672 112.122L44.8828 114.118L64.2428 112.998L64.1272 111.002ZM152.545 113.44L151.92 114.221L152.245 114.48L152.657 114.434L152.545 113.44ZM150.945 112.16L149.948 112.242L149.984 112.671L150.32 112.941L150.945 112.16ZM147.905 79.52L146.91 79.6247L146.911 79.6258L147.905 79.52ZM144.705 49.76L143.709 49.8466L143.71 49.8579L143.711 49.8692L144.705 49.76ZM143.265 45.12L142.558 45.8271L142.585 45.8543L142.614 45.8793L143.265 45.12ZM132.705 50.08L131.998 50.7871L132.768 51.5574L133.47 50.7241L132.705 50.08ZM130.785 48.16L129.977 47.5708L129.473 48.2621L130.078 48.8671L130.785 48.16ZM141.505 36.64L142.105 37.44L142.109 37.4371L141.505 36.64ZM164.865 47.52L165.862 47.4358L165.86 47.4237L164.865 47.52ZM166.785 72L165.788 72.073L165.789 72.0851L166.785 72ZM168.865 100L167.867 100.064L168.029 102.582L169.636 100.637L168.865 100ZM180.225 85.92L179.441 85.2998L179.439 85.3022L180.225 85.92ZM190.465 71.68L189.628 71.1328L189.627 71.1337L190.465 71.68ZM193.505 63.68L194.502 63.763L194.502 63.7597L193.505 63.68ZM192.065 55.2L191.125 55.5401L191.129 55.553L191.134 55.5657L192.065 55.2ZM189.345 47.68L188.396 47.9962L188.4 48.0082L188.405 48.0201L189.345 47.68ZM189.985 36.8L189.135 36.2726L189.129 36.2834L189.122 36.2943L189.985 36.8ZM206.145 35.52L205.313 36.0747L205.322 36.0881L205.331 36.1012L206.145 35.52ZM206.785 51.36L205.85 51.0053L205.845 51.0196L205.84 51.034L206.785 51.36ZM200.545 63.84L201.403 64.3545L201.406 64.3493L200.545 63.84ZM184.545 87.04L185.34 87.6463L184.545 87.04ZM162.465 112.32L162.577 113.314L162.928 113.274L163.177 113.023L162.465 112.32ZM153.17 112.659L151.57 111.379L150.32 112.941L151.92 114.221L153.17 112.659ZM151.942 112.078C150.981 100.338 149.967 89.4501 148.899 79.4142L146.911 79.6258C147.976 89.6432 148.989 100.515 149.948 112.242L151.942 112.078ZM148.9 79.4153C147.833 69.2805 146.766 59.359 145.699 49.6508L143.711 49.8692C144.777 59.5743 145.844 69.4928 146.91 79.6247L148.9 79.4153ZM145.701 49.6734C145.591 48.4082 145.409 47.3307 145.14 46.4636C144.877 45.6149 144.497 44.859 143.916 44.3607L142.614 45.8793C142.78 46.021 143.013 46.3585 143.23 47.0564C143.441 47.736 143.605 48.6584 143.709 49.8466L145.701 49.6734ZM143.972 44.4129C143.059 43.4993 141.958 43 140.705 43V45C141.372 45 141.978 45.2474 142.558 45.8271L143.972 44.4129ZM140.705 43C139.416 43 138.052 43.6662 136.66 44.7238C135.244 45.7998 133.67 47.3813 131.94 49.4359L133.47 50.7241C135.153 48.7253 136.619 47.2669 137.87 46.3162C139.145 45.3471 140.074 45 140.705 45V43ZM133.412 49.3729L131.492 47.4529L130.078 48.8671L131.998 50.7871L133.412 49.3729ZM131.593 48.7492C135.293 43.6744 138.8 39.9191 142.105 37.44L140.905 35.84C137.384 38.4809 133.743 42.4055 129.977 47.5708L131.593 48.7492ZM142.109 37.4371C145.494 34.8727 148.86 33.64 152.225 33.64V31.64C148.336 31.64 144.556 33.074 140.901 35.8429L142.109 37.4371ZM152.225 33.64C155.713 33.64 158.335 34.7854 160.223 37.0074C162.144 39.2692 163.4 42.7586 163.87 47.6163L165.86 47.4237C165.37 42.3614 164.039 38.4108 161.747 35.7126C159.421 32.9746 156.204 31.64 152.225 31.64V33.64ZM163.869 47.6042C164.508 55.1733 165.148 63.3295 165.788 72.073L167.782 71.927C167.142 63.1772 166.502 55.0134 165.861 47.4358L163.869 47.6042ZM165.789 72.0851C166.535 80.824 167.227 90.1504 167.867 100.064L169.863 99.9356C169.223 90.0096 168.529 80.6693 167.781 71.9149L165.789 72.0851ZM169.636 100.637C173.694 95.7246 177.486 91.0249 181.011 86.5378L179.439 85.3022C175.924 89.7751 172.143 94.462 168.094 99.3631L169.636 100.637ZM181.009 86.5402C184.655 81.9297 188.086 77.1583 191.303 72.2263L189.627 71.1337C186.444 76.015 183.048 80.737 179.441 85.2998L181.009 86.5402ZM191.302 72.2272C193.181 69.354 194.271 66.5298 194.502 63.763L192.508 63.597C192.312 65.9502 191.376 68.4593 189.628 71.1328L191.302 72.2272ZM194.502 63.7597C194.729 60.9142 194.214 57.9346 192.996 54.8343L191.134 55.5657C192.263 58.4387 192.707 61.1124 192.508 63.6003L194.502 63.7597ZM193.005 54.8599L190.285 47.3399L188.405 48.0201L191.125 55.5401L193.005 54.8599ZM190.294 47.3638C188.976 43.411 189.212 40.0957 190.848 37.3057L189.122 36.2943C187.131 39.6909 186.941 43.629 188.396 47.9962L190.294 47.3638ZM190.835 37.3274C192.573 34.5265 195.026 33.16 198.305 33.16V31.16C194.331 31.16 191.237 32.8868 189.135 36.2726L190.835 37.3274ZM198.305 33.16C201.845 33.16 204.072 34.2128 205.313 36.0747L206.977 34.9653C205.232 32.3472 202.231 31.16 198.305 31.16V33.16ZM205.331 36.1012C206.795 38.151 207.545 40.6082 207.545 43.52H209.545C209.545 40.2451 208.695 37.369 206.959 34.9388L205.331 36.1012ZM207.545 43.52C207.545 45.4843 207.001 47.9698 205.85 51.0053L207.72 51.7147C208.915 48.5635 209.545 45.8223 209.545 43.52H207.545ZM205.84 51.034C204.806 54.0308 202.767 58.1218 199.684 63.3307L201.406 64.3493C204.509 59.1049 206.63 54.8759 207.73 51.686L205.84 51.034ZM199.688 63.3255C195.552 70.2188 190.241 77.9209 183.75 86.4337L185.34 87.6463C191.863 79.0924 197.218 71.3279 201.402 64.3545L199.688 63.3255ZM183.75 86.4337C177.271 94.9303 169.939 103.325 161.753 111.617L163.177 113.023C171.417 104.675 178.806 96.2163 185.34 87.6463L183.75 86.4337ZM162.353 111.326L152.433 112.446L152.657 114.434L162.577 113.314L162.353 111.326ZM218.93 106.56L218.208 107.252L218.93 106.56ZM214.93 64.8L215.865 65.1546L214.93 64.8ZM224.69 48.32L223.935 47.6638L223.934 47.6651L224.69 48.32ZM239.41 36.8L238.963 35.9056L239.41 36.8ZM272.85 37.28L272.19 38.0312L272.202 38.0417L272.214 38.0519L272.85 37.28ZM272.37 61.6L271.653 60.9023L271.644 60.9123L272.37 61.6ZM256.05 72.64L256.464 73.5504L256.475 73.5451L256.05 72.64ZM231.25 80L231.073 79.0158L230.238 79.1659L230.25 80.0145L231.25 80ZM261.49 97.6L262.028 98.4427L262.037 98.4375L262.045 98.4321L261.49 97.6ZM271.25 88.64L271.823 87.8208L271.046 87.2766L270.462 88.0244L271.25 88.64ZM272.85 89.76L273.74 90.2163L274.138 89.4407L273.423 88.9408L272.85 89.76ZM264.53 101.6L263.792 100.925L263.787 100.931L263.781 100.937L264.53 101.6ZM253.01 110.88L253.483 111.761L253.491 111.757L253.499 111.752L253.01 110.88ZM248.37 40.16L247.775 39.3564L247.767 39.3618L247.76 39.3674L248.37 40.16ZM240.37 48.96L239.545 48.3945L239.542 48.3997L240.37 48.96ZM234.13 61.6L233.188 61.265L233.183 61.2773L234.13 61.6ZM231.25 76.64L230.252 76.5801L230.168 77.9715L231.513 77.6048L231.25 76.64ZM256.21 64L255.488 63.3077L255.481 63.3156L256.21 64ZM261.65 39.2L260.917 39.8804V39.8805L261.65 39.2ZM238.45 113.4C230.691 113.4 224.456 110.876 219.652 105.868L218.208 107.252C223.431 112.697 230.209 115.4 238.45 115.4V113.4ZM219.652 105.868C214.869 100.882 212.41 93.7484 212.41 84.32H210.41C210.41 94.0916 212.964 101.785 218.208 107.252L219.652 105.868ZM212.41 84.32C212.41 77.6106 213.563 71.2244 215.865 65.1546L213.995 64.4453C211.604 70.7489 210.41 77.3761 210.41 84.32H212.41ZM215.865 65.1546C218.172 59.0732 221.366 53.6825 225.446 48.9749L223.934 47.6651C219.694 52.5575 216.382 58.1535 213.995 64.4453L215.865 65.1546ZM225.445 48.9762C229.63 44.1634 234.433 40.4064 239.857 37.6944L238.963 35.9056C233.293 38.7403 228.284 42.6633 223.935 47.6638L225.445 48.9762ZM239.857 37.6944C245.258 34.9939 251.131 33.64 257.49 33.64V31.64C250.836 31.64 244.655 33.0594 238.963 35.9056L239.857 37.6944ZM257.49 33.64C264.071 33.64 268.918 35.1557 272.19 38.0312L273.51 36.5288C269.742 33.2177 264.349 31.64 257.49 31.64V33.64ZM272.214 38.0519C275.593 40.8345 277.29 44.5425 277.29 49.28H279.29C279.29 43.9908 277.36 39.6988 273.486 36.5081L272.214 38.0519ZM277.29 49.28C277.29 53.0971 275.485 56.9671 271.654 60.9024L273.086 62.2976C277.148 58.1262 279.29 53.7829 279.29 49.28H277.29ZM271.644 60.9123C267.916 64.847 262.593 68.4619 255.625 71.7349L256.475 73.5451C263.587 70.2048 269.144 66.4597 273.096 62.2877L271.644 60.9123ZM255.636 71.7296C248.688 74.888 240.504 77.3204 231.073 79.0158L231.427 80.9842C240.983 79.2663 249.332 76.7919 256.464 73.5504L255.636 71.7296ZM230.25 80.0145C230.358 87.4802 231.979 93.1571 235.309 96.8315L236.791 95.4885C233.934 92.3363 232.355 87.2398 232.25 79.9855L230.25 80.0145ZM235.309 96.8315C238.626 100.492 243.184 102.28 248.85 102.28V100.28C243.636 100.28 239.66 98.6546 236.791 95.4885L235.309 96.8315ZM248.85 102.28C253.626 102.28 258.026 100.999 262.028 98.4427L260.952 96.7573C257.273 99.1072 253.247 100.28 248.85 100.28V102.28ZM262.045 98.4321C265.968 95.8167 269.301 92.7585 272.038 89.2556L270.462 88.0244C267.865 91.3482 264.692 94.2633 260.935 96.768L262.045 98.4321ZM270.677 89.4592L272.277 90.5792L273.423 88.9408L271.823 87.8208L270.677 89.4592ZM271.96 89.3037C269.871 93.3782 267.15 97.2523 263.792 100.925L265.268 102.275C268.737 98.4811 271.563 94.4618 273.74 90.2163L271.96 89.3037ZM263.781 100.937C260.549 104.586 256.797 107.609 252.521 110.008L253.499 111.752C257.97 109.244 261.897 106.081 265.279 102.263L263.781 100.937ZM252.537 109.999C248.32 112.262 243.631 113.4 238.45 113.4V115.4C243.936 115.4 248.953 114.192 253.483 111.761L252.537 109.999ZM256.37 35.96C253.624 35.96 250.751 37.1519 247.775 39.3564L248.965 40.9636C251.749 38.9014 254.21 37.96 256.37 37.96V35.96ZM247.76 39.3674C244.884 41.5803 242.148 44.5986 239.545 48.3945L241.195 49.5255C243.712 45.8547 246.31 43.0064 248.98 40.9526L247.76 39.3674ZM239.542 48.3997C237.034 52.1066 234.918 56.398 233.188 61.265L235.072 61.935C236.755 57.202 238.799 53.0667 241.198 49.5203L239.542 48.3997ZM233.183 61.2773C231.552 66.0618 230.577 71.1642 230.252 76.5801L232.248 76.6999C232.563 71.4492 233.508 66.5248 235.077 61.9227L233.183 61.2773ZM231.513 77.6048C243.315 74.3861 251.846 70.1098 256.939 64.6844L255.481 63.3156C250.761 68.3435 242.652 72.4939 230.987 75.6752L231.513 77.6048ZM256.932 64.6922C262.105 59.2987 264.73 53.137 264.73 46.24H262.73C262.73 52.5697 260.342 58.2479 255.488 63.3078L256.932 64.6922ZM264.73 46.24C264.73 42.9257 264.016 40.2789 262.383 38.5195L260.917 39.8805C262.057 41.1078 262.73 43.1543 262.73 46.24H264.73ZM262.383 38.5195C260.797 36.8119 258.767 35.96 256.37 35.96V37.96C258.24 37.96 259.73 38.6014 260.917 39.8804L262.383 38.5195ZM285.54 110.4L286.08 109.558L285.54 110.4ZM282.02 92.32L282.747 93.0066L282.02 92.32ZM298.98 99.2L297.999 99.393L298 99.4013L298.002 99.4095L298.98 99.2ZM299.94 103.68L298.962 103.89L298.965 103.901L298.967 103.912L299.94 103.68ZM301.86 109.12L300.98 109.594L300.993 109.62L301.008 109.644L301.86 109.12ZM313.7 107.84L314.442 108.511L313.7 107.84ZM313.86 89.92L313.023 90.4672L313.03 90.4783L313.038 90.4892L313.86 89.92ZM304.58 80.8L303.965 81.5883L303.971 81.593L303.977 81.5977L304.58 80.8ZM294.02 70.24L293.206 70.8213L293.214 70.8324L294.02 70.24ZM293.38 44.8L292.533 44.2678L292.529 44.2745L293.38 44.8ZM303.46 36L303.898 36.8988L303.907 36.8945L303.916 36.89L303.46 36ZM335.3 36.8L334.725 37.6183L334.735 37.6253L335.3 36.8ZM339.3 53.44L340.033 54.1204L340.044 54.1079L340.056 54.0949L339.3 53.44ZM322.66 46.4L323.62 46.1187L323.611 46.0909L323.602 46.0637L322.66 46.4ZM321.06 41.92L320.09 42.1625L320.102 42.2101L320.118 42.2563L321.06 41.92ZM319.14 37.44L318.387 38.0985V38.0985L319.14 37.44ZM310.34 39.04L311.047 39.7471L311.057 39.737L311.067 39.7266L310.34 39.04ZM310.98 58.4L310.161 58.9735L310.172 58.9891L310.183 59.0044L310.98 58.4ZM321.38 68.16L321.98 67.36L321.977 67.3578L321.38 68.16ZM331.62 78.4L330.78 78.9421L330.786 78.9516L330.792 78.9608L331.62 78.4ZM331.14 102.4L330.323 101.823L331.14 102.4ZM319.94 111.2L320.339 112.117L320.347 112.113L320.355 112.11L319.94 111.2ZM301.86 113.4C295.265 113.4 290.03 112.091 286.08 109.558L285 111.242C289.37 114.043 295.015 115.4 301.86 115.4V113.4ZM286.08 109.558C282.204 107.074 280.3 103.603 280.3 99.04H278.3C278.3 104.29 280.556 108.393 285 111.242L286.08 109.558ZM280.3 99.04C280.3 96.7441 281.103 94.7475 282.747 93.0066L281.293 91.6334C279.31 93.7325 278.3 96.2159 278.3 99.04H280.3ZM282.747 93.0066C284.353 91.3059 286.427 90.44 289.06 90.44V88.44C285.933 88.44 283.313 89.4941 281.293 91.6334L282.747 93.0066ZM289.06 90.44C291.507 90.44 293.401 91.178 294.839 92.5928C296.299 94.0297 297.382 96.2559 297.999 99.393L299.961 99.007C299.298 95.6374 298.088 92.9837 296.241 91.1672C294.373 89.3287 291.947 88.44 289.06 88.44V90.44ZM298.002 99.4095L298.962 103.89L300.918 103.47L299.958 98.9905L298.002 99.4095ZM298.967 103.912C299.512 106.201 300.177 108.105 300.98 109.594L302.74 108.646C302.049 107.362 301.434 105.639 300.913 103.448L298.967 103.912ZM301.008 109.644C302.117 111.445 304.133 112.2 306.66 112.2V110.2C304.493 110.2 303.31 109.568 302.712 108.596L301.008 109.644ZM306.66 112.2C309.648 112.2 312.253 110.93 314.442 108.511L312.958 107.169C311.094 109.23 309.005 110.2 306.66 110.2V112.2ZM314.442 108.511C316.68 106.036 317.74 102.677 317.74 98.56H315.74C315.74 102.337 314.773 105.164 312.958 107.169L314.442 108.511ZM317.74 98.56C317.74 95.3442 316.702 92.2689 314.682 89.3508L313.038 90.4892C314.858 93.1178 315.74 95.8024 315.74 98.56H317.74ZM314.697 89.3727C312.793 86.4606 309.596 83.3391 305.183 80.0023L303.977 81.5977C308.31 84.8742 311.3 87.8328 313.023 90.4672L314.697 89.3727ZM305.195 80.0117C300.878 76.6421 297.427 73.1858 294.826 69.6476L293.214 70.8324C295.946 74.5475 299.535 78.1312 303.965 81.5883L305.195 80.0117ZM294.834 69.6588C292.302 66.1145 291.02 61.8968 291.02 56.96H289.02C289.02 62.2632 290.405 66.8988 293.206 70.8212L294.834 69.6588ZM291.02 56.96C291.02 52.6557 292.093 48.786 294.231 45.3255L292.529 44.2745C290.187 48.0673 289.02 52.3043 289.02 56.96H291.02ZM294.227 45.3322C296.464 41.7728 299.675 38.9591 303.898 36.8988L303.022 35.1012C298.499 37.3076 294.989 40.3606 292.533 44.2678L294.227 45.3322ZM303.916 36.89C308.121 34.7363 313.131 33.64 318.98 33.64V31.64C312.882 31.64 307.546 32.7837 303.004 35.11L303.916 36.89ZM318.98 33.64C325.794 33.64 331.006 35.0046 334.725 37.6182L335.875 35.9818C331.701 33.0487 326.033 31.64 318.98 31.64V33.64ZM334.735 37.6253C338.555 40.239 340.38 43.5215 340.38 47.52H342.38C342.38 42.7719 340.151 38.9077 335.865 35.9747L334.735 37.6253ZM340.38 47.52C340.38 49.654 339.756 51.387 338.544 52.7851L340.056 54.0949C341.617 52.293 342.38 50.0793 342.38 47.52H340.38ZM338.567 52.7595C337.431 53.9836 335.659 54.68 333.06 54.68V56.68C336.007 56.68 338.396 55.883 340.033 54.1204L338.567 52.7595ZM333.06 54.68C330.719 54.68 328.817 53.9799 327.286 52.6139C325.736 51.231 324.493 49.0994 323.62 46.1187L321.7 46.6813C322.64 49.8872 324.037 52.3957 325.954 54.1061C327.89 55.8335 330.281 56.68 333.06 56.68V54.68ZM323.602 46.0637L322.002 41.5837L320.118 42.2563L321.718 46.7363L323.602 46.0637ZM322.03 41.6775C321.488 39.5089 320.802 37.821 319.893 36.7815L318.387 38.0985C318.971 38.7657 319.565 40.0644 320.09 42.1625L322.03 41.6775ZM319.893 36.7815C318.888 35.6334 317.386 35.16 315.62 35.16V37.16C317.054 37.16 317.899 37.5399 318.387 38.0985L319.893 36.7815ZM315.62 35.16C313.519 35.16 311.513 36.3411 309.613 38.3534L311.067 39.7266C312.793 37.8988 314.308 37.16 315.62 37.16V35.16ZM309.633 38.3329C307.548 40.4178 306.62 43.6704 306.62 47.84H308.62C308.62 43.9029 309.505 41.2888 311.047 39.7471L309.633 38.3329ZM306.62 47.84C306.62 51.8889 307.805 55.6085 310.161 58.9735L311.799 57.8265C309.675 54.7915 308.62 51.4711 308.62 47.84H306.62ZM310.183 59.0044C312.607 62.1991 316.153 65.5166 320.783 68.9622L321.977 67.3578C317.434 63.9768 314.046 60.7876 311.777 57.7956L310.183 59.0044ZM320.78 68.96C325.421 72.4404 328.734 75.7711 330.78 78.9421L332.46 77.8579C330.239 74.4155 326.726 70.9196 321.98 67.36L320.78 68.96ZM330.792 78.9608C332.901 82.0746 333.98 85.8708 333.98 90.4H335.98C335.98 85.5425 334.819 81.3387 332.448 77.8391L330.792 78.9608ZM333.98 90.4C333.98 94.5635 332.766 98.3626 330.323 101.823L331.957 102.977C334.634 99.184 335.98 94.9832 335.98 90.4H333.98ZM330.323 101.823C327.885 105.277 324.305 108.108 319.525 110.29L320.355 112.11C325.388 109.812 329.275 106.776 331.957 102.977L330.323 101.823ZM319.541 110.283C314.795 112.346 308.913 113.4 301.86 113.4V115.4C309.1 115.4 315.272 114.32 320.339 112.117L319.541 110.283ZM354.376 111.84L353.729 112.602L353.749 112.619L353.77 112.635L354.376 111.84ZM351.816 97.12L352.801 97.2913L352.803 97.2844L351.816 97.12ZM353.256 88.96L352.279 88.7467L352.276 88.7622L352.273 88.7779L353.256 88.96ZM364.296 38.4L365.273 38.6133L365.538 37.4H364.296V38.4ZM351.016 38.4L350.046 38.1575L349.735 39.4H351.016V38.4ZM351.496 36.48L351.386 35.4861L350.695 35.5629L350.526 36.2375L351.496 36.48ZM357.256 35.84L357.15 34.8457L357.146 34.8461L357.256 35.84ZM365.096 33.6L365.56 34.4858V34.4858L365.096 33.6ZM371.496 28.64L370.785 27.9366L370.778 27.9438L370.771 27.9512L371.496 28.64ZM386.856 13.12V12.12H386.439L386.145 12.4166L386.856 13.12ZM389.256 13.12L390.236 13.3202L390.481 12.12H389.256V13.12ZM384.776 35.04L383.797 34.8398L383.551 36.04H384.776V35.04ZM402.216 35.04L403.189 35.2716L403.482 34.04H402.216V35.04ZM401.416 38.4V39.4H402.206L402.389 38.6316L401.416 38.4ZM383.976 38.4V37.4H383.162L382.997 38.1971L383.976 38.4ZM372.936 91.68L373.915 91.886L373.915 91.8829L372.936 91.68ZM371.976 96.96L372.965 97.1121L372.966 97.1014L371.976 96.96ZM372.616 103.04L373.323 102.333L372.616 103.04ZM379.496 102.24L380.063 103.064L380.08 103.052L380.096 103.04L379.496 102.24ZM385.896 96.64L386.536 95.8718L385.85 95.2995L385.204 95.918L385.896 96.64ZM387.816 98.24L388.645 98.7999L389.151 98.0506L388.456 97.4718L387.816 98.24ZM362.696 113.4C359.569 113.4 357.019 112.596 354.982 111.045L353.77 112.635C356.213 114.497 359.21 115.4 362.696 115.4V113.4ZM355.024 111.078C353.163 109.496 352.176 107.19 352.176 104H350.176C350.176 107.636 351.323 110.557 353.729 112.602L355.024 111.078ZM352.176 104C352.176 101.933 352.383 99.6972 352.801 97.2913L350.831 96.9487C350.396 99.4495 350.176 101.801 350.176 104H352.176ZM352.803 97.2844C353.228 94.731 353.707 92.0169 354.24 89.1421L352.273 88.7779C351.739 91.6631 351.258 94.389 350.83 96.9556L352.803 97.2844ZM354.233 89.1733L365.273 38.6133L363.319 38.1867L352.279 88.7467L354.233 89.1733ZM364.296 37.4H351.016V39.4H364.296V37.4ZM351.986 38.6425L352.466 36.7225L350.526 36.2375L350.046 38.1575L351.986 38.6425ZM351.607 37.4739L357.367 36.8339L357.146 34.8461L351.386 35.4861L351.607 37.4739ZM357.363 36.8343C360.451 36.5034 363.19 35.7273 365.56 34.4858L364.632 32.7142C362.522 33.8194 360.034 34.5366 357.15 34.8457L357.363 36.8343ZM365.56 34.4858C367.912 33.254 370.131 31.5289 372.221 29.3287L370.771 27.9512C368.808 30.0178 366.761 31.5993 364.632 32.7142L365.56 34.4858ZM372.207 29.3434L387.567 13.8234L386.145 12.4166L370.785 27.9366L372.207 29.3434ZM386.856 14.12H389.256V12.12H386.856V14.12ZM388.276 12.9198L383.797 34.8398L385.756 35.2402L390.236 13.3202L388.276 12.9198ZM384.776 36.04H402.216V34.04H384.776V36.04ZM401.243 34.8084L400.443 38.1684L402.389 38.6316L403.189 35.2716L401.243 34.8084ZM401.416 37.4H383.976V39.4H401.416V37.4ZM382.997 38.1971L371.957 91.4771L373.915 91.8829L384.955 38.6029L382.997 38.1971ZM371.958 91.474C371.528 93.5148 371.204 95.2973 370.986 96.8186L372.966 97.1014C373.176 95.636 373.491 93.8985 373.915 91.886L371.958 91.474ZM370.988 96.8079C370.77 98.2242 370.656 99.4517 370.656 100.48H372.656C372.656 99.5883 372.756 98.4691 372.965 97.1121L370.988 96.8079ZM370.656 100.48C370.656 101.761 371.048 102.886 371.909 103.747L373.323 102.333C372.904 101.914 372.656 101.332 372.656 100.48H370.656ZM371.909 103.747C372.694 104.532 373.63 105 374.696 105V103C374.269 103 373.818 102.828 373.323 102.333L371.909 103.747ZM374.696 105C376.456 105 378.252 104.309 380.063 103.064L378.93 101.416C377.327 102.518 375.923 103 374.696 103V105ZM380.096 103.04C381.849 101.725 384.015 99.8275 386.588 97.362L385.204 95.918C382.657 98.3591 380.557 100.195 378.896 101.44L380.096 103.04ZM385.256 97.4082L387.176 99.0082L388.456 97.4718L386.536 95.8718L385.256 97.4082ZM386.988 97.6801C384.385 101.532 380.991 105.14 376.792 108.499L378.041 110.061C382.375 106.594 385.914 102.841 388.645 98.7999L386.988 97.6801ZM376.792 108.499C372.705 111.768 368.02 113.4 362.696 113.4V115.4C368.466 115.4 373.594 113.618 378.041 110.061L376.792 108.499ZM456.536 20.8L455.848 21.525L455.866 21.5426L455.885 21.5592L456.536 20.8ZM457.176 3.67999L457.852 4.41715L457.853 4.41592L457.176 3.67999ZM473.176 20L473.868 20.722L473.176 20ZM441.336 111.84L441.961 111.059L441.336 111.84ZM438.776 97.44L437.789 97.282L438.776 97.44ZM440.216 89.44L439.237 89.2355L439.236 89.2439L440.216 89.44ZM447.736 53.44L446.759 53.2256L446.757 53.2355L447.736 53.44ZM443.096 44.16L442.649 45.0544L442.668 45.064L442.688 45.0728L443.096 44.16ZM440.536 42.88L439.54 42.7895L439.479 43.4692L440.089 43.7744L440.536 42.88ZM440.696 41.12L440.42 40.1589L439.762 40.3478L439.7 41.0295L440.696 41.12ZM470.776 32.48L471.445 31.7367L471.033 31.3658L470.5 31.5189L470.776 32.48ZM472.376 33.92L473.354 34.1306L473.476 33.5643L473.045 33.1767L472.376 33.92ZM459.896 91.84L460.872 92.0569L460.874 92.0506L459.896 91.84ZM458.936 96.8L459.923 96.9644L459.925 96.9521L458.936 96.8ZM466.616 102.72L467.131 103.577L467.151 103.565L467.171 103.552L466.616 102.72ZM472.696 97.6L473.403 96.8929L472.712 96.2013L472.005 96.8774L472.696 97.6ZM474.136 99.04L474.965 99.5999L475.427 98.9163L474.843 98.3329L474.136 99.04ZM463.896 109.76L464.503 110.555L464.506 110.553L463.896 109.76ZM464.376 22.68C461.625 22.68 459.243 21.8033 457.187 20.0407L455.885 21.5592C458.309 23.6367 461.154 24.68 464.376 24.68V22.68ZM457.225 20.075C455.316 18.2614 454.336 15.8699 454.336 12.8H452.336C452.336 16.3434 453.49 19.2853 455.848 21.525L457.225 20.075ZM454.336 12.8C454.336 9.32339 455.515 6.55904 457.852 4.41715L456.501 2.94284C453.717 5.49429 452.336 8.80994 452.336 12.8H454.336ZM457.853 4.41592C460.355 2.11473 463.105 0.999992 466.136 0.999992V-1.00001C462.554 -1.00001 459.331 0.338583 456.499 2.94406L457.853 4.41592ZM466.136 0.999992C469.105 0.999992 471.453 1.93059 473.269 3.7471L474.683 2.33288C472.447 0.0960636 469.568 -1.00001 466.136 -1.00001V0.999992ZM473.269 3.7471C475.086 5.56361 476.016 7.91141 476.016 10.88H478.016C478.016 7.44857 476.92 4.56971 474.683 2.33288L473.269 3.7471ZM476.016 10.88C476.016 14.2411 474.843 17.0181 472.484 19.278L473.868 20.722C476.63 18.0752 478.016 14.7722 478.016 10.88H476.016ZM472.484 19.278C470.096 21.5671 467.405 22.68 464.376 22.68V24.68C467.961 24.68 471.137 23.3395 473.868 20.722L472.484 19.278ZM449.496 113.4C446.367 113.4 443.882 112.596 441.961 111.059L440.712 112.621C443.057 114.497 446.012 115.4 449.496 115.4V113.4ZM441.961 111.059C440.115 109.582 439.136 107.394 439.136 104.32H437.136C437.136 107.86 438.291 110.684 440.712 112.621L441.961 111.059ZM439.136 104.32C439.136 102.469 439.342 100.232 439.764 97.598L437.789 97.282C437.357 99.9817 437.136 102.331 437.136 104.32H439.136ZM439.764 97.598C440.188 94.9442 440.666 92.2902 441.197 89.6361L439.236 89.2439C438.7 91.9231 438.218 94.6025 437.789 97.282L439.764 97.598ZM441.195 89.6445L448.715 53.6445L446.757 53.2355L439.237 89.2355L441.195 89.6445ZM448.713 53.6544C449.227 51.3109 449.093 49.1978 448.191 47.3928C447.288 45.5867 445.681 44.221 443.505 43.2472L442.688 45.0728C444.565 45.9124 445.758 47 446.402 48.2872C447.046 49.5756 447.205 51.1957 446.76 53.2256L448.713 53.6544ZM443.543 43.2656L440.983 41.9856L440.089 43.7744L442.649 45.0544L443.543 43.2656ZM441.532 42.9705L441.692 41.2105L439.7 41.0295L439.54 42.7895L441.532 42.9705ZM440.972 42.0811L471.052 33.4411L470.5 31.5189L440.42 40.1589L440.972 42.0811ZM470.107 33.2233L471.707 34.6633L473.045 33.1767L471.445 31.7367L470.107 33.2233ZM471.399 33.7094L458.919 91.6294L460.874 92.0506L473.354 34.1306L471.399 33.7094ZM458.92 91.6231C458.49 93.5568 458.166 95.2328 457.948 96.6479L459.925 96.9521C460.134 95.5938 460.449 93.9632 460.872 92.0569L458.92 91.6231ZM457.95 96.6356C457.728 97.9692 457.616 99.3042 457.616 100.64H459.616C459.616 99.4158 459.718 98.1908 459.923 96.9644L457.95 96.6356ZM457.616 100.64C457.616 101.945 457.911 103.111 458.676 103.953C459.458 104.813 460.57 105.16 461.816 105.16V103.16C460.93 103.16 460.441 102.921 460.156 102.607C459.855 102.276 459.616 101.682 459.616 100.64H457.616ZM461.816 105.16C463.626 105.16 465.401 104.615 467.131 103.577L466.102 101.863C464.631 102.745 463.207 103.16 461.816 103.16V105.16ZM467.171 103.552C468.843 102.437 470.919 100.684 473.387 98.3226L472.005 96.8774C469.567 99.2092 467.59 100.869 466.062 101.888L467.171 103.552ZM471.989 98.3071L473.429 99.7471L474.843 98.3329L473.403 96.8929L471.989 98.3071ZM473.308 98.4801C470.707 102.329 467.37 105.826 463.287 108.967L464.506 110.553C468.742 107.294 472.232 103.644 474.965 99.5999L473.308 98.4801ZM463.29 108.965C459.426 111.913 454.844 113.4 449.496 113.4V115.4C455.242 115.4 460.26 113.793 464.503 110.555L463.29 108.965ZM482.481 113.12L481.867 113.909L482.164 114.14L482.539 114.118L482.481 113.12ZM481.041 112L480.062 111.795L479.935 112.406L480.427 112.789L481.041 112ZM493.361 53.12L492.387 52.8951L492.385 52.9051L492.382 52.9152L493.361 53.12ZM488.881 44.16L488.455 45.0648L488.464 45.0687L488.881 44.16ZM486.161 42.88L485.166 42.7805L485.096 43.4838L485.735 43.7848L486.161 42.88ZM486.321 41.28L486.038 40.321L485.393 40.5116L485.326 41.1805L486.321 41.28ZM516.081 32.48L516.746 31.7326L516.33 31.3635L515.798 31.521L516.081 32.48ZM517.521 33.76L518.504 33.9467L518.61 33.3895L518.186 33.0126L517.521 33.76ZM513.841 53.12L512.859 52.9333L512.177 56.5208L514.591 53.7812L513.841 53.12ZM530.801 38.24L531.334 39.0863L531.345 39.0791L530.801 38.24ZM555.601 35.84L554.912 36.5641L554.921 36.573L554.93 36.5815L555.601 35.84ZM558.321 52.48L559.305 52.6589L559.306 52.6513L558.321 52.48ZM556.721 59.84L555.751 59.5975L555.751 59.5985L556.721 59.84ZM548.241 93.92L549.211 94.1625L549.212 94.1615L548.241 93.92ZM547.281 98.24L548.262 98.4361L548.264 98.4275L548.265 98.4189L547.281 98.24ZM561.041 97.28L561.748 96.5729L561.025 95.8495L560.318 96.5891L561.041 97.28ZM562.641 98.88L563.47 99.4399L563.932 98.7563L563.348 98.1729L562.641 98.88ZM552.081 109.6L551.491 108.793L552.081 109.6ZM529.361 112L528.697 112.747L528.709 112.758L528.721 112.768L529.361 112ZM527.281 98.08L528.256 98.3016L528.258 98.2924L527.281 98.08ZM529.041 90.56L530.011 90.8025L529.041 90.56ZM535.281 65.6L536.251 65.8425L535.281 65.6ZM537.361 56.48L538.342 56.6761L537.361 56.48ZM536.881 45.12L536.174 45.8271L536.198 45.8506L536.223 45.8726L536.881 45.12ZM524.241 47.2L523.704 46.3562L523.693 46.3639L524.241 47.2ZM512.881 57.76L512.126 57.1051L511.96 57.2962L511.905 57.5431L512.881 57.76ZM508.401 77.92L507.425 77.703L507.422 77.7168L508.401 77.92ZM505.041 94.88L504.059 94.6946L505.041 94.88ZM501.841 112L501.899 112.998L502.682 112.953L502.825 112.182L501.841 112ZM483.095 112.331L481.655 111.211L480.427 112.789L481.867 113.909L483.095 112.331ZM482.02 112.205L494.34 53.3248L492.382 52.9152L480.062 111.795L482.02 112.205ZM494.336 53.3449C494.853 51.1027 494.732 49.0663 493.856 47.3128C492.98 45.5616 491.416 44.2242 489.299 43.2513L488.464 45.0687C490.293 45.9092 491.449 46.9718 492.067 48.2072C492.683 49.4404 492.829 50.9773 492.387 52.8951L494.336 53.3449ZM489.307 43.2552L486.587 41.9752L485.735 43.7848L488.455 45.0648L489.307 43.2552ZM487.156 42.9795L487.316 41.3795L485.326 41.1805L485.166 42.7805L487.156 42.9795ZM486.605 42.239L516.365 33.439L515.798 31.521L486.038 40.321L486.605 42.239ZM515.417 33.2274L516.857 34.5074L518.186 33.0126L516.746 31.7326L515.417 33.2274ZM516.539 33.5733L512.859 52.9333L514.824 53.3067L518.504 33.9467L516.539 33.5733ZM514.591 53.7812C520.089 47.5437 525.671 42.6517 531.334 39.0862L530.268 37.3938C524.411 41.0816 518.687 46.1097 513.091 52.4588L514.591 53.7812ZM531.345 39.0791C536.997 35.4159 542.25 33.64 547.121 33.64V31.64C541.753 31.64 536.125 33.5974 530.257 37.4008L531.345 39.0791ZM547.121 33.64C550.307 33.64 552.878 34.6269 554.912 36.5641L556.291 35.1159C553.845 32.7864 550.762 31.64 547.121 31.64V33.64ZM554.93 36.5815C556.881 38.3467 557.961 41.2204 557.961 45.44H559.961C559.961 40.9129 558.801 37.3867 556.272 35.0985L554.93 36.5815ZM557.961 45.44C557.961 47.6166 557.754 49.9057 557.336 52.3087L559.306 52.6513C559.742 50.1476 559.961 47.7434 559.961 45.44H557.961ZM557.337 52.3011C556.915 54.6243 556.386 57.0563 555.751 59.5975L557.691 60.0825C558.336 57.5037 558.874 55.029 559.305 52.6589L557.337 52.3011ZM555.751 59.5985L547.271 93.6785L549.212 94.1615L557.692 60.0815L555.751 59.5985ZM547.271 93.6775C546.841 95.3963 546.516 96.859 546.297 98.0611L548.265 98.4189C548.473 97.2743 548.788 95.857 549.211 94.1625L547.271 93.6775ZM546.301 98.0439C546.078 99.1585 545.961 100.186 545.961 101.12H547.961C547.961 100.348 548.058 99.4549 548.262 98.4361L546.301 98.0439ZM545.961 101.12C545.961 102.349 546.206 103.456 546.864 104.269C547.555 105.123 548.558 105.48 549.681 105.48V103.48C548.991 103.48 548.634 103.277 548.419 103.011C548.17 102.704 547.961 102.131 547.961 101.12H545.961ZM549.681 105.48C551.437 105.48 553.318 104.779 555.297 103.525C557.283 102.266 559.439 100.404 561.764 97.9709L560.318 96.5891C558.057 98.9557 556.026 100.694 554.226 101.835C552.418 102.981 550.913 103.48 549.681 103.48V105.48ZM560.334 97.9871L561.934 99.5871L563.348 98.1729L561.748 96.5729L560.334 97.9871ZM561.813 98.3201C559.219 102.159 555.784 105.652 551.491 108.793L552.672 110.407C557.125 107.148 560.73 103.494 563.47 99.4399L561.813 98.3201ZM551.491 108.793C547.286 111.87 542.639 113.4 537.521 113.4V115.4C543.071 115.4 548.13 113.73 552.672 110.407L551.491 108.793ZM537.521 113.4C534.141 113.4 531.681 112.631 530.001 111.232L528.721 112.768C530.882 114.569 533.862 115.4 537.521 115.4V113.4ZM530.026 111.253C528.355 109.767 527.481 107.712 527.481 104.96H525.481C525.481 108.181 526.528 110.819 528.697 112.747L530.026 111.253ZM527.481 104.96C527.481 102.8 527.738 100.581 528.256 98.3016L526.306 97.8584C525.758 100.272 525.481 102.64 525.481 104.96H527.481ZM528.258 98.2924C528.789 95.8497 529.374 93.353 530.011 90.8025L528.071 90.3175C527.429 92.887 526.84 95.4037 526.304 97.8676L528.258 98.2924ZM530.011 90.8025L536.251 65.8425L534.311 65.3575L528.071 90.3175L530.011 90.8025ZM536.251 65.8425C537.108 62.418 537.805 59.3621 538.342 56.6761L536.381 56.2839C535.851 58.9313 535.162 61.9553 534.311 65.3575L536.251 65.8425ZM538.342 56.6761C538.885 53.9581 539.161 51.4381 539.161 49.12H537.161C537.161 51.2819 536.904 53.6686 536.381 56.2839L538.342 56.6761ZM539.161 49.12C539.161 47.1033 538.722 45.4015 537.54 44.3674L536.223 45.8726C536.748 46.3318 537.161 47.2967 537.161 49.12H539.161ZM537.588 44.4129C536.505 43.3296 535.053 42.84 533.361 42.84V44.84C534.656 44.84 535.551 45.2037 536.174 45.8271L537.588 44.4129ZM533.361 42.84C530.526 42.84 527.294 44.0723 523.704 46.3563L524.778 48.0437C528.229 45.8477 531.076 44.84 533.361 44.84V42.84ZM523.693 46.3639C520.172 48.6744 516.316 52.2695 512.126 57.1051L513.637 58.4149C517.766 53.6505 521.484 50.2056 524.79 48.036L523.693 46.3639ZM511.905 57.5431L507.425 77.7031L509.377 78.1369L513.857 57.9769L511.905 57.5431ZM507.422 77.7168C506.248 83.376 505.126 89.0353 504.059 94.6946L506.024 95.0654C507.089 89.418 508.208 83.7706 509.38 78.1232L507.422 77.7168ZM504.059 94.6946C502.992 100.349 501.925 106.057 500.858 111.818L502.825 112.182C503.891 106.423 504.957 100.718 506.024 95.0654L504.059 94.6946ZM501.784 111.002L482.423 112.122L482.539 114.118L501.899 112.998L501.784 111.002ZM599.351 112L598.393 111.713L598.007 113H599.351V112ZM599.831 110.4L599.43 109.484L599.006 109.669L598.873 110.113L599.831 110.4ZM602.391 109.28L602.792 110.196L602.802 110.192L602.391 109.28ZM607.351 105.76L606.588 105.114L607.351 105.76ZM609.751 100.16L608.768 99.9748L608.767 99.9811L609.751 100.16ZM618.071 56L617.089 55.8146V55.8148L618.071 56ZM621.431 37.44L620.446 37.268L621.431 37.44ZM624.791 18.08L625.777 18.2499L625.778 18.241L625.78 18.2321L624.791 18.08ZM620.311 9.12L619.837 10.0005L619.85 10.0077L619.864 10.0144L620.311 9.12ZM618.231 7.99999L617.251 7.80388L617.106 8.52959L617.757 8.88046L618.231 7.99999ZM618.551 6.4V5.4H617.731L617.571 6.20388L618.551 6.4ZM682.391 12.16L682.849 11.2707L682.391 12.16ZM699.191 28L700.065 27.5144L699.191 28ZM685.591 95.84L684.933 95.0874L684.926 95.0933L685.591 95.84ZM665.111 107.84L664.776 106.898L664.772 106.899L665.111 107.84ZM630.231 108.8L629.243 108.649L629.067 109.8H630.231V108.8ZM661.751 101.12L661.127 100.339L661.751 101.12ZM676.471 80L675.54 79.6343L675.537 79.644L676.471 80ZM674.391 20L673.593 20.6021L673.598 20.6084L674.391 20ZM652.791 9.59999L652.836 8.601L652.814 8.59999H652.791V9.59999ZM648.471 9.59999V8.59999H647.645L647.489 9.41192L648.471 9.59999ZM638.391 62.24L637.409 62.0519L637.407 62.0647L638.391 62.24ZM634.071 85.6L633.089 85.4116L633.087 85.4247L634.071 85.6ZM600.309 112.287L600.789 110.687L598.873 110.113L598.393 111.713L600.309 112.287ZM600.232 111.316L602.792 110.196L601.99 108.364L599.43 109.484L600.232 111.316ZM602.802 110.192C605.033 109.188 606.821 107.934 608.115 106.406L606.588 105.114C605.534 106.359 604.016 107.452 601.981 108.368L602.802 110.192ZM608.115 106.406C609.431 104.85 610.287 102.805 610.735 100.339L608.767 99.9811C608.362 102.208 607.618 103.897 606.588 105.114L608.115 106.406ZM610.734 100.345L619.054 56.1851L617.089 55.8148L608.769 99.9749L610.734 100.345ZM619.054 56.1854C620.122 50.5269 621.242 44.3357 622.416 37.612L620.446 37.268C619.273 43.9843 618.154 50.1664 617.089 55.8146L619.054 56.1854ZM622.416 37.612C623.59 30.8914 624.71 24.4373 625.777 18.2499L623.806 17.9101C622.739 24.096 621.619 30.5486 620.446 37.268L622.416 37.612ZM625.78 18.2321C626.123 16.001 625.907 13.9946 625.046 12.2728C624.183 10.5474 622.723 9.20776 620.758 8.22557L619.864 10.0144C621.526 10.8456 622.626 11.906 623.257 13.1672C623.889 14.4321 624.1 15.999 623.803 17.9279L625.78 18.2321ZM620.785 8.23953L618.705 7.11952L617.757 8.88046L619.837 10.0005L620.785 8.23953ZM619.212 8.19611L619.532 6.59611L617.571 6.20388L617.251 7.80388L619.212 8.19611ZM618.551 7.4H654.551V5.4H618.551V7.4ZM654.551 7.4C665.535 7.4 674.647 9.30159 681.934 13.0493L682.849 11.2707C675.202 7.3384 665.755 5.4 654.551 5.4V7.4ZM681.934 13.0493C689.242 16.8076 694.689 21.9543 698.317 28.4856L700.065 27.5144C696.227 20.6057 690.474 15.1924 682.849 11.2707L681.934 13.0493ZM698.317 28.4856C701.959 35.0412 703.791 42.4975 703.791 50.88H705.791C705.791 42.1958 703.89 34.3988 700.065 27.5144L698.317 28.4856ZM703.791 50.88C703.791 60.3602 702.106 68.8035 698.76 76.2291L700.583 77.0509C704.063 69.3298 705.791 60.5997 705.791 50.88H703.791ZM698.76 76.2291C695.402 83.6779 690.793 89.9596 684.933 95.0874L686.25 96.5926C692.336 91.2671 697.113 84.7487 700.583 77.0509L698.76 76.2291ZM684.926 95.0933C679.161 100.23 672.447 104.166 664.776 106.898L665.447 108.782C673.349 105.968 680.289 101.904 686.256 96.5867L684.926 95.0933ZM664.772 106.899C657.208 109.631 649.11 111 640.471 111V113C649.325 113 657.654 111.596 665.451 108.781L664.772 106.899ZM640.471 111H599.351V113H640.471V111ZM630.231 109.8H638.391V107.8H630.231V109.8ZM638.391 109.8C647.763 109.8 655.777 107.18 662.376 101.901L661.127 100.339C654.925 105.3 647.366 107.8 638.391 107.8V109.8ZM662.376 101.901C668.937 96.6517 673.94 89.4541 677.406 80.356L675.537 79.644C672.176 88.4659 667.365 95.3483 661.127 100.339L662.376 101.901ZM677.402 80.3657C680.975 71.2697 682.751 60.9557 682.751 49.44H680.751C680.751 60.7509 679.007 70.8103 675.541 79.6343L677.402 80.3657ZM682.751 49.44C682.751 36.1227 680.287 26.0467 675.185 19.3916L673.598 20.6084C678.309 26.7533 680.751 36.3039 680.751 49.44H682.751ZM675.19 19.3979C670.073 12.6124 662.572 9.03857 652.836 8.601L652.746 10.599C661.997 11.0147 668.896 14.3742 673.593 20.6021L675.19 19.3979ZM652.791 8.59999H648.471V10.6H652.791V8.59999ZM647.489 9.41192L637.409 62.0519L639.373 62.4281L649.453 9.78807L647.489 9.41192ZM637.407 62.0647C636.021 69.847 634.582 77.6293 633.089 85.4117L635.053 85.7883C636.548 77.9974 637.988 70.2063 639.376 62.4153L637.407 62.0647ZM633.087 85.4247C631.699 93.2193 630.417 100.961 629.243 108.649L631.22 108.951C632.392 101.279 633.671 93.5541 635.056 85.7753L633.087 85.4247ZM720.805 106.56L720.083 107.252L720.805 106.56ZM716.805 64.8L717.74 65.1546L716.805 64.8ZM726.565 48.32L725.81 47.6638L725.809 47.6651L726.565 48.32ZM741.285 36.8L740.838 35.9056L741.285 36.8ZM774.725 37.28L774.065 38.0312L774.077 38.0417L774.089 38.0519L774.725 37.28ZM774.245 61.6L773.528 60.9023L773.519 60.9123L774.245 61.6ZM757.925 72.64L758.339 73.5504L758.35 73.5451L757.925 72.64ZM733.125 80L732.948 79.0158L732.113 79.1659L732.125 80.0145L733.125 80ZM763.365 97.6L763.903 98.4427L763.912 98.4375L763.92 98.4321L763.365 97.6ZM773.125 88.64L773.698 87.8208L772.921 87.2766L772.337 88.0244L773.125 88.64ZM774.725 89.76L775.615 90.2163L776.013 89.4407L775.298 88.9408L774.725 89.76ZM766.405 101.6L765.667 100.925L765.662 100.931L765.656 100.937L766.405 101.6ZM754.885 110.88L755.358 111.761L755.366 111.757L755.374 111.752L754.885 110.88ZM750.245 40.16L749.65 39.3564L749.642 39.3618L749.635 39.3674L750.245 40.16ZM742.245 48.96L741.42 48.3945L741.417 48.3997L742.245 48.96ZM736.005 61.6L735.063 61.265L735.058 61.2773L736.005 61.6ZM733.125 76.64L732.127 76.5801L732.043 77.9715L733.388 77.6048L733.125 76.64ZM758.085 64L757.363 63.3077L757.356 63.3156L758.085 64ZM763.525 39.2L762.792 39.8804V39.8805L763.525 39.2ZM740.325 113.4C732.566 113.4 726.331 110.876 721.527 105.868L720.083 107.252C725.306 112.697 732.084 115.4 740.325 115.4V113.4ZM721.527 105.868C716.744 100.882 714.285 93.7484 714.285 84.32H712.285C712.285 94.0916 714.839 101.785 720.083 107.252L721.527 105.868ZM714.285 84.32C714.285 77.6106 715.438 71.2244 717.74 65.1546L715.87 64.4453C713.479 70.7489 712.285 77.3761 712.285 84.32H714.285ZM717.74 65.1546C720.047 59.0732 723.241 53.6825 727.321 48.9749L725.809 47.6651C721.569 52.5575 718.257 58.1535 715.87 64.4453L717.74 65.1546ZM727.32 48.9762C731.505 44.1634 736.308 40.4064 741.732 37.6944L740.838 35.9056C735.168 38.7403 730.159 42.6633 725.81 47.6638L727.32 48.9762ZM741.732 37.6944C747.133 34.9939 753.006 33.64 759.365 33.64V31.64C752.711 31.64 746.53 33.0594 740.838 35.9056L741.732 37.6944ZM759.365 33.64C765.946 33.64 770.793 35.1557 774.065 38.0312L775.385 36.5288C771.617 33.2177 766.224 31.64 759.365 31.64V33.64ZM774.089 38.0519C777.468 40.8345 779.165 44.5425 779.165 49.28H781.165C781.165 43.9908 779.235 39.6988 775.361 36.5081L774.089 38.0519ZM779.165 49.28C779.165 53.0971 777.36 56.9671 773.529 60.9024L774.961 62.2976C779.023 58.1262 781.165 53.7829 781.165 49.28H779.165ZM773.519 60.9123C769.791 64.847 764.468 68.4619 757.5 71.7349L758.35 73.5451C765.462 70.2048 771.019 66.4597 774.971 62.2877L773.519 60.9123ZM757.511 71.7296C750.563 74.888 742.379 77.3204 732.948 79.0158L733.302 80.9842C742.858 79.2663 751.207 76.7919 758.339 73.5504L757.511 71.7296ZM732.125 80.0145C732.233 87.4802 733.854 93.1571 737.184 96.8315L738.666 95.4885C735.809 92.3363 734.23 87.2398 734.125 79.9855L732.125 80.0145ZM737.184 96.8315C740.501 100.492 745.059 102.28 750.725 102.28V100.28C745.511 100.28 741.535 98.6546 738.666 95.4885L737.184 96.8315ZM750.725 102.28C755.501 102.28 759.901 100.999 763.903 98.4427L762.827 96.7573C759.148 99.1072 755.122 100.28 750.725 100.28V102.28ZM763.92 98.4321C767.843 95.8167 771.176 92.7585 773.913 89.2556L772.337 88.0244C769.74 91.3482 766.567 94.2633 762.81 96.768L763.92 98.4321ZM772.552 89.4592L774.152 90.5792L775.298 88.9408L773.698 87.8208L772.552 89.4592ZM773.835 89.3037C771.746 93.3782 769.025 97.2523 765.667 100.925L767.143 102.275C770.612 98.4811 773.438 94.4618 775.615 90.2163L773.835 89.3037ZM765.656 100.937C762.424 104.586 758.672 107.609 754.396 110.008L755.374 111.752C759.845 109.244 763.772 106.081 767.154 102.263L765.656 100.937ZM754.412 109.999C750.195 112.262 745.506 113.4 740.325 113.4V115.4C745.811 115.4 750.828 114.192 755.358 111.761L754.412 109.999ZM758.245 35.96C755.499 35.96 752.626 37.1519 749.65 39.3564L750.84 40.9636C753.624 38.9014 756.085 37.96 758.245 37.96V35.96ZM749.635 39.3674C746.759 41.5803 744.023 44.5986 741.42 48.3945L743.07 49.5255C745.587 45.8547 748.185 43.0064 750.855 40.9526L749.635 39.3674ZM741.417 48.3997C738.909 52.1066 736.793 56.398 735.063 61.265L736.947 61.935C738.63 57.202 740.674 53.0667 743.073 49.5203L741.417 48.3997ZM735.058 61.2773C733.427 66.0618 732.452 71.1642 732.127 76.5801L734.123 76.6999C734.438 71.4492 735.383 66.5248 736.952 61.9227L735.058 61.2773ZM733.388 77.6048C745.19 74.3861 753.721 70.1098 758.814 64.6844L757.356 63.3156C752.636 68.3435 744.527 72.4939 732.862 75.6752L733.388 77.6048ZM758.807 64.6922C763.98 59.2987 766.605 53.137 766.605 46.24H764.605C764.605 52.5697 762.217 58.2479 757.363 63.3078L758.807 64.6922ZM766.605 46.24C766.605 42.9257 765.891 40.2789 764.258 38.5195L762.792 39.8805C763.932 41.1078 764.605 43.1543 764.605 46.24H766.605ZM764.258 38.5195C762.672 36.8119 760.642 35.96 758.245 35.96V37.96C760.115 37.96 761.604 38.6014 762.792 39.8804L764.258 38.5195ZM778.414 112L777.433 111.804L777.194 113H778.414V112ZM778.734 110.4L778.355 109.474L777.858 109.678L777.753 110.204L778.734 110.4ZM782.254 108.96L782.632 109.886L782.644 109.881L782.254 108.96ZM788.654 101.28L789.633 101.482L789.635 101.473L789.637 101.464L788.654 101.28ZM797.134 56L796.151 55.8146L796.151 55.8159L797.134 56ZM800.494 37.28L801.479 37.4494L801.48 37.4469L800.494 37.28ZM803.854 17.6L802.869 17.4276L802.868 17.4301L803.854 17.6ZM798.894 8.8L798.447 9.69442L798.486 9.71404L798.527 9.73015L798.894 8.8ZM797.294 7.99999L796.313 7.80388L796.163 8.55284L796.847 8.89442L797.294 7.99999ZM797.614 6.4V5.4H796.794L796.633 6.20388L797.614 6.4ZM871.534 6.4L872.521 6.55887L872.708 5.4H871.534V6.4ZM867.054 34.24V35.24H867.906L868.041 34.3989L867.054 34.24ZM865.454 34.24L864.486 34.4906L864.68 35.24H865.454V34.24ZM861.934 20.64L862.902 20.3894L862.898 20.3756L862.894 20.3619L861.934 20.64ZM856.974 12.16L856.349 12.9409L856.361 12.9506L856.374 12.96L856.974 12.16ZM827.534 9.59999V8.59999H826.706L826.551 9.41366L827.534 9.59999ZM818.734 56L817.751 55.8137L817.526 57H818.734V56ZM838.094 54.56L838.541 55.4544L838.55 55.4498L838.56 55.4449L838.094 54.56ZM843.694 49.44L842.899 48.8325L842.892 48.8421L842.885 48.8518L843.694 49.44ZM849.934 41.28V40.28H849.44L849.139 40.6725L849.934 41.28ZM851.534 41.28L852.517 41.4634L852.738 40.28H851.534V41.28ZM845.294 74.72V75.72H846.124L846.277 74.9034L845.294 74.72ZM843.694 74.72L842.752 75.055L842.988 75.72H843.694V74.72ZM841.134 67.52L840.185 67.8362L840.188 67.8456L840.192 67.855L841.134 67.52ZM837.294 61.28L836.613 62.0128L836.64 62.0379L836.669 62.0609L837.294 61.28ZM818.094 59.2V58.2H817.265L817.111 59.0141L818.094 59.2ZM815.534 72.48L814.552 72.288L814.551 72.2965L814.549 72.305L815.534 72.48ZM812.974 87.2L813.959 87.3713L813.96 87.3678L812.974 87.2ZM810.574 100.96L809.589 100.788L809.587 100.8L810.574 100.96ZM815.054 108.96L814.697 109.894L814.703 109.896L815.054 108.96ZM818.894 110.4L819.874 110.596L820.041 109.762L819.245 109.464L818.894 110.4ZM818.574 112V113H819.394L819.554 112.196L818.574 112ZM779.394 112.196L779.714 110.596L777.753 110.204L777.433 111.804L779.394 112.196ZM779.112 111.326L782.632 109.886L781.875 108.034L778.355 109.474L779.112 111.326ZM782.644 109.881C786.455 108.264 788.818 105.443 789.633 101.482L787.674 101.078C786.996 104.371 785.092 106.669 781.863 108.039L782.644 109.881ZM789.637 101.464L798.117 56.1841L796.151 55.8159L787.671 101.096L789.637 101.464ZM798.116 56.1854C799.184 50.5258 800.305 44.2804 801.479 37.4494L799.508 37.1106C798.336 43.933 797.217 50.1675 796.151 55.8146L798.116 56.1854ZM801.48 37.4469C802.653 30.5144 803.773 23.9554 804.839 17.7699L802.868 17.4301C801.801 23.6179 800.681 30.1789 799.508 37.1131L801.48 37.4469ZM804.839 17.7724C805.24 15.4777 805.014 13.4287 804.045 11.709C803.076 9.99006 801.437 8.72897 799.261 7.86984L798.527 9.73015C800.403 10.471 801.618 11.4766 802.303 12.691C802.987 13.9046 803.214 15.4556 802.869 17.4276L804.839 17.7724ZM799.341 7.90557L797.741 7.10557L796.847 8.89442L798.447 9.69442L799.341 7.90557ZM798.274 8.19611L798.594 6.59611L796.633 6.20388L796.313 7.80388L798.274 8.19611ZM797.614 7.4H871.534V5.4H797.614V7.4ZM870.546 6.24112L866.066 34.0811L868.041 34.3989L872.521 6.55887L870.546 6.24112ZM867.054 33.24H865.454V35.24H867.054V33.24ZM866.422 33.9894L862.902 20.3894L860.966 20.8906L864.486 34.4906L866.422 33.9894ZM862.894 20.3619C861.693 16.2131 859.956 13.1465 857.574 11.36L856.374 12.96C858.258 14.3735 859.828 16.9602 860.973 20.9181L862.894 20.3619ZM857.598 11.3791C855.209 9.46754 851.687 8.59999 847.214 8.59999V10.6C851.487 10.6 854.472 11.4391 856.349 12.9409L857.598 11.3791ZM847.214 8.59999H827.534V10.6H847.214V8.59999ZM826.551 9.41366L817.751 55.8137L819.716 56.1863L828.516 9.78633L826.551 9.41366ZM818.734 57H830.734V55H818.734V57ZM830.734 57C833.818 57 836.439 56.5056 838.541 55.4544L837.647 53.6656C835.909 54.5344 833.622 55 830.734 55V57ZM838.56 55.4449C840.753 54.2905 842.729 52.4666 844.503 50.0282L842.885 48.8518C841.245 51.1067 839.488 52.6962 837.628 53.6751L838.56 55.4449ZM844.488 50.0474L850.728 41.8874L849.139 40.6725L842.899 48.8325L844.488 50.0474ZM849.934 42.28H851.534V40.28H849.934V42.28ZM850.551 41.0966L844.311 74.5366L846.277 74.9034L852.517 41.4634L850.551 41.0966ZM845.294 73.72H843.694V75.72H845.294V73.72ZM844.636 74.385L842.076 67.185L840.192 67.855L842.752 75.055L844.636 74.385ZM842.082 67.2038C841.089 64.2237 839.725 61.9444 837.918 60.4991L836.669 62.0609C838.062 63.1756 839.258 65.0563 840.185 67.8362L842.082 67.2038ZM837.974 60.5472C836.22 58.9184 833.632 58.2 830.414 58.2V60.2C833.382 60.2 835.381 60.8683 836.613 62.0128L837.974 60.5472ZM830.414 58.2H818.094V60.2H830.414V58.2ZM817.111 59.0141C816.365 62.9583 815.512 67.3829 814.552 72.288L816.515 72.672C817.475 67.7638 818.329 63.335 819.076 59.3859L817.111 59.0141ZM814.549 72.305C813.695 77.1075 812.842 82.0166 811.988 87.0322L813.96 87.3678C814.812 82.3568 815.665 77.4525 816.518 72.655L814.549 72.305ZM811.989 87.0287C811.135 91.935 810.335 96.5213 809.589 100.788L811.559 101.132C812.306 96.8653 813.106 92.2783 813.959 87.3713L811.989 87.0287ZM809.587 100.8C809.242 102.927 809.454 104.825 810.341 106.409C811.23 107.996 812.725 109.14 814.697 109.894L815.411 108.026C813.756 107.393 812.69 106.51 812.086 105.431C811.48 104.349 811.266 102.94 811.561 101.12L809.587 100.8ZM814.703 109.896L818.543 111.336L819.245 109.464L815.405 108.024L814.703 109.896ZM817.913 110.204L817.593 111.804L819.554 112.196L819.874 110.596L817.913 110.204ZM818.574 111H778.414V113H818.574V111ZM888.411 20.8L887.722 21.525L887.741 21.5426L887.76 21.5592L888.411 20.8ZM889.051 3.67999L889.727 4.41715L889.728 4.41592L889.051 3.67999ZM905.051 20L905.743 20.722L905.051 20ZM873.211 111.84L873.836 111.059L873.211 111.84ZM870.651 97.44L869.664 97.282L870.651 97.44ZM872.091 89.44L871.112 89.2355L871.111 89.2439L872.091 89.44ZM879.611 53.44L878.634 53.2256L878.632 53.2355L879.611 53.44ZM874.971 44.16L874.524 45.0544L874.543 45.064L874.563 45.0728L874.971 44.16ZM872.411 42.88L871.415 42.7895L871.354 43.4692L871.964 43.7744L872.411 42.88ZM872.571 41.12L872.295 40.1589L871.637 40.3478L871.575 41.0295L872.571 41.12ZM902.651 32.48L903.32 31.7367L902.908 31.3658L902.375 31.5189L902.651 32.48ZM904.251 33.92L905.229 34.1306L905.351 33.5643L904.92 33.1767L904.251 33.92ZM891.771 91.84L892.747 92.0569L892.749 92.0506L891.771 91.84ZM890.811 96.8L891.798 96.9644L891.8 96.9521L890.811 96.8ZM898.491 102.72L899.006 103.577L899.026 103.565L899.046 103.552L898.491 102.72ZM904.571 97.6L905.278 96.8929L904.587 96.2013L903.88 96.8774L904.571 97.6ZM906.011 99.04L906.84 99.5999L907.302 98.9163L906.718 98.3329L906.011 99.04ZM895.771 109.76L896.378 110.555L896.381 110.553L895.771 109.76ZM896.251 22.68C893.5 22.68 891.118 21.8033 889.062 20.0407L887.76 21.5592C890.184 23.6367 893.029 24.68 896.251 24.68V22.68ZM889.1 20.075C887.191 18.2614 886.211 15.8699 886.211 12.8H884.211C884.211 16.3434 885.365 19.2853 887.722 21.525L889.1 20.075ZM886.211 12.8C886.211 9.32339 887.39 6.55904 889.727 4.41715L888.376 2.94284C885.592 5.49429 884.211 8.80994 884.211 12.8H886.211ZM889.728 4.41592C892.23 2.11473 894.98 0.999992 898.011 0.999992V-1.00001C894.429 -1.00001 891.206 0.338583 888.374 2.94406L889.728 4.41592ZM898.011 0.999992C900.98 0.999992 903.328 1.93059 905.144 3.7471L906.558 2.33288C904.322 0.0960636 901.443 -1.00001 898.011 -1.00001V0.999992ZM905.144 3.7471C906.961 5.56361 907.891 7.91141 907.891 10.88H909.891C909.891 7.44857 908.795 4.56971 906.558 2.33288L905.144 3.7471ZM907.891 10.88C907.891 14.2411 906.718 17.0181 904.359 19.278L905.743 20.722C908.505 18.0752 909.891 14.7722 909.891 10.88H907.891ZM904.359 19.278C901.971 21.5671 899.28 22.68 896.251 22.68V24.68C899.836 24.68 903.012 23.3395 905.743 20.722L904.359 19.278ZM881.371 113.4C878.242 113.4 875.757 112.596 873.836 111.059L872.587 112.621C874.932 114.497 877.887 115.4 881.371 115.4V113.4ZM873.836 111.059C871.99 109.582 871.011 107.394 871.011 104.32H869.011C869.011 107.86 870.166 110.684 872.587 112.621L873.836 111.059ZM871.011 104.32C871.011 102.469 871.217 100.232 871.639 97.598L869.664 97.282C869.232 99.9817 869.011 102.331 869.011 104.32H871.011ZM871.639 97.598C872.063 94.9442 872.541 92.2902 873.072 89.6361L871.111 89.2439C870.575 91.9231 870.093 94.6025 869.664 97.282L871.639 97.598ZM873.07 89.6445L880.59 53.6445L878.632 53.2355L871.112 89.2355L873.07 89.6445ZM880.588 53.6544C881.102 51.3109 880.968 49.1978 880.066 47.3928C879.163 45.5867 877.556 44.221 875.38 43.2472L874.563 45.0728C876.44 45.9124 877.633 47 878.277 48.2872C878.921 49.5756 879.08 51.1957 878.635 53.2256L880.588 53.6544ZM875.418 43.2656L872.858 41.9856L871.964 43.7744L874.524 45.0544L875.418 43.2656ZM873.407 42.9705L873.567 41.2105L871.575 41.0295L871.415 42.7895L873.407 42.9705ZM872.847 42.0811L902.927 33.4411L902.375 31.5189L872.295 40.1589L872.847 42.0811ZM901.982 33.2233L903.582 34.6633L904.92 33.1767L903.32 31.7367L901.982 33.2233ZM903.274 33.7094L890.794 91.6294L892.749 92.0506L905.229 34.1306L903.274 33.7094ZM890.795 91.6231C890.365 93.5568 890.041 95.2328 889.823 96.6479L891.8 96.9521C892.009 95.5938 892.324 93.9632 892.747 92.0569L890.795 91.6231ZM889.825 96.6356C889.603 97.9692 889.491 99.3042 889.491 100.64H891.491C891.491 99.4158 891.593 98.1908 891.798 96.9644L889.825 96.6356ZM889.491 100.64C889.491 101.945 889.786 103.111 890.551 103.953C891.333 104.813 892.445 105.16 893.691 105.16V103.16C892.805 103.16 892.316 102.921 892.031 102.607C891.73 102.276 891.491 101.682 891.491 100.64H889.491ZM893.691 105.16C895.501 105.16 897.276 104.615 899.006 103.577L897.977 101.863C896.506 102.745 895.082 103.16 893.691 103.16V105.16ZM899.046 103.552C900.718 102.437 902.794 100.684 905.262 98.3226L903.88 96.8774C901.442 99.2092 899.465 100.869 897.937 101.888L899.046 103.552ZM903.864 98.3071L905.304 99.7471L906.718 98.3329L905.278 96.8929L903.864 98.3071ZM905.183 98.4801C902.582 102.329 899.245 105.826 895.162 108.967L896.381 110.553C900.617 107.294 904.107 103.644 906.84 99.5999L905.183 98.4801ZM895.165 108.965C891.301 111.913 886.719 113.4 881.371 113.4V115.4C887.117 115.4 892.135 113.793 896.378 110.555L895.165 108.965Z" fill="url(#paint1_linear_45_1080)"/>
<defs>
<linearGradient id="paint0_linear_45_1080" x1="-8.00001" y1="15.2982" x2="549.985" y2="558.708" gradientUnits="userSpaceOnUse">
<stop stop-color="#3ECDFA"/>
<stop offset="1" stop-color="#52FA81"/>
</linearGradient>
<linearGradient id="paint1_linear_45_1080" x1="-8.00001" y1="15.2982" x2="549.985" y2="558.708" gradientUnits="userSpaceOnUse">
<stop stop-color="#3ECDFA"/>
<stop offset="1" stop-color="#52FA81"/>
</linearGradient>
</defs>
</svg>
