<svg width="184" height="184" viewBox="0 0 184 184" fill="none" xmlns="http://www.w3.org/2000/svg">
<path d="M111.393 170.781L108.368 161.46L112.056 160.263C112.545 160.104 113.023 160.082 113.491 160.195C113.96 160.307 114.379 160.539 114.748 160.891C115.114 161.233 115.382 161.666 115.552 162.19C115.731 162.74 115.775 163.27 115.685 163.78C115.593 164.281 115.393 164.724 115.086 165.108C114.776 165.484 114.377 165.75 113.889 165.909L111.239 166.769L112.432 170.444L111.393 170.781ZM110.91 165.757L113.614 164.88C113.889 164.79 114.107 164.631 114.268 164.402C114.435 164.162 114.541 163.882 114.585 163.564C114.626 163.236 114.587 162.891 114.469 162.527C114.362 162.198 114.201 161.927 113.984 161.713C113.764 161.489 113.519 161.338 113.248 161.26C112.983 161.169 112.713 161.168 112.438 161.258L109.735 162.135L110.91 165.757Z" fill="black"/>
<path d="M119.957 167.774L115.957 158.218L116.926 157.812L120.926 167.369L119.957 167.774Z" fill="black"/>
<path d="M126.621 164.876C126.057 165.168 125.473 165.287 124.867 165.233C124.256 165.171 123.687 164.956 123.16 164.588C122.629 164.212 122.196 163.701 121.861 163.054C121.521 162.4 121.357 161.749 121.369 161.101C121.38 160.454 121.539 159.868 121.844 159.341C122.158 158.811 122.6 158.397 123.172 158.101C123.512 157.925 123.853 157.811 124.194 157.76C124.536 157.71 124.866 157.717 125.184 157.784C125.506 157.837 125.804 157.946 126.078 158.109C126.355 158.259 126.594 158.456 126.794 158.699L126.45 158.704L125.617 157.007L126.549 156.524L129.912 163.012L128.968 163.502L128.143 161.911L128.308 161.62C128.379 161.899 128.392 162.197 128.346 162.515C128.296 162.825 128.196 163.129 128.046 163.427C127.904 163.722 127.71 163.996 127.463 164.25C127.225 164.5 126.944 164.708 126.621 164.876ZM126.368 163.871C126.799 163.648 127.131 163.345 127.363 162.962C127.591 162.57 127.704 162.138 127.701 161.667C127.703 161.182 127.579 160.7 127.33 160.219C127.08 159.739 126.76 159.364 126.368 159.094C125.984 158.82 125.566 158.663 125.115 158.624C124.663 158.584 124.222 158.676 123.791 158.9C123.352 159.127 123.018 159.437 122.79 159.828C122.571 160.216 122.458 160.647 122.452 161.123C122.455 161.595 122.581 162.071 122.83 162.552C123.075 163.024 123.391 163.401 123.78 163.684C124.163 163.958 124.581 164.115 125.032 164.154C125.484 164.193 125.929 164.099 126.368 163.871Z" fill="black"/>
<path d="M133.265 160.937L128.255 153.19L129.137 152.62L134.146 160.367L133.265 160.937ZM128.456 156.544L127.909 155.697L131.73 153.227L132.277 154.073L128.456 156.544Z" fill="black"/>
<path d="M138.476 157.371L132.913 150.01L133.751 149.377L139.314 156.737L138.476 157.371ZM133.36 153.34L132.752 152.536L136.382 149.793L136.99 150.597L133.36 153.34Z" fill="black"/>
<path d="M145.263 151.969C144.723 152.457 144.135 152.774 143.5 152.92C142.872 153.06 142.249 153.025 141.632 152.815C141.015 152.605 140.459 152.227 139.965 151.68C139.583 151.257 139.305 150.817 139.13 150.358C138.949 149.893 138.86 149.426 138.864 148.957C138.875 148.482 138.985 148.025 139.192 147.586C139.393 147.14 139.688 146.742 140.075 146.392C140.443 146.061 140.834 145.826 141.251 145.689C141.675 145.545 142.1 145.494 142.528 145.536C142.956 145.564 143.369 145.688 143.768 145.906C144.166 146.125 144.531 146.431 144.861 146.824L145.179 147.197L140.659 151.279L139.954 150.728L143.996 147.077L143.968 147.423L143.743 147.174C143.504 146.937 143.215 146.763 142.877 146.654C142.533 146.537 142.174 146.515 141.8 146.589C141.433 146.656 141.084 146.84 140.751 147.14C140.363 147.491 140.099 147.874 139.959 148.289C139.813 148.698 139.801 149.124 139.924 149.566C140.047 150.009 140.311 150.455 140.718 150.905C141.106 151.335 141.527 151.634 141.981 151.802C142.428 151.964 142.883 151.993 143.344 151.891C143.812 151.783 144.264 151.532 144.701 151.138C144.957 150.906 145.172 150.636 145.347 150.328C145.522 150.007 145.646 149.58 145.719 149.049L146.631 149.244C146.616 149.547 146.553 149.861 146.444 150.186C146.329 150.504 146.174 150.82 145.98 151.133C145.779 151.44 145.54 151.719 145.263 151.969Z" fill="black"/>
<path d="M148.942 148.241L143.59 143.264L144.305 142.495L145.749 143.8L145.478 143.701C145.309 143.403 145.198 143.077 145.145 142.722C145.099 142.361 145.122 142.007 145.216 141.66C145.309 141.313 145.485 141 145.746 140.719C145.854 140.603 145.966 140.503 146.082 140.42C146.191 140.33 146.291 140.264 146.382 140.221L147.043 141.237C146.919 141.288 146.806 141.354 146.703 141.437C146.6 141.507 146.51 141.583 146.434 141.665C146.218 141.898 146.065 142.144 145.976 142.405C145.886 142.666 145.856 142.931 145.886 143.201C145.908 143.464 145.984 143.719 146.112 143.965C146.239 144.212 146.413 144.436 146.631 144.64L149.666 147.462L148.942 148.241Z" fill="black"/>
<path d="M156.18 139.791L148.131 134.201L148.754 133.304L156.803 138.894L156.18 139.791ZM152.904 136.851L152.019 136.236L154.845 132.166L155.731 132.78L152.904 136.851ZM149.316 134.36L148.442 133.753L151.644 129.142L152.518 129.749L149.316 134.36Z" fill="black"/>
<path d="M161.268 132.047L154.948 128.376L155.476 127.468L161.795 131.139L161.268 132.047ZM153.841 127.134C153.709 127.36 153.552 127.501 153.369 127.556C153.182 127.599 152.988 127.561 152.786 127.444C152.584 127.327 152.458 127.173 152.407 126.981C152.356 126.79 152.394 126.585 152.521 126.367C152.648 126.149 152.807 126.015 152.998 125.964C153.181 125.909 153.378 125.942 153.588 126.064C153.781 126.177 153.904 126.329 153.954 126.52C154.005 126.711 153.967 126.916 153.841 127.134Z" fill="black"/>
<path d="M163.332 128.459L156.735 125.315L157.181 124.379L158.576 124.998L158.567 125.18C158.321 124.959 158.138 124.67 158.019 124.314C157.899 123.957 157.848 123.576 157.866 123.171C157.879 122.753 157.971 122.363 158.144 122.001C158.377 121.512 158.669 121.149 159.019 120.913C159.37 120.677 159.787 120.571 160.272 120.595C160.757 120.62 161.311 120.78 161.934 121.078L165.94 122.987L165.482 123.948L161.527 122.062C161.089 121.853 160.703 121.742 160.368 121.727C160.03 121.7 159.737 121.772 159.489 121.944C159.242 122.116 159.04 122.376 158.884 122.726C158.748 123.012 158.672 123.302 158.656 123.594C158.633 123.883 158.663 124.155 158.747 124.413C158.831 124.67 158.959 124.901 159.129 125.107C159.3 125.312 159.512 125.475 159.765 125.596L163.784 127.512L163.561 127.979C163.533 128.038 163.5 128.106 163.464 128.181C163.428 128.257 163.384 128.35 163.332 128.459Z" fill="black"/>
<path d="M168.367 117.059C168.162 117.66 167.822 118.151 167.347 118.531C166.863 118.908 166.303 119.146 165.668 119.245C165.024 119.341 164.357 119.271 163.668 119.036C162.97 118.798 162.402 118.441 161.963 117.966C161.523 117.49 161.232 116.957 161.089 116.366C160.948 115.765 160.982 115.161 161.19 114.551C161.314 114.189 161.481 113.871 161.693 113.598C161.904 113.325 162.148 113.103 162.424 112.931C162.693 112.747 162.984 112.619 163.294 112.547C163.599 112.464 163.907 112.441 164.22 112.479L163.975 112.72L162.199 112.07L162.539 111.076L169.455 113.437L169.111 114.444L167.415 113.865L167.334 113.541C167.577 113.694 167.793 113.9 167.98 114.161C168.158 114.419 168.296 114.708 168.394 115.028C168.495 115.338 168.545 115.671 168.542 116.025C168.543 116.37 168.484 116.715 168.367 117.059ZM167.489 116.509C167.646 116.049 167.676 115.601 167.579 115.163C167.473 114.723 167.256 114.333 166.927 113.994C166.593 113.644 166.17 113.381 165.658 113.206C165.146 113.031 164.655 112.982 164.185 113.058C163.718 113.126 163.308 113.301 162.955 113.585C162.601 113.869 162.346 114.241 162.19 114.7C162.03 115.168 162.003 115.622 162.109 116.063C162.218 116.495 162.435 116.884 162.76 117.232C163.088 117.571 163.509 117.828 164.021 118.002C164.524 118.174 165.014 118.228 165.49 118.163C165.957 118.096 166.367 117.92 166.72 117.637C167.073 117.353 167.33 116.977 167.489 116.509Z" fill="black"/>
<path d="M170.259 110.609L163.119 109.048L163.341 108.036L164.84 108.321L164.873 108.5C164.583 108.341 164.339 108.101 164.142 107.781C163.944 107.461 163.808 107.102 163.732 106.703C163.65 106.293 163.652 105.892 163.737 105.5C163.853 104.971 164.054 104.552 164.342 104.242C164.629 103.933 165.012 103.734 165.489 103.648C165.967 103.561 166.543 103.591 167.218 103.739L171.553 104.687L171.326 105.726L167.045 104.79C166.571 104.687 166.17 104.666 165.841 104.728C165.505 104.778 165.236 104.916 165.034 105.139C164.833 105.362 164.696 105.662 164.623 106.038C164.555 106.348 164.547 106.647 164.599 106.935C164.641 107.222 164.733 107.481 164.873 107.712C165.014 107.943 165.191 108.14 165.404 108.301C165.617 108.462 165.86 108.573 166.134 108.632L170.483 109.583L170.372 110.089C170.358 110.153 170.343 110.226 170.325 110.308C170.307 110.39 170.285 110.49 170.259 110.609Z" fill="black"/>
<path d="M172.603 98.2312C172.526 98.9176 172.295 99.5115 171.91 100.013C171.516 100.513 171.018 100.89 170.417 101.141C169.808 101.383 169.141 101.463 168.418 101.382C167.694 101.301 167.067 101.075 166.535 100.706C165.996 100.326 165.594 99.8487 165.329 99.2743C165.065 98.6999 164.972 98.0649 165.05 97.3693C165.12 96.7478 165.309 96.1961 165.616 95.7141C165.915 95.231 166.299 94.8609 166.769 94.6038L167.452 95.3003C167.2 95.4505 166.972 95.6409 166.768 95.8715C166.565 96.0929 166.401 96.3422 166.276 96.6193C166.142 96.8861 166.06 97.1586 166.029 97.4369C165.974 97.9284 166.049 98.3831 166.256 98.8007C166.454 99.2173 166.748 99.565 167.139 99.8437C167.532 100.113 167.997 100.278 168.535 100.339C169.073 100.399 169.568 100.342 170.019 100.167C170.463 99.982 170.827 99.7082 171.112 99.3458C171.396 98.9833 171.566 98.5609 171.62 98.0786C171.651 97.8003 171.64 97.522 171.587 97.2437C171.524 96.9643 171.423 96.6947 171.283 96.4348C171.144 96.1749 170.96 95.9288 170.732 95.6967L171.552 95.1689C171.934 95.5311 172.221 95.9906 172.412 96.5474C172.603 97.1041 172.667 97.6654 172.603 98.2312Z" fill="black"/>
<path d="M173.097 89.5922C173.088 90.3202 172.922 90.9669 172.598 91.5326C172.274 92.0889 171.826 92.5224 171.253 92.8331C170.68 93.1438 170.025 93.2949 169.288 93.2863C168.718 93.2798 168.206 93.1852 167.751 93.0025C167.286 92.8198 166.883 92.5678 166.542 92.2465C166.2 91.9158 165.938 91.5254 165.757 91.0753C165.566 90.6251 165.474 90.1386 165.48 89.616C165.486 89.1214 165.579 88.6744 165.761 88.2752C165.944 87.8666 166.195 87.5195 166.516 87.2338C166.827 86.9388 167.198 86.719 167.629 86.5747C168.06 86.4303 168.532 86.3705 169.045 86.3951L169.535 86.4148L169.465 92.5043L168.581 92.6481L168.644 87.2025L168.879 87.4572L168.543 87.4533C168.207 87.4681 167.884 87.5624 167.574 87.7361C167.254 87.9098 166.995 88.1588 166.795 88.4832C166.595 88.7982 166.493 89.1797 166.488 89.6277C166.482 90.1503 166.584 90.6042 166.794 90.9893C166.995 91.3743 167.3 91.6719 167.708 91.882C168.116 92.092 168.624 92.2006 169.23 92.2076C169.809 92.2143 170.314 92.1082 170.746 91.8891C171.168 91.67 171.499 91.3565 171.737 90.9486C171.975 90.5313 172.098 90.0287 172.104 89.4407C172.108 89.0954 172.056 88.7541 171.948 88.4168C171.831 88.0701 171.602 87.6894 171.261 87.2748L172.024 86.7376C172.236 86.9547 172.424 87.2136 172.589 87.5142C172.744 87.8147 172.871 88.1428 172.969 88.4987C173.059 88.8544 173.101 89.2189 173.097 89.5922Z" fill="black"/>
<path fill-rule="evenodd" clip-rule="evenodd" d="M79.9654 104.035C79.5781 103.647 79.5781 103.019 79.9654 102.632L102.632 79.9655C103.019 79.5782 103.647 79.5782 104.035 79.9655C104.422 80.3527 104.422 80.9806 104.035 81.3679L81.3678 104.035C80.9806 104.422 80.3527 104.422 79.9654 104.035Z" fill="#4C4C4C"/>
<path fill-rule="evenodd" clip-rule="evenodd" d="M104.325 103.333C104.325 103.881 103.881 104.325 103.333 104.325L80.6666 104.325C80.1189 104.325 79.6749 103.881 79.6749 103.333L79.6749 80.6667C79.6749 80.119 80.1189 79.675 80.6666 79.675C81.2143 79.675 81.6583 80.119 81.6583 80.6667L81.6583 102.342L103.333 102.342C103.881 102.342 104.325 102.786 104.325 103.333Z" fill="#4C4C4C"/>
<path opacity="0.1" d="M92 0.499997C142.534 0.500003 183.5 41.466 183.5 92C183.5 142.534 142.534 183.5 92 183.5C41.4659 183.5 0.500005 142.534 0.500012 92C0.500019 41.4659 41.466 0.49999 92 0.499997Z" stroke="black"/>
<path d="M72.607 12.2986L75.6322 21.62L71.9436 22.8171C71.4553 22.9756 70.977 22.9984 70.5086 22.8854C70.0402 22.7725 69.6214 22.5405 69.2523 22.1892C68.8861 21.8469 68.618 21.4139 68.448 20.8901C68.2694 20.3397 68.2249 19.8095 68.3145 19.2996C68.407 18.7986 68.6068 18.356 68.9139 17.9717C69.2238 17.5964 69.6229 17.3295 70.1112 17.171L72.7611 16.311L71.5684 12.6357L72.607 12.2986ZM73.0896 17.3231L70.3864 18.2004C70.1112 18.2897 69.893 18.4488 69.7318 18.6777C69.5646 18.9184 69.4591 19.198 69.4152 19.5164C69.3742 19.8437 69.4128 20.1894 69.5309 20.5533C69.6375 20.8818 69.7992 21.1532 70.0159 21.3674C70.2355 21.5905 70.4808 21.7415 70.7517 21.8204C71.0166 21.911 71.2867 21.9117 71.5619 21.8224L74.2651 20.9451L73.0896 17.3231Z" fill="black"/>
<path d="M64.0429 15.3057L68.043 24.8623L67.0744 25.2678L63.0743 15.7111L64.0429 15.3057Z" fill="black"/>
<path d="M57.3791 18.2041C57.9425 17.912 58.5273 17.7929 59.1334 17.8466C59.7437 17.9087 60.3125 18.1238 60.8397 18.4918C61.3711 18.8681 61.8044 19.3794 62.1394 20.0257C62.4787 20.6803 62.6427 21.3313 62.6312 21.9785C62.6198 22.6257 62.4614 23.2124 62.156 23.7386C61.8423 24.2692 61.3995 24.6827 60.8278 24.979C60.488 25.1551 60.1474 25.2686 59.8058 25.3195C59.4643 25.3704 59.1344 25.3627 58.8161 25.2964C58.4939 25.2426 58.196 25.1343 57.9222 24.9713C57.6445 24.8209 57.4058 24.624 57.2061 24.3806L57.5504 24.3756L58.3829 26.0729L57.4507 26.5561L54.0875 20.0679L55.0322 19.5783L55.8569 21.1692L55.692 21.4597C55.6212 21.181 55.6085 20.8827 55.6539 20.5648C55.7037 20.2552 55.8036 19.9511 55.9537 19.6525C56.0955 19.3582 56.2898 19.0841 56.5366 18.83C56.7751 18.5802 57.0559 18.3716 57.3791 18.2041ZM57.6316 19.2085C57.2008 19.4319 56.8691 19.7352 56.6368 20.1184C56.4087 20.51 56.296 20.9416 56.2987 21.4133C56.2974 21.8975 56.4213 22.3799 56.6705 22.8605C56.9196 23.3412 57.2402 23.7164 57.6324 23.9862C58.0162 24.2602 58.4339 24.417 58.8853 24.4563C59.3367 24.4956 59.7779 24.4036 60.2088 24.1803C60.6479 23.9526 60.9815 23.6431 61.2096 23.2515C61.4294 22.8643 61.5421 22.4326 61.5476 21.9567C61.545 21.485 61.419 21.0089 61.1699 20.5283C60.9251 20.0559 60.6086 19.6786 60.2204 19.3962C59.8366 19.1221 59.4189 18.9654 58.9675 18.9261C58.5161 18.8867 58.0708 18.9809 57.6316 19.2085Z" fill="black"/>
<path d="M50.7354 22.1427L55.7451 29.8901L54.8634 30.4603L49.8537 22.7129L50.7354 22.1427ZM55.5435 26.536L56.0909 27.3825L52.2701 29.8531L51.7227 29.0067L55.5435 26.536Z" fill="black"/>
<path d="M45.5242 25.7094L51.0866 33.07L50.2489 33.7031L44.6865 26.3425L45.5242 25.7094ZM50.6405 29.7396L51.2482 30.5438L47.6182 33.2871L47.0105 32.4829L50.6405 29.7396Z" fill="black"/>
<path d="M38.7369 31.1107C39.2772 30.6228 39.865 30.3058 40.5002 30.1597C41.1285 30.0199 41.7512 30.0549 42.3683 30.2647C42.9854 30.4746 43.541 30.8531 44.0352 31.4003C44.4168 31.8228 44.695 32.2632 44.87 32.7215C45.0511 33.1867 45.1397 33.6538 45.1356 34.1227C45.1246 34.598 45.0155 35.055 44.8081 35.4938C44.607 35.9395 44.3125 36.3375 43.9246 36.6878C43.5574 37.0194 43.1655 37.2538 42.7488 37.3912C42.3252 37.5349 41.8997 37.5859 41.4723 37.5443C41.0442 37.5159 40.6308 37.3924 40.2323 37.1739C39.8337 36.9553 39.4693 36.6493 39.1391 36.2558L38.8211 35.8828L43.3408 31.8011L44.0462 32.3524L40.0044 36.0025L40.032 35.657L40.2572 35.9064C40.4962 36.1432 40.7847 36.3165 41.1228 36.4262C41.4671 36.5429 41.8261 36.5645 42.1999 36.491C42.5668 36.4238 42.9165 36.24 43.249 35.9397C43.6369 35.5894 43.9009 35.2064 44.041 34.7906C44.1874 34.3817 44.1991 33.9561 44.0763 33.5137C43.9534 33.0713 43.6887 32.625 43.2821 32.1748C42.8942 31.7453 42.4733 31.4463 42.0193 31.2778C41.5716 31.1162 41.1171 31.0865 40.656 31.1886C40.1879 31.2969 39.7356 31.5481 39.2993 31.9422C39.043 32.1737 38.8277 32.4436 38.6534 32.7519C38.4784 33.0734 38.3543 33.4999 38.2809 34.0314L37.369 33.8363C37.3845 33.5331 37.4467 33.2191 37.5558 32.8942C37.6711 32.5763 37.8259 32.2604 38.0204 31.9465C38.221 31.6395 38.4599 31.3609 38.7369 31.1107Z" fill="black"/>
<path d="M35.0583 34.8392L40.4102 39.8156L39.6952 40.5845L38.251 39.2799L38.5221 39.379C38.6914 39.6766 38.8023 40.0028 38.8548 40.3575C38.901 40.7191 38.8776 41.0732 38.7845 41.42C38.6914 41.7668 38.5146 42.0803 38.254 42.3606C38.146 42.4768 38.0341 42.5766 37.9182 42.66C37.8092 42.7499 37.7093 42.8162 37.6184 42.8592L36.9573 41.843C37.081 41.7923 37.1941 41.7255 37.2968 41.6425C37.3999 41.5727 37.4896 41.4968 37.5659 41.4148C37.7819 41.1824 37.9348 40.9358 38.0244 40.675C38.1139 40.4142 38.1439 40.1489 38.1143 39.8792C38.0915 39.6159 38.0162 39.3611 37.8884 39.1148C37.7606 38.8685 37.5873 38.6436 37.3686 38.4402L34.3338 35.6184L35.0583 34.8392Z" fill="black"/>
<path d="M27.8195 43.2889L35.8691 48.8785L35.2462 49.7755L27.1967 44.1858L27.8195 43.2889ZM31.0959 46.2287L31.9814 46.8436L29.1546 50.9144L28.2691 50.2995L31.0959 46.2287ZM34.6837 48.7201L35.5577 49.327L32.3556 53.9383L31.4816 53.3314L34.6837 48.7201Z" fill="black"/>
<path d="M22.7324 51.033L29.0517 54.7036L28.5243 55.6115L22.205 51.941L22.7324 51.033ZM30.1595 55.9461C30.2908 55.7201 30.4481 55.5794 30.6314 55.524C30.8181 55.4813 31.0123 55.5186 31.2141 55.6358C31.4158 55.753 31.5421 55.9073 31.5928 56.0986C31.6436 56.29 31.6057 56.4947 31.4791 56.7126C31.3525 56.9305 31.1935 57.0648 31.0022 57.1155C30.8189 57.171 30.6223 57.1377 30.4124 57.0159C30.2187 56.9033 30.0965 56.7514 30.0458 56.56C29.995 56.3686 30.033 56.164 30.1595 55.9461Z" fill="black"/>
<path d="M20.6683 54.6205L27.2651 57.7653L26.8193 58.7005L25.4237 58.0817L25.4328 57.8999C25.6791 58.1207 25.862 58.4095 25.9814 58.7663C26.1008 59.1231 26.1518 59.5041 26.1344 59.9094C26.1214 60.3271 26.0285 60.7171 25.8558 61.0794C25.6229 61.568 25.3312 61.9305 24.9808 62.1667C24.6304 62.4029 24.2128 62.5088 23.7281 62.4845C23.2433 62.4603 22.6893 62.2995 22.0658 62.0023L18.0597 60.0926L18.5176 59.1321L22.4731 61.0178C22.9112 61.2266 23.2974 61.3383 23.6316 61.3529C23.9703 61.38 24.2633 61.3076 24.5105 61.136C24.7578 60.9644 24.9595 60.7038 25.1158 60.3544C25.2523 60.0679 25.3283 59.7785 25.3437 59.4859C25.3675 59.1974 25.3373 58.9245 25.2531 58.6673C25.169 58.41 25.0414 58.1787 24.8706 57.9731C24.6997 57.7676 24.4879 57.6046 24.2352 57.4841L20.2165 55.5684L20.4394 55.1008C20.4675 55.0418 20.4996 54.9744 20.5358 54.8986C20.5719 54.8227 20.6161 54.7301 20.6683 54.6205Z" fill="black"/>
<path d="M15.6335 66.0205C15.8385 65.4198 16.1785 64.9293 16.6534 64.549C17.1372 64.1717 17.6968 63.9337 18.3321 63.8349C18.9762 63.7392 19.6427 63.8089 20.3317 64.044C21.0295 64.2822 21.5981 64.639 22.0374 65.1143C22.4768 65.5897 22.7681 66.1231 22.9115 66.7144C23.0518 67.3146 23.018 67.9194 22.8099 68.5289C22.6863 68.891 22.5188 69.2086 22.3073 69.4816C22.0958 69.7546 21.8522 69.9771 21.5764 70.1493C21.3065 70.3333 21.0164 70.4611 20.7059 70.5327C20.4013 70.6161 20.0927 70.639 19.7802 70.6013L20.0254 70.3596L21.8005 71.0098L21.4614 72.0035L14.5451 69.6431L14.8887 68.6361L16.5847 69.2149L16.6665 69.5387C16.4226 69.3864 16.2071 69.1798 16.0201 68.9187C15.8419 68.6606 15.7038 68.3719 15.6057 68.0524C15.5046 67.7418 15.4553 67.4094 15.4579 67.0552C15.4574 66.7099 15.5159 66.365 15.6335 66.0205ZM16.5106 66.5713C16.3538 67.0306 16.3241 67.479 16.4213 67.9165C16.5274 68.3571 16.7445 68.7468 17.0726 69.0856C17.4066 69.4362 17.8297 69.699 18.342 69.8739C18.8544 70.0487 19.3454 70.098 19.8153 70.0216C20.2821 69.9541 20.6922 69.7785 21.0454 69.4947C21.3987 69.2109 21.6537 68.8394 21.8104 68.3801C21.9702 67.9119 21.9971 67.4576 21.891 67.017C21.7819 66.5853 21.5648 66.1956 21.2397 65.848C20.9115 65.5092 20.4913 65.2523 19.979 65.0775C19.4755 64.9057 18.9859 64.852 18.5103 64.9165C18.0435 64.984 17.6334 65.1596 17.2801 65.4434C16.9269 65.7272 16.6704 66.1031 16.5106 66.5713Z" fill="black"/>
<path d="M13.7411 72.4712L20.8805 74.0317L20.6593 75.0438L19.1595 74.759L19.127 74.5799C19.4171 74.7389 19.6609 74.9785 19.8584 75.2987C20.0559 75.6189 20.1923 75.9783 20.2676 76.3769C20.35 76.7867 20.3484 77.1876 20.2627 77.5796C20.1471 78.1085 19.9456 78.5278 19.6581 78.8376C19.3707 79.1473 18.9882 79.3455 18.5107 79.4322C18.0331 79.5189 17.457 79.4885 16.7823 79.3411L12.4466 78.3934L12.6738 77.3539L16.9548 78.2896C17.4289 78.3933 17.8304 78.4142 18.1592 78.3523C18.4951 78.3015 18.7639 78.1644 18.9656 77.941C19.1673 77.7176 19.3044 77.4179 19.377 77.0421C19.4448 76.7321 19.4529 76.4329 19.4012 76.1446C19.3587 75.8582 19.2672 75.5994 19.1267 75.3681C18.9862 75.1367 18.8094 74.9404 18.5962 74.7792C18.3831 74.618 18.1397 74.5074 17.8662 74.4477L13.5169 73.497L13.6275 72.9909C13.6414 72.9271 13.6574 72.8542 13.6753 72.7721C13.6933 72.69 13.7152 72.5897 13.7411 72.4712Z" fill="black"/>
<path d="M11.3968 84.8487C11.4738 84.1624 11.7049 83.5685 12.0899 83.0669C12.4842 82.5665 12.9819 82.1903 13.5831 81.9385C14.1925 81.6969 14.8589 81.6168 15.5824 81.698C16.3058 81.7792 16.9333 82.0046 17.4647 82.3742C18.0043 82.7541 18.4063 83.2313 18.6705 83.8056C18.9348 84.38 19.0279 85.0151 18.9498 85.7107C18.88 86.3321 18.6913 86.8838 18.3836 87.3659C18.0852 87.8489 17.7008 88.219 17.2305 88.4762L16.548 87.7797C16.7996 87.6295 17.0276 87.4391 17.232 87.2084C17.4353 86.987 17.5994 86.7378 17.7245 86.4607C17.8577 86.1939 17.94 85.9214 17.9712 85.6431C18.0264 85.1515 17.9506 84.6969 17.7439 84.2792C17.5465 83.8626 17.2521 83.5149 16.8608 83.2362C16.4684 82.9668 16.0032 82.8018 15.4652 82.7414C14.9273 82.6811 14.4325 82.7382 13.9809 82.9129C13.5374 83.098 13.1733 83.3717 12.8884 83.7342C12.6035 84.0967 12.434 84.5191 12.3799 85.0014C12.3487 85.2796 12.3597 85.5579 12.413 85.8363C12.4755 86.1157 12.5767 86.3853 12.7166 86.6452C12.8565 86.9051 13.0402 87.1511 13.2677 87.3833L12.4477 87.9111C12.0657 87.5489 11.7792 87.0894 11.5881 86.5326C11.397 85.9758 11.3333 85.4145 11.3968 84.8487Z" fill="black"/>
<path d="M10.9033 93.4877C10.9117 92.7598 11.0779 92.113 11.4018 91.5474C11.7256 90.9911 12.174 90.5576 12.747 90.2469C13.3199 89.9362 13.9751 89.7851 14.7123 89.7936C15.2816 89.8002 15.7939 89.8948 16.2492 90.0774C16.7137 90.2601 17.1169 90.5122 17.4585 90.8335C17.8 91.1641 18.0615 91.5545 18.243 92.0046C18.4338 92.4549 18.5262 92.9413 18.5201 93.4639C18.5144 93.9586 18.4205 94.4055 18.2386 94.8048C18.0565 95.2134 17.8051 95.5605 17.4844 95.8461C17.173 96.1412 16.8018 96.3609 16.3707 96.5053C15.9397 96.6496 15.4676 96.7095 14.9546 96.6849L14.4648 96.6652L14.5353 90.5756L15.419 90.4318L15.3559 95.8775L15.1209 95.6227L15.4568 95.6266C15.793 95.6118 16.1162 95.5176 16.4262 95.3438C16.7456 95.1702 17.0051 94.9212 17.2049 94.5968C17.4046 94.2818 17.507 93.9002 17.5122 93.4523C17.5182 92.9296 17.4161 92.4758 17.2059 92.0906C17.005 91.7056 16.7004 91.4081 16.2922 91.198C15.8839 90.9879 15.3765 90.8794 14.7699 90.8723C14.1912 90.8656 13.686 90.9718 13.2541 91.1908C12.8315 91.4099 12.5012 91.7235 12.2631 92.1314C12.0249 92.5487 11.9024 93.0513 11.8956 93.6392C11.8916 93.9846 11.9437 94.3258 12.0518 94.6631C12.1691 95.0098 12.398 95.3905 12.7386 95.8052L11.9763 96.3424C11.7642 96.1252 11.5758 95.8664 11.4113 95.5658C11.2561 95.2653 11.1292 94.9371 11.0307 94.5813C10.9414 94.2256 10.899 93.8611 10.9033 93.4877Z" fill="black"/>
</svg>
