<svg width="184" height="184" viewBox="0 0 184 184" fill="none" xmlns="http://www.w3.org/2000/svg">
<path d="M111.393 170.781L108.368 161.46L112.057 160.263C112.545 160.104 113.023 160.082 113.492 160.195C113.96 160.307 114.379 160.539 114.748 160.891C115.114 161.233 115.382 161.666 115.552 162.19C115.731 162.74 115.775 163.27 115.686 163.78C115.593 164.281 115.394 164.724 115.086 165.108C114.777 165.484 114.377 165.75 113.889 165.909L111.239 166.769L112.432 170.444L111.393 170.781ZM110.911 165.757L113.614 164.88C113.889 164.79 114.107 164.631 114.269 164.402C114.436 164.162 114.541 163.882 114.585 163.564C114.626 163.236 114.588 162.891 114.469 162.527C114.363 162.198 114.201 161.927 113.984 161.713C113.765 161.489 113.52 161.338 113.249 161.26C112.984 161.169 112.714 161.168 112.438 161.258L109.735 162.135L110.911 165.757Z" fill="black"/>
<path d="M119.957 167.774L115.957 158.217L116.925 157.812L120.925 167.369L119.957 167.774Z" fill="black"/>
<path d="M126.621 164.876C126.057 165.168 125.473 165.288 124.867 165.234C124.256 165.172 123.687 164.957 123.16 164.589C122.629 164.212 122.195 163.701 121.86 163.055C121.521 162.4 121.357 161.749 121.369 161.102C121.38 160.455 121.539 159.868 121.844 159.342C122.158 158.811 122.6 158.398 123.172 158.101C123.512 157.925 123.852 157.812 124.194 157.761C124.536 157.71 124.866 157.718 125.184 157.784C125.506 157.838 125.804 157.946 126.078 158.109C126.355 158.26 126.594 158.456 126.794 158.7L126.449 158.705L125.617 157.008L126.549 156.524L129.912 163.013L128.968 163.502L128.143 161.911L128.308 161.621C128.379 161.899 128.391 162.198 128.346 162.516C128.296 162.825 128.196 163.129 128.046 163.428C127.904 163.722 127.71 163.996 127.463 164.25C127.225 164.5 126.944 164.709 126.621 164.876ZM126.368 163.872C126.799 163.649 127.131 163.345 127.363 162.962C127.591 162.57 127.704 162.139 127.701 161.667C127.702 161.183 127.579 160.7 127.329 160.22C127.08 159.739 126.76 159.364 126.367 159.094C125.984 158.82 125.566 158.663 125.115 158.624C124.663 158.585 124.222 158.677 123.791 158.9C123.352 159.128 123.018 159.437 122.79 159.829C122.57 160.216 122.458 160.648 122.452 161.124C122.455 161.595 122.581 162.072 122.83 162.552C123.075 163.024 123.391 163.402 123.779 163.684C124.163 163.958 124.581 164.115 125.032 164.154C125.484 164.194 125.929 164.1 126.368 163.872Z" fill="black"/>
<path d="M133.265 160.937L128.255 153.19L129.137 152.62L134.146 160.367L133.265 160.937ZM128.456 156.544L127.909 155.698L131.73 153.227L132.277 154.073L128.456 156.544Z" fill="black"/>
<path d="M138.476 157.37L132.913 150.01L133.751 149.377L139.314 156.737L138.476 157.37ZM133.36 153.34L132.752 152.536L136.382 149.793L136.99 150.597L133.36 153.34Z" fill="black"/>
<path d="M145.263 151.969C144.722 152.457 144.135 152.774 143.499 152.92C142.871 153.06 142.248 153.025 141.631 152.815C141.014 152.605 140.459 152.227 139.964 151.68C139.583 151.257 139.305 150.817 139.13 150.358C138.949 149.893 138.86 149.426 138.864 148.957C138.875 148.482 138.984 148.025 139.192 147.586C139.393 147.14 139.687 146.742 140.075 146.392C140.442 146.061 140.834 145.826 141.251 145.689C141.674 145.545 142.1 145.494 142.527 145.536C142.955 145.564 143.369 145.688 143.767 145.906C144.166 146.125 144.53 146.431 144.861 146.824L145.179 147.197L140.659 151.279L139.953 150.728L143.995 147.077L143.968 147.423L143.742 147.174C143.503 146.937 143.215 146.763 142.877 146.654C142.533 146.537 142.174 146.515 141.8 146.589C141.433 146.656 141.083 146.84 140.751 147.14C140.363 147.491 140.099 147.874 139.959 148.289C139.812 148.698 139.801 149.124 139.923 149.566C140.046 150.009 140.311 150.455 140.718 150.905C141.105 151.335 141.526 151.634 141.98 151.802C142.428 151.964 142.882 151.993 143.344 151.891C143.812 151.783 144.264 151.532 144.7 151.138C144.957 150.906 145.172 150.636 145.346 150.328C145.521 150.007 145.645 149.58 145.719 149.049L146.631 149.244C146.615 149.547 146.553 149.861 146.444 150.186C146.329 150.504 146.174 150.82 145.979 151.133C145.779 151.44 145.54 151.719 145.263 151.969Z" fill="black"/>
<path d="M148.942 148.241L143.59 143.264L144.305 142.495L145.749 143.8L145.478 143.701C145.309 143.403 145.198 143.077 145.145 142.722C145.099 142.361 145.123 142.007 145.216 141.66C145.309 141.313 145.486 141 145.746 140.719C145.854 140.603 145.966 140.503 146.082 140.42C146.191 140.33 146.291 140.264 146.382 140.221L147.043 141.237C146.919 141.288 146.806 141.354 146.703 141.437C146.6 141.507 146.511 141.583 146.434 141.665C146.218 141.897 146.065 142.144 145.976 142.405C145.886 142.666 145.856 142.931 145.886 143.201C145.909 143.464 145.984 143.719 146.112 143.965C146.24 144.211 146.413 144.436 146.632 144.64L149.666 147.461L148.942 148.241Z" fill="black"/>
<path d="M156.18 139.791L148.131 134.201L148.753 133.304L156.803 138.894L156.18 139.791ZM152.904 136.851L152.018 136.236L154.845 132.165L155.731 132.78L152.904 136.851ZM149.316 134.36L148.442 133.753L151.644 129.142L152.518 129.748L149.316 134.36Z" fill="black"/>
<path d="M161.267 132.047L154.948 128.377L155.475 127.469L161.795 131.139L161.267 132.047ZM153.84 127.134C153.709 127.36 153.552 127.501 153.368 127.556C153.182 127.599 152.987 127.562 152.786 127.444C152.584 127.327 152.458 127.173 152.407 126.982C152.356 126.79 152.394 126.586 152.521 126.368C152.647 126.15 152.806 126.015 152.998 125.965C153.181 125.909 153.377 125.942 153.587 126.064C153.781 126.177 153.903 126.329 153.954 126.52C154.005 126.712 153.967 126.916 153.84 127.134Z" fill="black"/>
<path d="M163.332 128.46L156.735 125.315L157.181 124.38L158.576 124.998L158.567 125.18C158.321 124.959 158.138 124.671 158.019 124.314C157.899 123.957 157.848 123.576 157.866 123.171C157.879 122.753 157.972 122.363 158.144 122.001C158.377 121.512 158.669 121.15 159.019 120.914C159.37 120.677 159.787 120.571 160.272 120.596C160.757 120.62 161.311 120.781 161.934 121.078L165.94 122.988L165.483 123.948L161.527 122.062C161.089 121.854 160.703 121.742 160.368 121.727C160.03 121.7 159.737 121.773 159.49 121.944C159.242 122.116 159.041 122.376 158.884 122.726C158.748 123.012 158.672 123.302 158.656 123.594C158.633 123.883 158.663 124.156 158.747 124.413C158.831 124.67 158.959 124.902 159.13 125.107C159.3 125.313 159.512 125.476 159.765 125.596L163.784 127.512L163.561 127.979C163.533 128.038 163.501 128.106 163.464 128.182C163.428 128.257 163.384 128.35 163.332 128.46Z" fill="black"/>
<path d="M168.366 117.059C168.161 117.66 167.821 118.15 167.346 118.531C166.862 118.908 166.303 119.146 165.667 119.245C165.023 119.341 164.357 119.271 163.668 119.036C162.97 118.798 162.401 118.441 161.962 117.965C161.523 117.49 161.231 116.957 161.088 116.365C160.948 115.765 160.982 115.16 161.19 114.551C161.313 114.189 161.481 113.871 161.692 113.598C161.904 113.325 162.147 113.103 162.423 112.931C162.693 112.747 162.983 112.619 163.294 112.547C163.598 112.464 163.907 112.441 164.219 112.478L163.974 112.72L162.199 112.07L162.538 111.076L169.454 113.437L169.111 114.444L167.415 113.865L167.333 113.541C167.577 113.693 167.792 113.9 167.979 114.161C168.158 114.419 168.296 114.708 168.394 115.027C168.495 115.338 168.544 115.67 168.542 116.025C168.542 116.37 168.484 116.715 168.366 117.059ZM167.489 116.509C167.646 116.049 167.675 115.601 167.578 115.163C167.472 114.723 167.255 114.333 166.927 113.994C166.593 113.644 166.17 113.381 165.657 113.206C165.145 113.031 164.654 112.982 164.184 113.058C163.717 113.126 163.307 113.301 162.954 113.585C162.601 113.869 162.346 114.24 162.189 114.7C162.029 115.168 162.002 115.622 162.108 116.063C162.218 116.495 162.435 116.884 162.76 117.232C163.088 117.571 163.508 117.827 164.021 118.002C164.524 118.174 165.014 118.228 165.489 118.163C165.956 118.096 166.366 117.92 166.719 117.636C167.073 117.353 167.329 116.977 167.489 116.509Z" fill="black"/>
<path d="M170.259 110.609L163.12 109.048L163.341 108.036L164.841 108.321L164.873 108.5C164.583 108.341 164.339 108.101 164.142 107.781C163.944 107.461 163.808 107.101 163.733 106.703C163.65 106.293 163.652 105.892 163.738 105.5C163.853 104.971 164.055 104.552 164.342 104.242C164.63 103.933 165.012 103.734 165.49 103.648C165.967 103.561 166.543 103.591 167.218 103.739L171.554 104.686L171.326 105.726L167.046 104.79C166.571 104.687 166.17 104.666 165.841 104.728C165.505 104.778 165.236 104.915 165.035 105.139C164.833 105.362 164.696 105.662 164.623 106.038C164.556 106.348 164.547 106.647 164.599 106.935C164.642 107.222 164.733 107.48 164.874 107.712C165.014 107.943 165.191 108.139 165.404 108.301C165.617 108.462 165.861 108.572 166.134 108.632L170.483 109.583L170.373 110.089C170.359 110.153 170.343 110.226 170.325 110.308C170.307 110.39 170.285 110.49 170.259 110.609Z" fill="black"/>
<path d="M172.603 98.2312C172.526 98.9176 172.295 99.5115 171.91 100.013C171.516 100.513 171.018 100.89 170.417 101.141C169.808 101.383 169.141 101.463 168.418 101.382C167.694 101.301 167.067 101.075 166.536 100.706C165.996 100.326 165.594 99.8487 165.33 99.2743C165.065 98.6999 164.972 98.0649 165.05 97.3693C165.12 96.7478 165.309 96.1961 165.617 95.7141C165.915 95.231 166.299 94.8609 166.77 94.6038L167.452 95.3003C167.201 95.4505 166.973 95.6409 166.768 95.8715C166.565 96.0929 166.401 96.3422 166.276 96.6193C166.143 96.8861 166.06 97.1586 166.029 97.4369C165.974 97.9284 166.05 98.3831 166.256 98.8007C166.454 99.2173 166.748 99.565 167.139 99.8437C167.532 100.113 167.997 100.278 168.535 100.339C169.073 100.399 169.568 100.342 170.019 100.167C170.463 99.982 170.827 99.7082 171.112 99.3458C171.397 98.9833 171.566 98.5609 171.62 98.0786C171.652 97.8003 171.641 97.522 171.587 97.2437C171.525 96.9643 171.424 96.6947 171.284 96.4348C171.144 96.1749 170.96 95.9288 170.733 95.6967L171.553 95.1689C171.935 95.5311 172.221 95.9906 172.412 96.5474C172.603 97.1041 172.667 97.6654 172.603 98.2312Z" fill="black"/>
<path d="M173.096 89.5921C173.088 90.32 172.922 90.9668 172.598 91.5324C172.274 92.0887 171.826 92.5222 171.253 92.833C170.68 93.1437 170.025 93.2948 169.287 93.2862C168.718 93.2796 168.206 93.185 167.751 93.0024C167.286 92.8197 166.883 92.5677 166.541 92.2464C166.2 91.9157 165.938 91.5253 165.757 91.0752C165.566 90.625 165.474 90.1385 165.48 89.6159C165.485 89.1213 165.579 88.6743 165.761 88.2751C165.943 87.8665 166.195 87.5194 166.515 87.2337C166.827 86.9386 167.198 86.7189 167.629 86.5746C168.06 86.4302 168.532 86.3703 169.045 86.395L169.535 86.4146L169.464 92.5042L168.581 92.648L168.644 87.2024L168.879 87.4571L168.543 87.4532C168.207 87.468 167.884 87.5623 167.574 87.736C167.254 87.9097 166.995 88.1587 166.795 88.483C166.595 88.7981 166.493 89.1796 166.488 89.6276C166.482 90.1502 166.584 90.6041 166.794 90.9892C166.995 91.3742 167.299 91.6718 167.708 91.8818C168.116 92.0919 168.623 92.2005 169.23 92.2075C169.809 92.2142 170.314 92.108 170.746 91.889C171.168 91.6699 171.499 91.3564 171.737 90.9484C171.975 90.5312 172.097 90.0285 172.104 89.4406C172.108 89.0953 172.056 88.754 171.948 88.4167C171.831 88.07 171.602 87.6893 171.261 87.2747L172.023 86.7375C172.236 86.9546 172.424 87.2135 172.588 87.5141C172.744 87.8145 172.871 88.1427 172.969 88.4985C173.058 88.8543 173.101 89.2188 173.096 89.5921Z" fill="black"/>
<path fill-rule="evenodd" clip-rule="evenodd" d="M79.9656 104.035C79.5784 103.647 79.5784 103.02 79.9656 102.632L102.632 79.9657C103.02 79.5784 103.647 79.5784 104.035 79.9657C104.422 80.3529 104.422 80.9808 104.035 81.3681L81.3681 104.035C80.9808 104.422 80.3529 104.422 79.9656 104.035Z" fill="url(#paint0_linear_45_1114)"/>
<path fill-rule="evenodd" clip-rule="evenodd" d="M104.325 103.334C104.325 103.881 103.881 104.325 103.334 104.325L80.6669 104.325C80.1192 104.325 79.6752 103.881 79.6752 103.334L79.6752 80.6669C79.6752 80.1192 80.1192 79.6752 80.6669 79.6752C81.2145 79.6752 81.6585 80.1192 81.6585 80.6669L81.6585 102.342L103.334 102.342C103.881 102.342 104.325 102.786 104.325 103.334Z" fill="url(#paint1_linear_45_1114)"/>
<path opacity="0.8" d="M92 0.499997C142.534 0.500003 183.5 41.466 183.5 92C183.5 142.534 142.534 183.5 92 183.5C41.4659 183.5 0.500005 142.534 0.500012 92C0.500019 41.4659 41.466 0.49999 92 0.499997Z" stroke="url(#paint2_linear_45_1114)"/>
<g opacity="0.8">
<path d="M72.6067 12.2988L75.6318 21.6202L71.9432 22.8173C71.455 22.9757 70.9766 22.9985 70.5082 22.8856C70.0398 22.7726 69.6211 22.5406 69.252 22.1894C68.8857 21.847 68.6176 21.414 68.4476 20.8902C68.269 20.3398 68.2245 19.8096 68.3142 19.2997C68.4067 18.7987 68.6065 18.3561 68.9135 17.9719C69.2235 17.5965 69.6226 17.3296 70.1108 17.1712L72.7608 16.3112L71.568 12.6359L72.6067 12.2988ZM73.0892 17.3232L70.386 18.2005C70.1108 18.2898 69.8926 18.4489 69.7314 18.6779C69.5642 18.9186 69.4587 19.1981 69.4148 19.5166C69.3739 19.8438 69.4124 20.1895 69.5306 20.5535C69.6372 20.8819 69.7988 21.1533 70.0155 21.3675C70.2351 21.5906 70.4804 21.7416 70.7513 21.8205C71.0162 21.9112 71.2863 21.9118 71.5615 21.8225L74.2647 20.9452L73.0892 17.3232Z" fill="black"/>
<path d="M64.0433 15.3061L68.0433 24.8627L67.0748 25.2681L63.0747 15.7115L64.0433 15.3061Z" fill="black"/>
<path d="M57.3792 18.2042C57.9426 17.9121 58.5274 17.793 59.1335 17.8468C59.7439 17.9088 60.3126 18.1239 60.8398 18.4919C61.3713 18.8682 61.8045 19.3795 62.1395 20.0258C62.4789 20.6805 62.6428 21.3314 62.6314 21.9786C62.6199 22.6258 62.4615 23.2125 62.1561 23.7388C61.8424 24.2693 61.3996 24.6828 60.8279 24.9791C60.4882 25.1552 60.1475 25.2687 59.8059 25.3196C59.4644 25.3705 59.1345 25.3628 58.8163 25.2965C58.494 25.2427 58.1961 25.1344 57.9224 24.9714C57.6447 24.821 57.4059 24.6241 57.2062 24.3807L57.5505 24.3757L58.383 26.073L57.4508 26.5562L54.0877 20.068L55.0323 19.5784L55.857 21.1694L55.6921 21.4598C55.6213 21.1811 55.6086 20.8829 55.6541 20.5649C55.7038 20.2553 55.8037 19.9512 55.9538 19.6526C56.0957 19.3583 56.29 19.0842 56.5367 18.8301C56.7752 18.5803 57.056 18.3717 57.3792 18.2042ZM57.6318 19.2086C57.2009 19.432 56.8693 19.7353 56.6369 20.1186C56.4088 20.5101 56.2961 20.9417 56.2988 21.4134C56.2976 21.8976 56.4215 22.3801 56.6706 22.8607C56.9197 23.3413 57.2403 23.7165 57.6325 23.9863C58.0164 24.2604 58.434 24.4171 58.8854 24.4564C59.3368 24.4958 59.778 24.4038 60.2089 24.1804C60.648 23.9528 60.9817 23.6432 61.2097 23.2516C61.4295 22.8644 61.5422 22.4328 61.5478 21.9568C61.5451 21.4851 61.4192 21.009 61.17 20.5284C60.9252 20.0561 60.6087 19.6787 60.2206 19.3963C59.8367 19.1222 59.4191 18.9655 58.9676 18.9262C58.5162 18.8868 58.0709 18.981 57.6318 19.2086Z" fill="black"/>
<path d="M50.7354 22.1427L55.7451 29.8901L54.8634 30.4603L49.8537 22.7129L50.7354 22.1427ZM55.5435 26.536L56.0909 27.3825L52.2701 29.8531L51.7227 29.0067L55.5435 26.536Z" fill="black"/>
<path d="M45.5241 25.7098L51.0865 33.0704L50.2488 33.7035L44.6864 26.3429L45.5241 25.7098ZM50.6404 29.74L51.2481 30.5442L47.6181 33.2874L47.0103 32.4832L50.6404 29.74Z" fill="black"/>
<path d="M38.7373 31.1108C39.2776 30.6229 39.8654 30.3059 40.5006 30.1598C41.1289 30.02 41.7516 30.055 42.3686 30.2648C42.9857 30.4747 43.5414 30.8532 44.0356 31.4004C44.4172 31.8229 44.6954 32.2633 44.8703 32.7216C45.0515 33.1868 45.14 33.6539 45.136 34.1229C45.125 34.5981 45.0158 35.0551 44.8085 35.4939C44.6073 35.9396 44.3128 36.3376 43.9249 36.688C43.5578 37.0195 43.1659 37.254 42.7492 37.3913C42.3256 37.535 41.9 37.586 41.4726 37.5444C41.0445 37.516 40.6312 37.3925 40.2326 37.174C39.834 36.9554 39.4697 36.6494 39.1395 36.256L38.8214 35.8829L43.3411 31.8012L44.0466 32.3526L40.0048 36.0026L40.0323 35.6571L40.2575 35.9065C40.4966 36.1433 40.7851 36.3166 41.1232 36.4263C41.4674 36.543 41.8265 36.5646 42.2003 36.4911C42.5672 36.4239 42.9169 36.2401 43.2493 35.9399C43.6372 35.5896 43.9012 35.2065 44.0414 34.7907C44.1877 34.3819 44.1995 33.9562 44.0766 33.5138C43.9538 33.0714 43.6891 32.6251 43.2824 32.1749C42.8946 31.7454 42.4737 31.4464 42.0197 31.2779C41.572 31.1164 41.1175 31.0866 40.6563 31.1887C40.1882 31.297 39.736 31.5482 39.2996 31.9423C39.0433 32.1738 38.828 32.4437 38.6537 32.752C38.4788 33.0735 38.3546 33.5 38.2813 34.0315L37.3694 33.8364C37.3848 33.5332 37.4471 33.2192 37.5561 32.8944C37.6715 32.5764 37.8263 32.2605 38.0207 31.9466C38.2214 31.6396 38.4602 31.361 38.7373 31.1108Z" fill="black"/>
<path d="M35.0582 34.8394L40.4101 39.8158L39.6951 40.5848L38.2509 39.2801L38.522 39.3792C38.6913 39.6769 38.8022 40.003 38.8547 40.3578C38.9009 40.7193 38.8774 41.0735 38.7844 41.4203C38.6913 41.767 38.5145 42.0806 38.2539 42.3608C38.1459 42.477 38.0339 42.5768 37.9181 42.6603C37.8091 42.7501 37.7091 42.8165 37.6182 42.8594L36.9572 41.8433C37.0809 41.7926 37.194 41.7257 37.2966 41.6427C37.3998 41.5729 37.4895 41.497 37.5657 41.415C37.7818 41.1826 37.9347 40.936 38.0242 40.6752C38.1138 40.4144 38.1438 40.1492 38.1142 39.8795C38.0914 39.6161 38.0161 39.3613 37.8883 39.115C37.7605 38.8687 37.5872 38.6439 37.3685 38.4405L34.3337 35.6186L35.0582 34.8394Z" fill="black"/>
<path d="M27.8198 43.2891L35.8694 48.8788L35.2466 49.7757L27.197 44.1861L27.8198 43.2891ZM31.0962 46.229L31.9817 46.8438L29.1549 50.9146L28.2694 50.2998L31.0962 46.229ZM34.684 48.7204L35.558 49.3272L32.3559 53.9385L31.4819 53.3316L34.684 48.7204Z" fill="black"/>
<path d="M22.7327 51.0334L29.052 54.704L28.5247 55.6119L22.2053 51.9413L22.7327 51.0334ZM30.1598 55.9465C30.2911 55.7205 30.4484 55.5798 30.6317 55.5244C30.8184 55.4817 31.0126 55.5189 31.2144 55.6361C31.4161 55.7533 31.5424 55.9076 31.5931 56.099C31.6439 56.2904 31.606 56.495 31.4794 56.7129C31.3528 56.9308 31.1938 57.0652 31.0025 57.1159C30.8192 57.1713 30.6226 57.1381 30.4127 57.0162C30.2191 56.9037 30.0968 56.7518 30.0461 56.5604C29.9953 56.369 30.0333 56.1644 30.1598 55.9465Z" fill="black"/>
<path d="M20.6682 54.6209L27.2649 57.7657L26.8191 58.7008L25.4236 58.0821L25.4327 57.9003C25.679 58.1211 25.8618 58.4099 25.9813 58.7667C26.1007 59.1235 26.1517 59.5045 26.1343 59.9098C26.1212 60.3275 26.0284 60.7175 25.8557 61.0798C25.6227 61.5684 25.3311 61.9308 24.9806 62.167C24.6302 62.4032 24.2127 62.5092 23.7279 62.4849C23.2432 62.4606 22.6891 62.2999 22.0657 62.0027L18.0596 60.0929L18.5175 59.1325L22.473 61.0181C22.9111 61.227 23.2973 61.3387 23.6315 61.3533C23.9702 61.3803 24.2631 61.308 24.5104 61.1364C24.7577 60.9647 24.9594 60.7042 25.1156 60.3548C25.2522 60.0683 25.3282 59.7788 25.3435 59.4863C25.3673 59.1978 25.3371 58.9249 25.253 58.6677C25.1688 58.4104 25.0413 58.179 24.8705 57.9735C24.6996 57.768 24.4878 57.605 24.2351 57.4845L20.2163 55.5687L20.4392 55.1011C20.4674 55.0422 20.4995 54.9748 20.5356 54.8989C20.5718 54.8231 20.616 54.7304 20.6682 54.6209Z" fill="black"/>
<path d="M15.634 66.0207C15.839 65.4201 16.179 64.9296 16.6539 64.5493C17.1377 64.172 17.6973 63.934 18.3325 63.8352C18.9767 63.7394 19.6432 63.8091 20.3322 64.0443C21.03 64.2824 21.5986 64.6392 22.0379 65.1146C22.4772 65.59 22.7686 66.1233 22.9119 66.7146C23.0523 67.3148 23.0184 67.9196 22.8104 68.5291C22.6868 68.8913 22.5193 69.2088 22.3078 69.4818C22.0963 69.7548 21.8526 69.9774 21.5769 70.1496C21.307 70.3336 21.0169 70.4614 20.7064 70.5329C20.4018 70.6164 20.0932 70.6392 19.7806 70.6016L20.0259 70.3598L21.801 71.0101L21.4619 72.0038L14.5456 69.6433L14.8892 68.6364L16.5852 69.2152L16.667 69.5389C16.4231 69.3867 16.2076 69.18 16.0206 68.9189C15.8424 68.6609 15.7043 68.3721 15.6062 68.0526C15.5051 67.742 15.4558 67.4096 15.4584 67.0554C15.4579 66.7101 15.5164 66.3652 15.634 66.0207ZM16.5111 66.5715C16.3543 67.0309 16.3246 67.4793 16.4218 67.9168C16.5278 68.3573 16.745 68.747 17.0731 69.0858C17.4071 69.4365 17.8302 69.6992 18.3425 69.8741C18.8549 70.0489 19.3459 70.0982 19.8158 70.0219C20.2826 69.9544 20.6926 69.7787 21.0459 69.4949C21.3992 69.2112 21.6542 68.8396 21.8109 68.3803C21.9707 67.9122 21.9976 67.4578 21.8915 67.0173C21.7824 66.5856 21.5653 66.1959 21.2402 65.8482C20.912 65.5094 20.4918 65.2526 19.9795 65.0777C19.476 64.9059 18.9864 64.8522 18.5108 64.9167C18.0439 64.9842 17.6339 65.1599 17.2806 65.4436C16.9274 65.7274 16.6709 66.1034 16.5111 66.5715Z" fill="black"/>
<path d="M13.7408 72.4714L20.8802 74.032L20.659 75.0441L19.1592 74.7593L19.1267 74.5802C19.4168 74.7391 19.6606 74.9787 19.8581 75.2989C20.0556 75.6192 20.192 75.9786 20.2673 76.3772C20.3497 76.7869 20.3481 77.1878 20.2624 77.5799C20.1468 78.1087 19.9452 78.528 19.6578 78.8378C19.3704 79.1476 18.9879 79.3458 18.5103 79.4325C18.0328 79.5192 17.4567 79.4888 16.782 79.3413L12.4463 78.3936L12.6735 77.3542L16.9545 78.2899C17.4286 78.3935 17.8301 78.4144 18.1589 78.3525C18.4948 78.3017 18.7636 78.1647 18.9653 77.9412C19.167 77.7178 19.3041 77.4182 19.3767 77.0424C19.4445 76.7323 19.4526 76.4332 19.4009 76.1448C19.3584 75.8585 19.2669 75.5996 19.1264 75.3683C18.9859 75.137 18.8091 74.9407 18.5959 74.7794C18.3828 74.6182 18.1394 74.5077 17.8659 74.4479L13.5166 73.4972L13.6272 72.9912C13.6411 72.9273 13.6571 72.8544 13.675 72.7723C13.693 72.6903 13.7149 72.59 13.7408 72.4714Z" fill="black"/>
<path d="M11.3965 84.8489C11.4736 84.1625 11.7046 83.5686 12.0896 83.0671C12.4839 82.5666 12.9816 82.1904 13.5828 81.9386C14.1922 81.6971 14.8587 81.6169 15.5821 81.6981C16.3056 81.7793 16.933 82.0047 17.4644 82.3743C18.0041 82.7542 18.4061 83.2314 18.6703 83.8058C18.9345 84.3802 19.0276 85.0152 18.9495 85.7108C18.8798 86.3322 18.691 86.884 18.3833 87.366C18.0849 87.849 17.7006 88.2191 17.2303 88.4763L16.5477 87.7798C16.7994 87.6296 17.0274 87.4392 17.2317 87.2085C17.435 86.9872 17.5992 86.7379 17.7242 86.4608C17.8575 86.194 17.9397 85.9215 17.971 85.6432C18.0261 85.1516 17.9504 84.697 17.7437 84.2794C17.5463 83.8627 17.2519 83.5151 16.8605 83.2363C16.4681 82.9669 16.003 82.802 15.465 82.7416C14.927 82.6812 14.4322 82.7383 13.9806 82.913C13.5372 83.0981 13.1731 83.3718 12.8882 83.7343C12.6033 84.0968 12.4338 84.5192 12.3796 85.0015C12.3484 85.2797 12.3594 85.558 12.4127 85.8364C12.4753 86.1158 12.5765 86.3854 12.7164 86.6453C12.8563 86.9052 13.04 87.1512 13.2675 87.3834L12.4475 87.9112C12.0655 87.549 11.779 87.0895 11.5879 86.5327C11.3968 85.9759 11.333 85.4146 11.3965 84.8489Z" fill="black"/>
<path d="M10.9036 93.488C10.912 92.76 11.0782 92.1133 11.4021 91.5476C11.7259 90.9913 12.1742 90.5578 12.7472 90.2471C13.3202 89.9364 13.9753 89.7853 14.7126 89.7939C15.2819 89.8004 15.7942 89.895 16.2494 90.0777C16.714 90.2604 17.1171 90.5124 17.4587 90.8337C17.8003 91.1644 18.0618 91.5548 18.2432 92.0049C18.434 92.4551 18.5264 92.9416 18.5203 93.4642C18.5146 93.9588 18.4208 94.4058 18.2388 94.805C18.0567 95.2136 17.8053 95.5607 17.4847 95.8464C17.1732 96.1414 16.802 96.3612 16.371 96.5055C15.9399 96.6499 15.4679 96.7097 14.9548 96.6851L14.465 96.6654L14.5355 90.5759L15.4192 90.4321L15.3562 95.8777L15.1211 95.623L15.4571 95.6269C15.7933 95.6121 16.1164 95.5178 16.4264 95.3441C16.7458 95.1704 17.0054 94.9214 17.2051 94.597C17.4048 94.282 17.5072 93.9005 17.5124 93.4525C17.5185 92.9299 17.4164 92.476 17.2062 92.0909C17.0053 91.7059 16.7007 91.4083 16.2924 91.1982C15.8842 90.9882 15.3767 90.8796 14.7701 90.8726C14.1915 90.8659 13.6862 90.972 13.2543 91.1911C12.8317 91.4102 12.5014 91.7237 12.2634 92.1316C12.0252 92.5489 11.9027 93.0515 11.8959 93.6395C11.8919 93.9848 11.9439 94.3261 12.052 94.6634C12.1693 95.0101 12.3983 95.3908 12.7388 95.8054L11.9766 96.3426C11.7644 96.1255 11.5761 95.8666 11.4115 95.566C11.2563 95.2655 11.1295 94.9374 11.0309 94.5815C10.9417 94.2258 10.8992 93.8613 10.9036 93.488Z" fill="black"/>
</g>
<defs>
<linearGradient id="paint0_linear_45_1114" x1="104.325" y1="98.2708" x2="75.8909" y2="93.4339" gradientUnits="userSpaceOnUse">
<stop stop-color="#3ECDFA"/>
<stop offset="1" stop-color="#52FA81"/>
</linearGradient>
<linearGradient id="paint1_linear_45_1114" x1="104.325" y1="98.2708" x2="75.8909" y2="93.4339" gradientUnits="userSpaceOnUse">
<stop stop-color="#3ECDFA"/>
<stop offset="1" stop-color="#52FA81"/>
</linearGradient>
<linearGradient id="paint2_linear_45_1114" x1="45.193" y1="184" x2="81.2984" y2="-28.2477" gradientUnits="userSpaceOnUse">
<stop stop-color="#3ECDFA"/>
<stop offset="1" stop-color="#52FA81"/>
</linearGradient>
</defs>
</svg>
