<svg width="48" height="48" viewBox="0 0 48 48" fill="none" xmlns="http://www.w3.org/2000/svg">
<path d="M24 42C33.9411 42 42 33.9411 42 24C42 14.0589 33.9411 6 24 6C14.0589 6 6 14.0589 6 24C6 33.9411 14.0589 42 24 42Z" fill="#FF4500"/>
<path d="M35.9738 24.1718C35.9738 22.7127 34.7938 21.5538 33.3558 21.5538C32.6765 21.5529 32.0231 21.8143 31.5319 22.2835C29.7294 20.9958 27.2614 20.1591 24.5147 20.0518L25.7162 14.4295L29.6218 15.2662C29.665 16.2534 30.4802 17.0475 31.489 17.0475C32.519 17.0475 33.3558 16.2108 33.3558 15.1803C33.3558 14.1503 32.5191 13.3135 31.489 13.3135C30.7595 13.3135 30.1154 13.7427 29.815 14.3651L25.459 13.4423C25.3302 13.4206 25.2014 13.4423 25.1155 13.5067C25.0082 13.5711 24.9439 13.6783 24.9227 13.8071L23.5918 20.073C20.8022 20.1591 18.2914 20.9958 16.4675 22.305C15.9762 21.8358 15.3227 21.5745 14.6434 21.5755C13.1841 21.5755 12.0254 22.7555 12.0254 24.1935C12.0254 25.2663 12.669 26.1674 13.5706 26.5755C13.5268 26.8379 13.5053 27.1035 13.5062 27.3695C13.5062 31.4035 18.2059 34.6871 23.9998 34.6871C29.7938 34.6871 34.4935 31.4251 34.4935 27.3695C34.4933 27.1036 34.4718 26.838 34.4291 26.5755C35.3302 26.1674 35.9738 25.2447 35.9738 24.1718V24.1718ZM17.991 26.0386C17.991 25.0087 18.8277 24.1718 19.8582 24.1718C20.8881 24.1718 21.725 25.0086 21.725 26.0386C21.725 27.0687 20.8883 27.9059 19.8582 27.9059C18.8278 27.9269 17.991 27.0687 17.991 26.0386ZM28.4418 30.9958C27.1543 32.2835 24.7078 32.3694 23.9998 32.3694C23.2702 32.3694 20.8239 32.2619 19.5574 30.9958C19.3646 30.8027 19.3646 30.5022 19.5574 30.3091C19.7506 30.1163 20.051 30.1163 20.2442 30.3091C21.0598 31.1248 22.7766 31.4035 23.9998 31.4035C25.223 31.4035 26.961 31.1246 27.755 30.3091C27.9482 30.1163 28.2486 30.1163 28.4418 30.3091C28.6134 30.5022 28.6134 30.8027 28.4418 30.9958ZM28.0983 27.9271C27.0682 27.9271 26.2315 27.0904 26.2315 26.0603C26.2315 25.0302 27.0682 24.1935 28.0983 24.1935C29.1286 24.1935 29.9653 25.0302 29.9653 26.0603C29.9653 27.0686 29.1286 27.9271 28.0983 27.9271Z" fill="white"/>
</svg>
