<svg width="79" height="79" viewBox="0 0 79 79" fill="none" xmlns="http://www.w3.org/2000/svg">
<path d="M39.5 69.125C55.8614 69.125 69.125 55.8614 69.125 39.5C69.125 23.1386 55.8614 9.875 39.5 9.875C23.1386 9.875 9.875 23.1386 9.875 39.5C9.875 55.8614 23.1386 69.125 39.5 69.125Z" fill="#CCCCCC"/>
<path d="M59.2074 39.7823C59.2074 37.3809 57.2653 35.4735 54.8986 35.4735C53.7806 35.472 52.7051 35.9022 51.8967 36.6745C48.93 34.5551 44.8682 33.178 40.3476 33.0015L42.3251 23.748L48.753 25.1251C48.824 26.7499 50.1657 28.0569 51.8261 28.0569C53.5212 28.0569 54.8986 26.6798 54.8986 24.9837C54.8986 23.2886 53.5215 21.9113 51.8261 21.9113C50.6254 21.9113 49.5654 22.6177 49.071 23.642L41.9017 22.1233C41.6897 22.0876 41.4777 22.1233 41.3363 22.2293C41.1597 22.3353 41.054 22.5117 41.019 22.7237L38.8286 33.0364C34.2374 33.178 30.105 34.5551 27.1031 36.7099C26.2946 35.9377 25.2191 35.5075 24.1011 35.5092C21.6993 35.5092 19.7922 37.4512 19.7922 39.818C19.7922 41.5837 20.8516 43.0668 22.3354 43.7384C22.2633 44.1703 22.2278 44.6074 22.2294 45.0452C22.2294 51.6844 29.9643 57.0887 39.5 57.0887C49.036 57.0887 56.771 51.7201 56.771 45.0452C56.7707 44.6075 56.7352 44.1705 56.6649 43.7384C58.148 43.0668 59.2074 41.548 59.2074 39.7823V39.7823ZM29.6106 42.8548C29.6106 41.1597 30.9877 39.7823 32.6837 39.7823C34.3788 39.7823 35.7562 41.1594 35.7562 42.8548C35.7562 44.5501 34.3791 45.9279 32.6837 45.9279C30.9879 45.9626 29.6106 44.5501 29.6106 42.8548ZM46.8109 51.0135C44.6918 53.1328 40.6654 53.2742 39.5 53.2742C38.2993 53.2742 34.2731 53.0972 32.1887 51.0135C31.8714 50.6957 31.8714 50.2011 32.1887 49.8833C32.5067 49.566 33.0011 49.566 33.3191 49.8833C34.6614 51.2257 37.4869 51.6844 39.5 51.6844C41.5134 51.6844 44.3738 51.2255 45.6806 49.8833C45.9986 49.566 46.4929 49.566 46.8109 49.8833C47.0933 50.2011 47.0933 50.6957 46.8109 51.0135ZM46.2455 45.9629C44.5502 45.9629 43.1731 44.5858 43.1731 42.8904C43.1731 41.1951 44.5502 39.818 46.2455 39.818C47.9413 39.818 49.3184 41.1951 49.3184 42.8904C49.3184 44.5499 47.9413 45.9629 46.2455 45.9629Z" fill="white"/>
</svg>
