<svg width="48" height="48" viewBox="0 0 48 48" fill="none" xmlns="http://www.w3.org/2000/svg">
<path d="M24 6C19.2272 6 14.6456 7.89759 11.2734 11.272C7.89777 14.6478 6.00094 19.226 6 24C6 28.772 7.89844 33.3535 11.2734 36.728C14.6456 40.1024 19.2272 42 24 42C28.7728 42 33.3544 40.1024 36.7266 36.728C40.1016 33.3535 42 28.772 42 24C42 19.228 40.1016 14.6465 36.7266 11.272C33.3544 7.89759 28.7728 6 24 6Z" fill="url(#paint0_linear_45_588)"/>
<path d="M14.1478 23.8101C19.3959 21.5241 22.8946 20.0168 24.644 19.2887C29.6446 17.2094 30.6825 16.8483 31.3603 16.836C31.5093 16.8337 31.8412 16.8705 32.0578 17.0456C32.2378 17.1932 32.2884 17.3929 32.3137 17.5331C32.3362 17.6732 32.3671 17.9924 32.3418 18.2416C32.0718 21.0878 30.899 27.9948 30.3028 31.1827C30.0525 32.5316 29.5546 32.9839 29.0737 33.028C28.0275 33.1242 27.2343 32.3373 26.2218 31.6738C24.6384 30.6352 23.744 29.9888 22.2056 28.9755C20.4281 27.8044 21.5812 27.1606 22.5937 26.1087C22.8581 25.8334 27.465 21.6442 27.5521 21.2642C27.5634 21.2167 27.5746 21.0395 27.4678 20.9461C27.3637 20.8524 27.209 20.8845 27.0965 20.9098C26.9362 20.9458 24.4078 22.6187 19.5028 25.9282C18.7856 26.4215 18.1359 26.6619 17.5509 26.6493C16.9096 26.6355 15.6721 26.2859 14.7525 25.9872C13.6275 25.6207 12.7303 25.427 12.809 24.8046C12.8484 24.4806 13.2956 24.149 14.1478 23.8101V23.8101Z" fill="white"/>
<defs>
<linearGradient id="paint0_linear_45_588" x1="24" y1="6" x2="24" y2="42" gradientUnits="userSpaceOnUse">
<stop stop-color="#2AABEE"/>
<stop offset="1" stop-color="#229ED9"/>
</linearGradient>
</defs>
</svg>
