<svg width="79" height="79" viewBox="0 0 79 79" fill="none" xmlns="http://www.w3.org/2000/svg">
<path d="M39.5 9.875C31.6447 9.875 24.1043 12.9981 18.5542 18.5519C12.9984 24.1079 9.87654 31.6428 9.875 39.5C9.875 47.3539 12.9995 54.8944 18.5542 60.4481C24.1043 66.0019 31.6447 69.125 39.5 69.125C47.3553 69.125 54.8957 66.0019 60.4458 60.4481C66.0005 54.8944 69.125 47.3539 69.125 39.5C69.125 31.6461 66.0005 24.1056 60.4458 18.5519C54.8957 12.9981 47.3553 9.875 39.5 9.875Z" fill="#CCCCCC"/>
<path d="M23.2848 39.1871C31.9223 35.4247 37.6807 32.9441 40.5599 31.7457C48.79 28.3235 50.4981 27.7292 51.6137 27.709C51.859 27.7051 52.4052 27.7657 52.7616 28.0539C53.0579 28.2969 53.1412 28.6256 53.1829 28.8563C53.2199 29.0868 53.2708 29.6122 53.2292 30.0223C52.7848 34.7068 50.8545 46.0745 49.8732 51.3213C49.4612 53.5413 48.6419 54.2857 47.8504 54.3583C46.1284 54.5167 44.8231 53.2215 43.1567 52.1295C40.5506 50.4201 39.0786 49.3564 36.5466 47.6886C33.6211 45.7611 35.519 44.7015 37.1854 42.9703C37.6205 42.5171 45.2026 35.6224 45.3461 34.997C45.3647 34.9188 45.3832 34.6272 45.2073 34.4735C45.036 34.3193 44.7814 34.3721 44.5963 34.4138C44.3324 34.473 40.171 37.2263 32.0982 42.6731C30.9178 43.485 29.8486 43.8808 28.8857 43.86C27.8304 43.8373 25.7936 43.2619 24.28 42.7703C22.4284 42.1672 20.9518 41.8483 21.0814 40.8239C21.1462 40.2906 21.8822 39.7449 23.2848 39.1871V39.1871Z" fill="white"/>
</svg>
