<svg width="34" height="34" viewBox="0 0 34 34" fill="none" xmlns="http://www.w3.org/2000/svg">
<path fill-rule="evenodd" clip-rule="evenodd" d="M4.96565 29.0347C4.57838 28.6475 4.57838 28.0196 4.96565 27.6323L27.6323 4.96565C28.0196 4.57838 28.6475 4.57838 29.0347 4.96565C29.422 5.35292 29.422 5.98081 29.0347 6.36808L6.36807 29.0347C5.9808 29.422 5.35292 29.422 4.96565 29.0347Z" fill="url(#paint0_linear_45_665)"/>
<path fill-rule="evenodd" clip-rule="evenodd" d="M29.3252 28.3335C29.3252 28.8812 28.8812 29.3252 28.3335 29.3252L5.66686 29.3252C5.11918 29.3252 4.67519 28.8812 4.67519 28.3335L4.67519 5.66686C4.67519 5.11918 5.11918 4.67519 5.66686 4.67519C6.21454 4.67519 6.65853 5.11918 6.65853 5.66686L6.65853 27.3419L28.3335 27.3419C28.8812 27.3419 29.3252 27.7858 29.3252 28.3335Z" fill="url(#paint1_linear_45_665)"/>
<defs>
<linearGradient id="paint0_linear_45_665" x1="29.3252" y1="23.2708" x2="0.890925" y2="18.4339" gradientUnits="userSpaceOnUse">
<stop stop-color="#3ECDFA"/>
<stop offset="1" stop-color="#52FA81"/>
</linearGradient>
<linearGradient id="paint1_linear_45_665" x1="29.3252" y1="23.2708" x2="0.890923" y2="18.4339" gradientUnits="userSpaceOnUse">
<stop stop-color="#3ECDFA"/>
<stop offset="1" stop-color="#52FA81"/>
</linearGradient>
</defs>
</svg>
