<svg width="48" height="48" viewBox="0 0 48 48" fill="none" xmlns="http://www.w3.org/2000/svg">
<path d="M44.48 11.3008C42.9462 11.9803 41.3193 12.4263 39.6535 12.624C41.3887 11.584 42.721 9.93715 43.3483 7.97491C41.6988 8.95377 39.8941 9.64343 38.0122 10.0141C36.4792 8.38099 34.2954 7.36035 31.8783 7.36035C27.2373 7.36035 23.4746 11.1229 23.4746 15.7636C23.4746 16.4223 23.549 17.0636 23.6922 17.6788C16.7082 17.3282 10.5162 13.9828 6.37138 8.89859C5.64818 10.1397 5.23378 11.5834 5.23378 13.1232C5.23378 16.0388 6.71746 18.6108 8.97218 20.1178C7.6377 20.076 6.33258 19.7156 5.16578 19.0666C5.1653 19.1018 5.1653 19.137 5.1653 19.1724C5.1653 23.2439 8.06194 26.6404 11.9061 27.4124C10.6686 27.7489 9.37063 27.7981 8.11122 27.5564C9.1805 30.8949 12.284 33.3244 15.9611 33.3924C13.0851 35.6461 9.46162 36.9896 5.52466 36.9896C4.84626 36.9896 4.17746 36.9498 3.52002 36.8722C7.2389 39.2565 11.656 40.6477 16.4016 40.6477C31.8587 40.6477 40.3111 27.8428 40.3111 16.7381C40.3111 16.3736 40.3031 16.0112 40.2867 15.6509C41.9319 14.4616 43.3519 12.9885 44.48 11.3008Z" fill="#55ACEE"/>
</svg>
