<svg width="79" height="79" viewBox="0 0 79 79" fill="none" xmlns="http://www.w3.org/2000/svg">
<path d="M73.2065 18.5987C70.6822 19.717 68.0046 20.4511 65.2628 20.7765C68.1187 19.0648 70.3115 16.3543 71.344 13.1248C68.6292 14.7358 65.6589 15.8709 62.5616 16.481C60.0386 13.7931 56.4443 12.1133 52.4661 12.1133C44.8279 12.1133 38.6351 18.3059 38.6351 25.9436C38.6351 27.0278 38.7575 28.0832 38.9932 29.0957C27.4987 28.5187 17.3077 23.0127 10.4861 14.645C9.29581 16.6877 8.61378 19.0638 8.61378 21.5981C8.61378 26.3965 11.0557 30.6296 14.7666 33.11C12.5702 33.0412 10.4222 32.448 8.50186 31.3799C8.50107 31.4378 8.50107 31.4957 8.50107 31.5539C8.50107 38.255 13.2685 43.845 19.5953 45.1156C17.5586 45.6695 15.4223 45.7505 13.3496 45.3526C15.1094 50.8473 20.2173 54.8458 26.2692 54.9577C21.5358 58.667 15.5721 60.8782 9.09252 60.8782C7.97598 60.8782 6.87525 60.8126 5.79321 60.6849C11.9139 64.6091 19.1837 66.8988 26.9942 66.8988C52.434 66.8988 66.3451 45.824 66.3451 27.5476C66.3451 26.9477 66.332 26.3512 66.3051 25.7582C69.0128 23.8008 71.3498 21.3764 73.2065 18.5987" fill="#CCCCCC"/>
</svg>
